# Vertices: 512

v 0.12176474928855896 -0.12304439395666122 -0.15671423077583313
v -0.4396912157535553 0.17455142736434937 -0.09644424170255661
v -0.24831004440784454 0.05162697657942772 -0.0008314396836794913
v 0.13220149278640747 -0.16404324769973755 0.0019769370555877686
v -0.06288512051105499 0.016782265156507492 0.13624422252178192
v -0.02306528389453888 -0.038096774369478226 -0.24488814175128937
v 0.1953515112400055 -0.2840115427970886 -0.1002441793680191
v -0.03376460820436478 -0.24767011404037476 0.27223652601242065
v 0.03937539830803871 -0.049745287746191025 -0.19536235928535461
v -0.2932099401950836 -0.07000558823347092 -0.10622324794530869
v -0.0810704380273819 0.057113051414489746 -0.02151457592844963
v -0.22806040942668915 0.23729735612869263 0.052705664187669754
v -0.04284709692001343 -0.035527441650629044 -0.0532466396689415
v 0.0891973227262497 -0.19601236283779144 0.08766218274831772
v -0.015176438726484776 -0.1463918834924698 0.05119958147406578
v -0.08613993227481842 -0.04957256093621254 -0.26682648062705994
v -0.35616493225097656 -0.04406753182411194 -0.1963004320859909
v -0.03366668149828911 0.18165740370750427 -0.19693629443645477
v -0.21319140493869781 -0.27414917945861816 0.26738354563713074
v -0.04576180875301361 0.026704633608460426 -0.24216923117637634
v 0.20198529958724976 -0.1967279464006424 -0.2592230439186096
v -0.007808556314557791 -0.12264715880155563 0.21877126395702362
v 0.11477106064558029 0.1751597374677658 -0.07210712879896164
v -0.28330808877944946 -0.0468367263674736 -0.05502069368958473
v -0.1606542468070984 0.2662746012210846 -0.15330852568149567
v 0.1168820708990097 -0.06110169738531113 0.20992565155029297
v 0.01645667850971222 0.24480129778385162 -0.26691752672195435
v 0.06885950267314911 -0.13332052528858185 -0.028892792761325836
v -0.09381791204214096 -0.03539655730128288 -0.07115880399942398
v 0.05639662593603134 -0.07693202048540115 -0.12825897336006165
v 0.4044012129306793 0.23280136287212372 -0.18309250473976135
v 0.17028872668743134 -0.16260847449302673 -0.21680395305156708
v 0.0203232504427433 -0.11940484493970871 0.06879027187824249
v 0.24474826455116272 0.023638008162379265 -0.16335061192512512
v -0.030641518533229828 -0.09590671211481094 -0.05963752791285515
v -0.14179927110671997 0.03656867891550064 -0.03674007207155228
v -0.21682208776474 0.11588578671216965 0.02547428011894226
v 0.22495503723621368 -0.05992504954338074 0.12223515659570694
v 0.10437393188476562 0.17926940321922302 -0.25457000732421875
v -0.10610514134168625 -0.013616194017231464 -0.13743408024311066
v -0.06856149435043335 0.16492390632629395 0.19568531215190887
v -0.2924872636795044 0.08638109266757965 -0.11419107019901276
v -0.10882069170475006 0.15629109740257263 0.10525047779083252
v 0.05785074830055237 0.21928617358207703 -0.30985167622566223
v 0.07176780700683594 -0.12706781923770905 0.07019239664077759
v -0.07115931808948517 0.013902699574828148 0.06315693259239197
v -0.05561992898583412 0.21579723060131073 -0.20285187661647797
v 0.015369478613138199 -0.06783875823020935 -0.04065242037177086
v -0.1452258825302124 -0.04398559778928757 -0.050133999437093735
v -0.15478771924972534 0.16906951367855072 -0.0014368875417858362
v -0.039363063871860504 -0.01187134813517332 0.09819546341896057
v -0.25905945897102356 -0.21788984537124634 0.017541935667395592
v 0.3195703625679016 -0.017358599230647087 0.03493477404117584
v -0.04218405485153198 0.13993611931800842 0.022706761956214905
v -0.14433416724205017 -0.07436179369688034 -0.05262446030974388
v -0.16957007348537445 -0.15566980838775635 -0.21777717769145966
v 0.07999799400568008 0.05888455733656883 0.13949784636497498
v -0.19742006063461304 0.22262117266654968 -0.07933037728071213
v -0.0202812310308218 -0.1395278424024582 -0.04191151261329651
v -0.33894601464271545 -0.2759990990161896 -0.031247954815626144
v 0.036486729979515076 -0.05718650668859482 0.023873738944530487
v -0.013312239199876785 -0.10733005404472351 -0.05399032309651375
v 0.15613152086734772 -0.09375902265310287 0.05313578248023987
v -0.21122507750988007 -0.027500925585627556 0.07502254098653793
v -0.0905221551656723 -0.3404288589954376 -0.17062580585479736
v -0.16644713282585144 0.24695385992527008 -0.0027322990354150534
v -0.14058013260364532 -0.0021742740646004677 -0.08262909203767776
v -0.08960502594709396 -0.06163565441966057 0.040827397257089615
v 0.18558752536773682 0.14552557468414307 0.2310774028301239
v 0.13939447700977325 -0.07695726305246353 0.12077533453702927
v -0.08276982605457306 -0.045577384531497955 -0.04856957867741585
v -0.10075868666172028 0.09326513856649399 0.05130162835121155
v -0.05050113797187805 0.0737280547618866 0.15585976839065552
v 0.013316350057721138 -0.06367714703083038 -0.10951770842075348
v 0.06777769327163696 -0.25832751393318176 -0.009354902431368828
v 0.0706980749964714 -0.1033792570233345 -0.2829686999320984
v 0.14062805473804474 0.12832747399806976 -0.06426044553518295
v -0.24009466171264648 0.07011692225933075 -0.08326917141675949
v -0.13256043195724487 -0.16639570891857147 -0.06613397598266602
v -0.14753444492816925 0.27164340019226074 0.013039374724030495
v -0.12755762040615082 -0.22379286587238312 -0.06690104305744171
v -0.1429121047258377 -0.3419719934463501 -0.15371182560920715
v 0.15092329680919647 0.043740369379520416 -0.11947894096374512
v -0.07230406999588013 0.06604582071304321 0.11045299470424652
v -0.10403204709291458 0.09977393597364426 -0.045954883098602295
v -0.05103316530585289 -0.22744105756282806 0.004804306197911501
v 0.006964386440813541 0.11985600739717484 0.06748315691947937
v -0.23226423561573029 0.04205983877182007 -0.13501302897930145
v 0.0834946557879448 0.060466453433036804 0.00789959728717804
v -0.1950453668832779 -0.004288025200366974 0.35448262095451355
v 0.11947520822286606 -0.2856350541114807 0.04346722364425659
v 0.024318525567650795 -0.3244784474372864 0.11117145419120789
v -0.12123117595911026 -0.057937778532505035 -0.015003827400505543
v -0.08940713852643967 -0.1493723839521408 0.09922865778207779
v -0.24852398037910461 -0.25087830424308777 -0.0685703232884407
v 0.03359336405992508 0.14162276685237885 -0.16387993097305298
v 0.18147170543670654 0.020772112533450127 0.009531748481094837
v -0.25011494755744934 0.16264094412326813 -0.05944841355085373
v 0.04938109964132309 -0.22641153633594513 -0.09471787512302399
v -0.16693031787872314 -0.10136643052101135 0.1234695091843605
v 0.09227599948644638 0.08226697891950607 0.18174581229686737
v 0.021702514961361885 -0.20937734842300415 0.4388591945171356
v 0.05542266368865967 -0.06496233493089676 0.1041048988699913
v 0.32354146242141724 0.206907257437706 -0.11794853955507278
v -0.17544293403625488 -0.03132615610957146 -0.2089393585920334
v -0.22402827441692352 0.12508711218833923 0.1740490049123764
v -0.008919699117541313 0.42624717950820923 -0.08835452049970627
v 0.18263892829418182 -0.1733507663011551 0.0005268609966151416
v -0.16721570491790771 -0.09115981310606003 -0.03033900260925293
v 0.0306774340569973 0.2519356608390808 -0.34207823872566223
v -0.0014093477511778474 0.014607789926230907 0.025373226031661034
v -0.14097540080547333 0.09031190723180771 -0.0376967117190361
v -0.2655525505542755 -0.0020799050107598305 -0.002085269894450903
v -0.1580035537481308 0.12895219027996063 -0.2393336445093155
v 0.12010557949542999 -0.35554972290992737 -0.12566284835338593
v -0.045342765748500824 0.29848116636276245 -0.23746350407600403
v 0.22806087136268616 0.10933203995227814 0.09329818934202194
v 0.128923699259758 -0.1443668156862259 -0.16849134862422943
v -0.1674700379371643 0.040334783494472504 -0.023952646180987358
v -0.44203895330429077 -0.10513143241405487 0.20661506056785583
v -0.05508475378155708 -0.2750549912452698 0.015509769320487976
v 0.034735146909952164 -0.09119943529367447 0.17154952883720398
v -0.2721075415611267 0.07184365391731262 0.19116126000881195
v -0.21186497807502747 -0.29355278611183167 -0.16273075342178345
v -0.006371573079377413 0.1527881771326065 -0.16794125735759735
v -0.07143907248973846 -0.13365556299686432 0.025577768683433533
v 0.06956589967012405 -0.11000289022922516 -0.02230909839272499
v -0.05081417039036751 -0.06565897166728973 -0.06261007487773895
v -0.015662146732211113 -0.29747268557548523 -0.028109364211559296
v -0.041800469160079956 -0.02515416033565998 -0.05360126867890358
v 0.052166979759931564 -0.41261613368988037 -0.04285755753517151
v -0.012127533555030823 -0.16978098452091217 -0.03803728148341179
v -0.23989203572273254 -0.059357281774282455 -0.1514439731836319
v -0.14524109661579132 0.1672537475824356 -0.030084805563092232
v -0.13689950108528137 0.12996046245098114 -0.137497216463089
v -0.0541241317987442 0.1830483227968216 -0.019306348636746407
v 0.07540688663721085 -0.2898114025592804 0.16736376285552979
v -0.1405746191740036 0.2040170431137085 0.03922608867287636
v -0.05155884847044945 -0.06354691088199615 -0.11833736300468445
v 0.12177576869726181 -0.37962451577186584 0.15776798129081726
v -0.11881888657808304 0.183912456035614 -0.15053047239780426
v -0.19743341207504272 0.08735593408346176 0.0009402966243214905
v -0.13699926435947418 0.006685218308120966 -0.07610933482646942
v -0.06913251429796219 0.10410000383853912 0.012246906757354736
v 0.056291643530130386 0.10030362010002136 0.0806480273604393
v -0.0444013774394989 -0.1276484727859497 0.04339561611413956
v -0.1622755527496338 -0.2594517171382904 -0.0431673489511013
v -0.1537894904613495 0.31898021697998047 -0.22202400863170624
v -0.04558439180254936 0.2982875108718872 0.08113358169794083
v -0.16955025494098663 -0.09480170160531998 0.24548792839050293
v 0.030726630240678787 -0.14615175127983093 -0.06228553131222725
v -0.024384627118706703 0.3033783733844757 -0.2272508144378662
v -0.212624192237854 0.11372349411249161 0.3316490352153778
v -0.2557882070541382 -0.13846571743488312 0.1681859940290451
v -0.2067849040031433 0.2570381462574005 -0.3559817373752594
v -0.07176019251346588 -0.1695098578929901 0.008454147726297379
v -0.19317981600761414 0.12227576971054077 -0.2128552794456482
v -0.1067664623260498 0.37150704860687256 0.16453754901885986
v -0.1237153485417366 -0.27588722109794617 -0.07978173345327377
v -0.1420230269432068 0.021017450839281082 -0.16198401153087616
v -0.09285495430231094 -0.3379189968109131 0.10705338418483734
v -0.0632394403219223 -0.04526597633957863 0.01983330212533474
v -0.3323822617530823 0.20529164373874664 -0.11303245276212692
v -0.05619650334119797 -0.15725170075893402 -0.29332682490348816
v -0.08017056435346603 -0.20873762667179108 -0.05167621001601219
v -0.2785734236240387 -0.2443261444568634 0.13199277222156525
v -0.18556459248065948 0.027041474357247353 -0.003023444442078471
v 0.1276444047689438 -0.0023913527838885784 -0.10378692299127579
v 0.04495340213179588 -0.0032775430008769035 0.09696833044290543
v 0.22671499848365784 -0.18502937257289886 0.1486988216638565
v 0.02560218796133995 -0.15602245926856995 0.1168840080499649
v 0.04359155893325806 0.1072603166103363 -0.12962095439434052
v 0.1018548458814621 0.2533949613571167 0.25433072447776794
v -0.19793857634067535 0.14974762499332428 0.2060731202363968
v 0.12141105532646179 0.005957017187029123 -0.017069261521100998
v 0.028168072924017906 -0.09970921277999878 -0.1563052237033844
v 0.020726514980196953 -0.2991819977760315 -0.10756118595600128
v -0.14596949517726898 0.2357596755027771 -0.16742777824401855
v -0.03037918731570244 0.024652929976582527 0.002382045378908515
v -0.04415012523531914 0.0019751780200749636 0.2598770558834076
v -0.1879207044839859 -0.009572350420057774 -0.13553780317306519
v 0.22525709867477417 -0.21787533164024353 -0.0009307331638410687
v 0.24113228917121887 -0.16261592507362366 -0.10798434168100357
v 0.10960108786821365 -0.3131270110607147 -0.08952376246452332
v -0.12438042461872101 0.3360489308834076 0.13359428942203522
v 0.06511580944061279 0.02455275133252144 0.01323919091373682
v -0.020211514085531235 -0.058778710663318634 -0.05157781392335892
v 0.07097869366407394 -0.2014114260673523 -0.07262834906578064
v -0.17072777450084686 -0.2228737324476242 -0.07326115667819977
v -0.2048742175102234 -0.3717353940010071 -0.23037360608577728
v 0.00599159998819232 -0.01422556210309267 -0.0736403688788414
v 0.20034252107143402 0.06543389707803726 -0.1344030350446701
v 0.04783302918076515 -0.007732727564871311 0.09831053018569946
v 0.03475517779588699 0.08604283630847931 0.04711912199854851
v -0.04119452089071274 0.13924512267112732 0.15484848618507385
v -0.049330197274684906 -0.26431146264076233 -0.014683898538351059
v -0.26677244901657104 -0.028753353282809258 0.18449831008911133
v 0.18865175545215607 -0.27193543314933777 0.07093729823827744
v -0.11718277633190155 0.16923417150974274 0.08932080864906311
v 0.052982624620199203 0.2298794835805893 -0.08063320815563202
v 0.2076842486858368 -0.37432700395584106 -0.0501236654818058
v -0.07448501884937286 0.20059366524219513 0.09353318065404892
v -0.13570283353328705 0.08942427486181259 0.005040442105382681
v -0.17126497626304626 -0.2702520489692688 0.15865612030029297
v -0.040128614753484726 -0.10168353468179703 0.023550789803266525
v -0.25380390882492065 0.02013341337442398 -0.09520713239908218
v 0.09503448009490967 0.09746301174163818 0.11609255522489548
v 0.18227863311767578 -0.01866189017891884 -0.00361217581667006
v -0.1581542044878006 0.04935968667268753 0.04380154237151146
v -0.10635460913181305 -0.012539675459265709 -0.06176716834306717
v -0.10015472769737244 -0.1611955612897873 0.14506371319293976
v -0.08373305201530457 0.013084926642477512 -0.013485828414559364
v -0.13410086929798126 -0.0818423181772232 0.14394217729568481
v 0.13294556736946106 0.09805205464363098 -0.025394828990101814
v -0.22627152502536774 0.20466676354408264 -0.14974775910377502
v -0.010498336516320705 -0.24518857896327972 -0.11291909217834473
v -0.06496353447437286 -0.22574511170387268 0.0034993740264326334
v -0.18241138756275177 -0.18724358081817627 -0.028532007709145546
v 0.14748506247997284 -0.22492168843746185 0.11582811921834946
v -0.08791649341583252 -0.189370259642601 -0.10438908636569977
v 0.009380723349750042 0.12747693061828613 0.15138280391693115
v -0.16023936867713928 -0.17478783428668976 -0.1515882909297943
v -0.21484632790088654 0.07899466156959534 -0.04855792596936226
v -0.26252320408821106 0.026353590190410614 -0.15456075966358185
v -0.23277387022972107 0.3286140561103821 -0.14257238805294037
v -0.20479899644851685 -0.2884775996208191 -0.25643104314804077
v -0.4001701772212982 -0.1943492442369461 0.32353055477142334
v -0.10736143589019775 -0.054348547011613846 0.00974225252866745
v -0.156733438372612 0.20044316351413727 0.24548572301864624
v 0.0467255599796772 0.004244790878146887 -0.11053299158811569
v -0.1669234186410904 0.08843043446540833 -0.3182605504989624
v -0.20022377371788025 -0.061825551092624664 -0.12671607732772827
v -0.2227969616651535 0.29491907358169556 -0.19770435988903046
v 0.03558451682329178 -0.08274900913238525 -0.08406681567430496
v -0.29411861300468445 0.29513728618621826 0.13073602318763733
v 0.04440523684024811 0.10285696387290955 0.2211274951696396
v 0.11882586777210236 -0.20192164182662964 -0.16635602712631226
v -0.07137725502252579 -0.011499594897031784 -0.1445227861404419
v -0.18818195164203644 0.3207451105117798 0.13269612193107605
v -0.20410142838954926 0.046517666429281235 0.20146454870700836
v 0.06935212761163712 -0.1727653592824936 -0.0956309512257576
v -0.006216191221028566 -0.22737011313438416 -0.1278209090232849
v 0.03453914821147919 -0.03389978036284447 0.0797567218542099
v 0.1705782562494278 -0.19104313850402832 -0.20109866559505463
v -0.026915982365608215 0.3301190733909607 -0.17092850804328918
v -0.1593150943517685 0.06724494695663452 -0.0017337987665086985
v -0.1494137942790985 0.04882902279496193 -0.21763981878757477
v -0.05216715857386589 -0.39092114567756653 -0.032077014446258545
v 0.18809671700000763 -0.3471015393733978 -0.08545298874378204
v -0.17241235077381134 0.22483868896961212 0.07696565240621567
v -0.24358351528644562 -0.281205952167511 -0.22142642736434937
v -0.15722434222698212 0.2425956279039383 0.014835608191788197
v 0.05265934765338898 0.03199918195605278 0.26389646530151367
v -0.006552947219461203 0.11362127959728241 0.2650982141494751
v 0.036669548600912094 0.03772072121500969 -0.10124056041240692
v -0.3183259963989258 0.32662805914878845 0.258971244096756
v -0.013834862038493156 0.2033151537179947 -0.2730199098587036
v -0.10073241591453552 0.5377503633499146 0.14239762723445892
v -0.15255171060562134 0.29651114344596863 0.028651276603341103
v -0.12583310902118683 -0.19740132987499237 0.17915841937065125
v 0.15348602831363678 0.019256995990872383 0.10985956341028214
v 0.0049497089348733425 -0.12358961254358292 -0.29000452160835266
v -0.01341389399021864 -0.18550994992256165 0.0722750723361969
v -0.18900558352470398 0.25002896785736084 0.02731049805879593
v -0.008676710538566113 -0.08029499650001526 0.21224813163280487
v -0.058407802134752274 0.3398001194000244 -0.10604634881019592
v -0.1896146684885025 -0.1155984103679657 -0.0814814642071724
v -0.14324335753917694 0.05259345471858978 -0.0034355127718299627
v -0.22230422496795654 0.4199061393737793 -0.09383446723222733
v -0.22093604505062103 -0.1474839150905609 -0.11255358904600143
v -0.03664524853229523 -0.05827397480607033 -0.13494201004505157
v 0.17384125292301178 -0.037359900772571564 -0.06300588697195053
v -0.07248549908399582 0.23449723422527313 0.013119957409799099
v 0.18672063946723938 -0.2089102566242218 -0.03486185148358345
v 0.13253290951251984 -0.04186803475022316 -0.00458925636485219
v -0.14503051340579987 0.042813580483198166 -0.08771765232086182
v 0.1590190976858139 -0.18326330184936523 0.24339649081230164
v -0.06816565245389938 0.01381379272788763 0.2079712450504303
v 0.12596961855888367 -0.23954728245735168 -0.07723231613636017
v -0.031469739973545074 0.07413610816001892 -0.0384015217423439
v -0.231539785861969 0.09415178745985031 -0.1703955978155136
v -0.061452239751815796 -0.41908910870552063 0.21030786633491516
v 0.19175677001476288 0.12983986735343933 -0.22248730063438416
v -0.042706020176410675 -0.11472269892692566 0.221819207072258
v -0.20174510776996613 -0.009831317700445652 0.06855987012386322
v -0.13834144175052643 0.3220437169075012 0.13029475510120392
v 0.2755633294582367 0.06422798335552216 0.2262406051158905
v -0.06578494608402252 -0.3926815688610077 0.28853270411491394
v 0.0077864788472652435 -0.05959714204072952 -0.05119824782013893
v 0.14316794276237488 -0.06594879925251007 0.11387813091278076
v 0.12151376157999039 -0.15408477187156677 -0.09496772289276123
v -0.3343851566314697 0.0120222894474864 0.053083594888448715
v -0.09242352098226547 -0.08886323124170303 -0.06706783920526505
v -0.0128175625577569 -0.11265329271554947 0.05195302516222
v 0.1133187934756279 -0.0388365238904953 -0.2537199556827545
v 0.16141757369041443 -0.06060918793082237 -0.14750942587852478
v 0.258891761302948 -0.1235739216208458 0.18086908757686615
v 0.11826642602682114 0.03722238540649414 0.06648305058479309
v -0.009832281619310379 -0.0034198476932942867 -0.11127538979053497
v -0.01512584276497364 0.01998850330710411 0.03218505159020424
v -0.04396352916955948 -0.03985936939716339 0.15873728692531586
v 0.23672904074192047 -0.2864222824573517 -0.02431088127195835
v -0.22342532873153687 -0.19158844649791718 0.09046808630228043
v 0.1174837201833725 -0.005159024149179459 -0.008667643181979656
v -0.22071005403995514 0.1974993646144867 0.08665799349546432
v -0.1555691808462143 0.2597860097885132 -0.15018758177757263
v -0.15325547754764557 0.31265485286712646 -0.2558942437171936
v -0.18220560252666473 -0.16460804641246796 0.21749162673950195
v -0.10305791348218918 -0.03241734951734543 0.14177466928958893
v -0.062248408794403076 0.004358773585408926 -0.2812701463699341
v 0.10137384384870529 0.3208669126033783 0.12779925763607025
v -0.18051813542842865 0.11758498847484589 -0.19630615413188934
v -0.1722923219203949 0.15773417055606842 -0.03773083910346031
v -0.3495157063007355 0.35160791873931885 0.22078455984592438
v -0.2871265709400177 -0.20518973469734192 -0.03855092450976372
v -0.025788189843297005 -0.09903178364038467 -0.19527193903923035
v 0.08978400379419327 -0.14241206645965576 -0.2566046118736267
v 0.06913165748119354 -0.07255647331476212 0.04190786927938461
v 0.09802723675966263 -0.044589441269636154 -0.047456175088882446
v -0.31275704503059387 0.018894970417022705 0.11094104498624802
v -0.11372897028923035 0.05723520368337631 0.06800339370965958
v 0.10967808216810226 -0.13218215107917786 -0.2738915979862213
v -0.3265317380428314 0.07372672110795975 -0.15451233088970184
v 0.1799633502960205 -0.0018282178789377213 0.10347370058298111
v -0.0863499790430069 -0.2115023136138916 0.20550325512886047
v -0.05962924659252167 0.38109487295150757 0.08064784109592438
v 0.0141055379062891 -0.002573797246441245 0.10356391221284866
v -0.1051769033074379 -0.11583530902862549 -0.056302931159734726
v -0.17914876341819763 0.009974036365747452 -0.09684137254953384
v 0.03431963175535202 -0.24629564583301544 0.2934252917766571
v -0.30283981561660767 0.14913593232631683 -0.02345230057835579
v 0.022461000829935074 -0.007342218887060881 -0.17613844573497772
v -7.167372132244054e-06 -0.12528006732463837 -0.1417018175125122
v 0.21925494074821472 -0.14627157151699066 -0.03408099338412285
v -0.15443214774131775 0.015084811486303806 -0.20863647758960724
v 0.08117036521434784 0.07944561541080475 -0.039038073271512985
v -0.05752630531787872 0.020749656483530998 -0.16083784401416779
v -0.07605485618114471 -0.48842906951904297 -0.19112543761730194
v -0.22768327593803406 0.0020019360817968845 0.037406835705041885
v -0.10604159533977509 -0.14480212330818176 0.13414625823497772
v 0.21076594293117523 -0.07939599454402924 0.12219294160604477
v -0.0834704264998436 0.2537044882774353 0.09051080793142319
v -0.11299295723438263 -0.13236717879772186 0.32589223980903625
v 0.06362422555685043 -0.24303081631660461 0.13870377838611603
v -0.15188254415988922 0.03192431479692459 -0.07448633015155792
v -0.20486980676651 0.20197731256484985 -0.053056132048368454
v -0.17795982956886292 0.13883529603481293 -0.06767153739929199
v 0.10970845073461533 -0.18450286984443665 0.18651649355888367
v -0.08023881167173386 0.12544196844100952 0.12771031260490417
v -0.26188749074935913 0.24953989684581757 0.12176596373319626
v -0.09327810257673264 -0.019149400293827057 0.12985718250274658
v -0.13475586473941803 0.25227490067481995 -0.14839203655719757
v -0.036076586693525314 0.09070844203233719 0.1766050159931183
v 0.1006694883108139 -0.1970062106847763 -0.019893977791070938
v 0.18857254087924957 0.08938498795032501 0.37950825691223145
v -0.13655836880207062 -0.015466251410543919 0.17360380291938782
v 0.010419885627925396 0.15474313497543335 0.3595469295978546
v -0.15096446871757507 -0.194577157497406 0.18271763622760773
v -0.24540996551513672 0.3059130907058716 0.15335486829280853
v -0.13066507875919342 -0.01415780559182167 -0.19344107806682587
v 0.008973206393420696 -0.19023507833480835 -0.11273025721311569
v -0.027950773015618324 -0.1212751492857933 0.1137627586722374
v 0.03541841357946396 -0.09187117964029312 -0.062378931790590286
v -0.05708063393831253 0.04425063356757164 0.103317990899086
v -0.2297118902206421 0.20090878009796143 0.058146603405475616
v -0.03861690312623978 -0.03592275455594063 -0.16830076277256012
v -0.10080896317958832 -0.019209155812859535 0.04981354996562004
v -0.07953789085149765 -0.00023117632372304797 0.08844110369682312
v 0.06431703269481659 0.10347769409418106 0.15959157049655914
v -0.3065359592437744 0.391993910074234 0.07487855106592178
v 0.11224012821912766 0.17642882466316223 0.03078700415790081
v 0.020895490422844887 -0.09418504685163498 -0.29888108372688293
v -0.015049067325890064 -0.16138073801994324 0.15756282210350037
v -0.04946712404489517 -0.23884138464927673 0.08504746854305267
v -0.3054942488670349 0.06189365312457085 -0.014115682803094387
v 0.045347899198532104 0.1534956991672516 -0.2010515332221985
v 0.0318852923810482 0.143803671002388 -0.11086999624967575
v -0.2109309732913971 -0.22220809757709503 -0.15400588512420654
v -0.24140506982803345 -0.15460410714149475 -0.20191170275211334
v -0.03578412905335426 -0.08140021562576294 -0.14026066660881042
v -0.14304693043231964 0.10110414773225784 0.0391102060675621
v -0.026043379679322243 -0.09502086788415909 -0.22908641397953033
v 0.0038478649221360683 0.19378754496574402 -0.08235897123813629
v -0.09652112424373627 0.152662456035614 0.07545576989650726
v 0.13938598334789276 -0.06516815721988678 -0.10480394214391708
v -0.0878971517086029 0.015584568493068218 -0.08175034075975418
v 0.08248583227396011 -0.31760451197624207 -0.18590818345546722
v -0.1281667798757553 0.07633931189775467 0.1994178295135498
v 0.21468661725521088 0.25526151061058044 0.21861089766025543
v 0.11360946297645569 -0.12398672848939896 -0.060848936438560486
v -0.1255636066198349 -0.15474729239940643 0.02795049548149109
v -0.22201670706272125 -0.016546890139579773 -0.07813236862421036
v 0.10876761376857758 -0.037868432700634 -0.21216614544391632
v 0.11765450984239578 -0.1632026731967926 0.13076071441173553
v -0.1907978355884552 -0.09483282268047333 -0.24380244314670563
v -0.32220885157585144 0.2294023334980011 0.06344656646251678
v -0.27230292558670044 0.004404831677675247 -0.32714587450027466
v 0.19409146904945374 -0.2152164876461029 -0.16448572278022766
v -0.28881195187568665 -0.09281517565250397 0.10343044251203537
v 0.03422336280345917 0.11129165440797806 0.012365725822746754
v 0.0824924111366272 0.10463491082191467 0.15155555307865143
v 0.20937912166118622 0.0941355898976326 -0.11343402415513992
v 0.023617006838321686 -0.029339715838432312 0.03528931364417076
v -0.37935343384742737 0.09495154768228531 0.20205797255039215
v 0.0015999985625967383 -0.09418980032205582 0.35003721714019775
v 0.16075477004051208 -0.24477489292621613 -0.18316824734210968
v -0.19435399770736694 0.19613654911518097 0.051686402410268784
v -0.08744783699512482 -0.06861278414726257 -0.11386006325483322
v 0.1871793270111084 0.02255234494805336 -0.2732006907463074
v 0.12178674340248108 -0.0406501479446888 -0.015806075185537338
v -0.06915198266506195 -0.23235996067523956 -0.08404471725225449
v 0.03422863781452179 -0.18418526649475098 -0.0345289409160614
v 0.239427387714386 0.06706999987363815 -0.11636358499526978
v 0.022918587550520897 -0.09479860216379166 0.0501084178686142
v 0.1586693376302719 -0.2577253580093384 0.04357048124074936
v -0.17871832847595215 0.19298355281352997 -0.03201412037014961
v -0.18311655521392822 -0.12403182685375214 -0.03732748329639435
v 0.010363909415900707 -0.11851857602596283 0.06353692710399628
v 0.0006527039804495871 -0.1722458004951477 -0.0759241059422493
v -0.33418041467666626 0.18372474610805511 0.08094065636396408
v -0.00301109510473907 0.2982882261276245 -0.02055549807846546
v 0.14177599549293518 -0.054772596806287766 0.00270452001132071
v -0.13968448340892792 -0.2062879204750061 -0.0963154211640358
v -0.1933777779340744 0.456177294254303 0.08326339721679688
v -0.11421054601669312 -0.1404120773077011 0.060522809624671936
v -0.12434715777635574 0.13914015889167786 -0.029972126707434654
v -0.11420925706624985 -0.04454094544053078 -0.2111365646123886
v 0.030578790232539177 -0.07552254945039749 0.05083119496703148
v 0.082013800740242 -0.09800747781991959 0.017674190923571587
v -0.07624556124210358 -0.2302512377500534 0.10338433086872101
v 0.02483242377638817 -0.05016898736357689 -0.0522904135286808
v 0.22397775948047638 0.0381731279194355 -0.09790363162755966
v -0.07630213350057602 -0.05639234185218811 0.23565752804279327
v 0.2873353660106659 0.08254236727952957 -0.03471483290195465
v 0.02432425133883953 0.036214765161275864 0.19345825910568237
v -0.18263496458530426 -0.05447544902563095 0.13438422977924347
v -0.12618614733219147 0.30986183881759644 -0.04249347001314163
v -0.13846932351589203 0.2202751636505127 -0.15469184517860413
v -0.045474641025066376 0.17743799090385437 -0.04088625684380531
v -0.10220671445131302 0.2561204135417938 0.10981052368879318
v 0.01228511892259121 0.18481667339801788 0.29738157987594604
v -0.09492798149585724 -0.11734434217214584 -0.05011173337697983
v 0.008926589973270893 -0.40948519110679626 0.026703936979174614
v 0.015997769311070442 -0.1334443986415863 -0.15946459770202637
v -0.1924031376838684 0.00030336633790284395 -0.10590203106403351
v 0.3272905945777893 0.0038038836792111397 0.0054252552799880505
v -0.050448816269636154 -0.1999199390411377 0.08407379686832428
v 0.016611382365226746 0.01983453333377838 0.13262301683425903
v 0.018462471663951874 0.08743607997894287 -0.17869018018245697
v 0.05709994584321976 -0.17035579681396484 0.08255110681056976
v 0.10304316878318787 0.08192113041877747 0.30108842253685
v 0.1586790233850479 0.0706951841711998 -0.019975852221250534
v -0.0011747453827410936 0.28936758637428284 0.18512308597564697
v -0.14521685242652893 0.2778197228908539 0.007604117039591074
v -0.15307661890983582 0.06399781256914139 -0.059322502464056015
v -0.28557953238487244 0.06910756975412369 -0.16060659289360046
v -0.23372988402843475 -0.10266436636447906 0.2764394283294678
v -0.041349686682224274 0.03254541754722595 -0.06932156533002853
v 0.019322562962770462 -0.34449678659439087 -0.2300187647342682
v -0.008615591563284397 -0.22225134074687958 0.07906579971313477
v 0.014454325661063194 -0.21681489050388336 0.18172001838684082
v -0.27116817235946655 -0.0653340294957161 -0.025245973840355873
v 0.003243750659748912 -0.1958412081003189 -0.021667247638106346
v 0.18566925823688507 -0.4324081242084503 -0.19985361397266388
v -0.15388821065425873 -0.09554658085107803 0.011479752138257027
v -0.16671571135520935 0.11226290464401245 -0.1252598911523819
v -0.004332377575337887 -0.010245869867503643 0.0060592470690608025
v -0.1652727872133255 0.28585463762283325 0.15415184199810028
v -0.018929511308670044 0.1478990614414215 -0.02479449100792408
v -0.25499412417411804 0.054444342851638794 -0.13600687682628632
v 0.12098437547683716 -0.3112826645374298 -0.0350610613822937
v 0.2065199464559555 0.19468536972999573 0.25612127780914307
v 0.1603843867778778 0.01873086579144001 -0.06156347319483757
v 0.16944950819015503 -0.2318011075258255 -0.004232111386954784
v -0.005370480939745903 -0.027361702173948288 0.09698177129030228
v -0.08647226542234421 0.25637349486351013 0.19786420464515686
v 0.13854314386844635 0.11820759624242783 0.002337805926799774
v -0.10446684807538986 0.02413916401565075 0.05144403129816055
v -0.37120240926742554 0.0707322210073471 0.021292056888341904
v -0.06868719309568405 0.00512845441699028 -0.0845130980014801
v -0.2193913757801056 -0.12645608186721802 -0.03477364033460617
v 0.2903861105442047 -0.13945981860160828 -0.008224805817008018
v -0.10984071344137192 0.23559364676475525 -0.10337026417255402
v -0.13179832696914673 -0.17189337313175201 0.15978087484836578
v -0.06281956285238266 -0.2544327974319458 0.05471062660217285
v -0.27057939767837524 0.10399448871612549 -0.012931056320667267
v 0.19121886789798737 -0.039645127952098846 -0.00809138361364603
v 0.09290409088134766 -0.22269415855407715 0.12609192728996277
v -0.19933868944644928 -0.056547753512859344 -0.22767896950244904
v -0.08285506069660187 0.21793556213378906 -0.08022825419902802
v -0.18237507343292236 0.14255589246749878 0.0974762812256813
v -0.2736412286758423 0.18935951590538025 -0.01504988968372345
v -0.2420208901166916 0.2794351279735565 -0.06399813294410706
v -0.11508385092020035 0.009876644238829613 -0.05095529556274414
v 0.007264192681759596 -0.020417172461748123 -0.014712131582200527
v 0.13464078307151794 -0.06917013972997665 -0.08984993398189545
v -0.19378378987312317 0.31752169132232666 0.03315804526209831
v 0.17837569117546082 -0.21423932909965515 0.17385238409042358
v 0.3063795864582062 -0.0965307205915451 0.10922931879758835
v -0.08652451634407043 0.20556871592998505 -0.001283499994315207
v -0.12152133882045746 0.34748944640159607 -0.019289221614599228
v -0.1173335611820221 -0.05189899355173111 -0.04572819173336029
v -0.3021068871021271 0.07465702295303345 -0.08810723572969437
v -0.20943325757980347 0.07450678944587708 0.011208037845790386
v 0.30392229557037354 0.031611740589141846 0.0710095688700676
v -0.10699910670518875 -0.16023573279380798 -0.127938374876976
v -0.1915687918663025 -0.075876884162426 -0.22109436988830566
v 0.12862251698970795 0.12244588136672974 -0.15543898940086365
v 0.017050545662641525 -0.0847758799791336 0.012161062099039555
v 0.019387681037187576 0.23377010226249695 -0.3947921097278595
v -0.14653632044792175 0.14105935394763947 0.060523007065057755
v -0.18286359310150146 0.2558813691139221 -0.06058275327086449
