# Vertices: 512

v -0.1542457938194275 0.09363522380590439 0.01320873573422432
v -0.15407341718673706 0.29601988196372986 0.1458033323287964
v 0.1699296236038208 -0.29045042395591736 0.184605211019516
v -0.1352555751800537 0.15810567140579224 0.04895234853029251
v -0.16483929753303528 0.20460261404514313 0.10233944654464722
v 0.06343735754489899 -0.040314894169569016 -0.11297174543142319
v 0.09036042541265488 -0.0071408189833164215 -0.10929514467716217
v -0.1186220645904541 0.10123840719461441 -0.18367823958396912
v -0.06457570195198059 0.1552550494670868 0.036609090864658356
v -0.2684352397918701 0.31273916363716125 -0.17508649826049805
v -0.22014741599559784 0.31083256006240845 0.08656485378742218
v 0.07276194542646408 -0.008528737351298332 -0.16738365590572357
v -0.10726410150527954 -0.17700687050819397 0.1838233321905136
v -0.15505550801753998 0.09136027097702026 -0.027541939169168472
v 0.0668991282582283 0.018674097955226898 0.15535619854927063
v -0.09166683256626129 0.11396937817335129 0.07687150686979294
v 0.11434166133403778 -0.03612760081887245 -0.050978321582078934
v -0.05835875868797302 0.22067669034004211 -0.04428018629550934
v -0.07534047961235046 -0.014277967624366283 0.03132659196853638
v 0.12551334500312805 -0.060529787093400955 0.008817608468234539
v -0.20929023623466492 0.05545784905552864 -0.11375763267278671
v 0.019548997282981873 -0.08351902663707733 -0.23120057582855225
v -0.18121807277202606 0.2651785612106323 -0.0035753219854086637
v -0.16587990522384644 0.1327260583639145 0.0676465705037117
v -0.11198344081640244 0.2196740359067917 -0.007409029174596071
v -0.18195024132728577 0.11203223466873169 0.1573571413755417
v 0.173597514629364 -0.10845352709293365 -0.15720660984516144
v 0.2085474133491516 -0.2715133726596832 -0.18196597695350647
v -0.15720906853675842 0.10342682898044586 -0.09152728319168091
v -0.060952674597501755 0.19847775995731354 0.03931546211242676
v 0.11954029649496078 -0.14086827635765076 0.06121915578842163
v -0.008369937539100647 0.07938485592603683 -0.03824392333626747
v -0.17037661373615265 0.3191448152065277 0.010953061282634735
v 0.10821099579334259 -0.30829745531082153 0.18983706831932068
v 0.20330402255058289 -0.0004587379517033696 -0.10050807893276215
v 0.09959165006875992 -0.03269894793629646 -0.14294950664043427
v -0.11721179634332657 0.22017526626586914 -0.16846135258674622
v -0.002968555549159646 0.014567839913070202 -0.1609978824853897
v -0.07223153114318848 -0.04661122336983681 0.034471139311790466
v 0.25496649742126465 -0.03618982806801796 -0.167758047580719
v 0.13996294140815735 -0.06692244857549667 -0.1417044848203659
v -0.10657352954149246 0.03595587983727455 -0.09043599665164948
v -0.19370539486408234 0.1141260415315628 -0.01860029436647892
v 0.1742381602525711 -0.12817463278770447 0.14259180426597595
v -0.17417830228805542 0.18775881826877594 -0.005719943903386593
v 0.07573174685239792 -0.029475517570972443 0.009530614130198956
v -0.21131205558776855 0.20790591835975647 0.15168526768684387
v 0.1414201706647873 -0.11967715620994568 0.12715281546115875
v 0.21866506338119507 0.06630280613899231 -0.048161983489990234
v 0.11410575360059738 -0.09758438915014267 -0.2073644995689392
v -0.052889999002218246 -0.21754279732704163 0.15748068690299988
v -0.15756292641162872 0.17688298225402832 -0.004225620999932289
v 0.05167929828166962 -0.1184534952044487 -0.11291085183620453
v 0.18497173488140106 -0.20893007516860962 0.16919346153736115
v -0.11227618902921677 -0.08155494183301926 0.053442128002643585
v -0.058911021798849106 0.0029889065772295 0.19606177508831024
v -0.11885903775691986 -0.3089422583580017 -0.10186642408370972
v -0.23496796190738678 0.24794283509254456 0.14201132953166962
v -0.062331993132829666 0.1072082668542862 -0.12646088004112244
v 0.15224596858024597 -0.08165603131055832 -0.13564513623714447
v 0.3016432523727417 -0.05759226530790329 0.06906943768262863
v -0.03476986289024353 -0.08476928621530533 -0.09613827615976334
v -0.026188066229224205 -0.04909234121441841 0.007334578316658735
v 0.14838339388370514 -0.02455310896039009 -0.043458834290504456
v -0.13798801600933075 0.08277653157711029 -0.022875845432281494
v -0.060925960540771484 -0.12011830508708954 0.2301756590604782
v -0.11946165561676025 -0.3857472836971283 -0.1673230677843094
v -0.07605373114347458 0.047869402915239334 -0.01441904902458191
v 0.09648874402046204 0.02204633504152298 -0.12349342554807663
v -0.09544384479522705 0.07678008079528809 0.05322800949215889
v -0.14646247029304504 -0.20915448665618896 -0.11552456766366959
v 0.005424650385975838 -0.049023233354091644 -0.026213251054286957
v -0.05130698159337044 -0.10218437761068344 -0.027742324396967888
v 0.05226795747876167 -0.06307178735733032 -0.06886927038431168
v -0.08446916937828064 -0.2229282706975937 -0.08691658824682236
v 0.015672415494918823 0.010774923488497734 -0.11000730842351913
v -0.18821598589420319 -0.15344542264938354 -0.006115005351603031
v -0.12642860412597656 -0.23191845417022705 -0.2065371572971344
v -0.2963419258594513 0.3292188048362732 0.1060735434293747
v -0.15237191319465637 0.12222910672426224 0.24977979063987732
v -0.054050154983997345 -0.046660758554935455 0.08375655859708786
v -0.2107653170824051 0.20266114175319672 0.07223097234964371
v -0.03060227818787098 0.05470752716064453 -0.18472419679164886
v -0.08201578259468079 -0.04582010582089424 0.11716672778129578
v -0.07914332300424576 0.0045999521389603615 -0.18284718692302704
v -0.1464511901140213 0.055563781410455704 0.15838439762592316
v -0.17333576083183289 0.28873488306999207 -0.03482818230986595
v -0.1577780544757843 -0.09222936630249023 0.09953487664461136
v -0.032346248626708984 0.2555994391441345 0.02599065750837326
v -0.1861664056777954 -0.18268153071403503 0.16302241384983063
v 0.0449051707983017 -0.10784554481506348 0.036239489912986755
v 0.03685717657208443 -0.028538396582007408 0.06180436536669731
v 0.1509028822183609 0.048131588846445084 -0.038569994270801544
v -0.013973341323435307 -0.11651872098445892 0.006405700463801622
v -0.1627989411354065 0.22470241785049438 0.05518187955021858
v 0.05375039950013161 0.011391020379960537 0.17447535693645477
v -0.185275599360466 -0.08013150095939636 0.011354176327586174
v -0.12951721251010895 0.12203291803598404 -0.09846935421228409
v -0.002402910264208913 0.03858150169253349 0.19444972276687622
v -0.06755398213863373 0.03930949047207832 0.09180081635713577
v 0.0720459520816803 -0.13085514307022095 0.12884017825126648
v -0.22870640456676483 0.1546577364206314 0.09689025580883026
v 0.03232089430093765 0.057096853852272034 0.005380951799452305
v -0.18823499977588654 0.15570873022079468 0.06384175270795822
v -0.24447184801101685 0.25519976019859314 -0.03269577398896217
v -0.01564725488424301 0.039431240409612656 0.19850856065750122
v 0.07878728210926056 -0.2881300747394562 0.08609398454427719
v -0.14856873452663422 0.021750573068857193 -0.15516388416290283
v 0.03296804800629616 0.04924694821238518 0.08432065695524216
v 0.0007501781219616532 0.00018039232236333191 0.025224585086107254
v -0.20101751387119293 0.16249121725559235 -0.19122585654258728
v -0.15115085244178772 -0.13191723823547363 -0.125932976603508
v -0.1416473090648651 0.06316889077425003 -0.05697129666805267
v -0.13669468462467194 0.14080014824867249 0.09015559405088425
v -0.12864890694618225 -0.18837715685367584 0.08932510018348694
v -0.1936471164226532 0.21063663065433502 0.11876299232244492
v -0.047538843005895615 -0.16474081575870514 -0.14684176445007324
v -0.18680712580680847 0.30803078413009644 -0.01315781194716692
v -0.06835655122995377 0.037059053778648376 0.03607344627380371
v -0.07728461921215057 0.19837692379951477 0.13588416576385498
v -0.015327846631407738 -0.09463571012020111 -0.0942239761352539
v -0.11890651285648346 -0.209386944770813 0.08473411202430725
v -0.014677353203296661 0.03219054639339447 0.031131399795413017
v -0.02196083776652813 -0.025874854996800423 -0.006899054627865553
v 0.15165333449840546 0.07050147652626038 -0.06285889446735382
v 0.03617589920759201 -0.059597231447696686 -0.11662536859512329
v -0.10107213258743286 -0.10121607035398483 0.09554585814476013
v -0.14103563129901886 -0.0357426293194294 -0.22821581363677979
v -0.2597910761833191 0.13076193630695343 0.06783545017242432
v -0.12075410038232803 0.16435739398002625 -0.08108638226985931
v -0.17269501090049744 -0.09962107986211777 0.007382925134152174
v -0.09974800050258636 -0.273678183555603 0.007200013380497694
v -0.018483128398656845 -0.3045736253261566 -0.08718188852071762
v -0.18332558870315552 0.09413789957761765 -0.11759531497955322
v -0.12342233955860138 0.2814715504646301 0.12848806381225586
v -0.1920907199382782 -0.3312912881374359 -0.18800579011440277
v 0.18715031445026398 -0.0679132491350174 0.04729202017188072
v 0.26165512204170227 -0.2275920808315277 0.07015769183635712
v 0.08285851776599884 -0.22923487424850464 -0.1865263283252716
v -0.017758740112185478 -0.047283515334129333 -0.1454886794090271
v -0.09113249182701111 -0.03383949398994446 -0.007424692623317242
v -0.02888757362961769 -0.02855459786951542 0.191460981965065
v -0.20344428718090057 -0.32914918661117554 0.21676863729953766
v 0.04242779687047005 -0.055776480585336685 0.066412553191185
v 0.10878854990005493 -0.18251661956310272 0.051578786224126816
v -0.020773950964212418 -0.24212747812271118 0.30687448382377625
v -0.16862837970256805 0.03751154616475105 -0.028214428573846817
v -0.23965546488761902 0.0022147081326693296 0.06911396235227585
v -0.2096511870622635 0.30251118540763855 0.11410821229219437
v 0.04628898203372955 0.026133377104997635 -0.2872491478919983
v 0.09578868001699448 -0.16110815107822418 -0.15166589617729187
v -0.14745254814624786 0.16638122498989105 -0.12073023617267609
v -0.14569394290447235 -0.1973390132188797 0.0793609470129013
v -0.18168845772743225 -0.23280774056911469 0.01932518184185028
v -0.14323048293590546 0.14041189849376678 0.230094775557518
v 0.004147589672356844 -0.02639031410217285 0.08791756629943848
v -0.16570447385311127 0.1838158816099167 0.003381157061085105
v -0.08607026934623718 -0.09826820343732834 -0.03159913048148155
v -0.22438840568065643 0.2266015112400055 0.1461947113275528
v -0.14459852874279022 0.11579858511686325 -0.04161125794053078
v 0.16808786988258362 -0.07366839051246643 -0.15032346546649933
v -0.12796683609485626 0.1698840856552124 0.17780417203903198
v -0.18848580121994019 0.08927322924137115 0.06326822191476822
v 0.014196906238794327 0.04452083259820938 -0.08570311218500137
v -0.07749325037002563 -0.028936855494976044 -0.10564187169075012
v 0.16523025929927826 -0.17486239969730377 -0.22035202383995056
v -0.2845209538936615 0.1805783361196518 -0.10444946587085724
v 0.010403047315776348 -0.22081516683101654 -0.1373634785413742
v -0.02969861589372158 -0.25647035241127014 0.007440489716827869
v -0.18206782639026642 0.10747720301151276 -0.13182777166366577
v -0.05765105038881302 -0.07701723277568817 -0.16482070088386536
v 0.10177537053823471 -0.03885423392057419 0.029069049283862114
v -0.04086701199412346 0.04588596150279045 0.010119466111063957
v -0.18815018236637115 0.29573532938957214 0.08993853628635406
v 0.04700953885912895 -0.027607511729002 0.10910886526107788
v -0.11314695328474045 0.16187430918216705 0.18328702449798584
v 0.1456547975540161 -0.060535550117492676 0.08248606324195862
v -0.10439865291118622 0.022497914731502533 -0.1339968889951706
v -0.01875287853181362 0.052828311920166016 0.12559551000595093
v -0.07880951464176178 -0.21697406470775604 0.23386169970035553
v -0.06353574246168137 -0.004483071155846119 0.11918487399816513
v 0.08729370683431625 -0.16171540319919586 -0.0861288383603096
v -0.09311149269342422 0.09845085442066193 0.030858824029564857
v -0.15765781700611115 -0.03557750582695007 0.06936861574649811
v -0.2121809870004654 0.3721618950366974 -0.1966591477394104
v -0.21625018119812012 -0.16623422503471375 -0.24376775324344635
v -0.21445465087890625 0.30796706676483154 0.09150397032499313
v 0.17693528532981873 -0.06517753005027771 0.0964653491973877
v -0.0918297991156578 0.16475315392017365 0.09750547260046005
v -0.11205585300922394 0.13447828590869904 -0.07246710360050201
v -0.1972137987613678 -0.1321054846048355 0.1360149085521698
v 0.029682893306016922 -0.038025833666324615 -0.06481341272592545
v -0.06963858008384705 -0.06725692003965378 -0.0034739223774522543
v -0.17099399864673615 0.18187315762043 0.04676560312509537
v -0.11709628254175186 0.05208728834986687 0.10289358347654343
v 0.03921758383512497 0.08739156275987625 -0.04488207772374153
v 0.14938808977603912 -0.10722807794809341 0.02568749524652958
v -0.20526690781116486 -0.049954548478126526 0.24507863819599152
v 0.17956523597240448 -0.2041308730840683 0.16911844909191132
v 0.059377625584602356 0.004505779594182968 -0.06338302791118622
v 0.10230553150177002 0.01284067239612341 -0.07126431912183762
v 0.016679376363754272 -0.1971845030784607 0.15004749596118927
v -0.15294146537780762 -0.09138785302639008 0.17123514413833618
v -0.0902005285024643 -0.0446503721177578 -0.01654881238937378
v -0.1356802135705948 0.0003832544607575983 -0.04987350106239319
v 0.1178397610783577 -0.21552133560180664 0.06067418307065964
v 0.1123465821146965 -0.22292417287826538 -0.13704174757003784
v -0.07782627642154694 0.16972704231739044 0.12802033126354218
v -0.1489839255809784 0.1997826248407364 -0.09481779485940933
v -0.17193512618541718 0.12999343872070312 -0.11109212785959244
v 0.0722392275929451 0.050429824739694595 -0.13143783807754517
v 0.05035686492919922 0.07646976411342621 -0.06833324581384659
v -0.039800580590963364 -0.04192043095827103 0.054755695164203644
v -0.22843952476978302 0.3150149881839752 -0.11847156286239624
v 0.06798499822616577 -0.03748505562543869 0.07746762782335281
v 0.05160855874419212 -0.2678184509277344 0.1442916840314865
v -0.22711390256881714 0.1974518895149231 -0.20821894705295563
v 0.07372217625379562 0.05311410501599312 0.054624784737825394
v 0.14392343163490295 -0.04551280662417412 -0.09683601558208466
v -0.164478600025177 -0.03494197875261307 -0.05714873597025871
v -0.13223497569561005 0.09390625357627869 0.07955321669578552
v 0.21219415962696075 -0.07373182475566864 -0.14826048910617828
v 0.12481691688299179 -0.04037589207291603 -0.02235216274857521
v 0.20239461958408356 -0.09541922807693481 -0.1394599825143814
v -0.18461599946022034 0.36150258779525757 -0.07658494263887405
v -0.07151994109153748 -0.15552178025245667 -0.08420310914516449
v 0.12667664885520935 0.008630718104541302 -0.015670236200094223
v -0.17303818464279175 -0.034434620290994644 0.13663583993911743
v 0.11551225930452347 -0.09013967216014862 -0.1008305475115776
v -0.006252208724617958 0.000874900899361819 0.07349101454019547
v -0.13177314400672913 -0.24970179796218872 -0.11617350578308105
v -0.11055439710617065 -0.05876936390995979 0.005045443307608366
v -0.09698396921157837 -0.020031632855534554 0.14041441679000854
v 0.14424683153629303 -0.1678694486618042 0.09814804047346115
v 0.01584017463028431 0.16712044179439545 0.02495821751654148
v -0.008848750032484531 -0.0944741815328598 0.14100341498851776
v 0.17289578914642334 -0.15851789712905884 -0.09237939864397049
v -0.1853618323802948 0.07932496070861816 -0.15222492814064026
v 0.13055261969566345 -0.02579108253121376 -0.042094044387340546
v -0.09893767535686493 0.024900831282138824 0.028394632041454315
v 0.16118653118610382 -0.08602592349052429 -0.11545664817094803
v 0.004121422301977873 0.05080988258123398 0.12435801327228546
v 0.0020562130957841873 -0.1132577583193779 -0.054951827973127365
v 0.16512754559516907 -0.06542330980300903 -0.15245695412158966
v 0.013551426120102406 -0.0317542627453804 0.11379311978816986
v -0.09219563752412796 0.14216479659080505 0.09115009009838104
v -0.14049918949604034 -0.1842486560344696 0.08585073053836823
v 0.15531429648399353 -0.12189362198114395 0.03567070886492729
v -0.11967206001281738 -0.09333814680576324 -0.023271678015589714
v 0.10925187915563583 -0.1309557557106018 -0.18473152816295624
v 0.11219698190689087 -0.3113366365432739 -0.028311189264059067
v -0.15695296227931976 0.15867727994918823 0.1506275087594986
v -0.1734337955713272 0.18377284705638885 0.004575005266815424
v -0.06607554107904434 -0.04854555055499077 -0.12132236361503601
v -0.19348764419555664 0.14770083129405975 0.09427080303430557
v 0.09186826646327972 0.002469685859978199 -0.09635388106107712
v -0.1301223486661911 0.2776832580566406 0.11867005378007889
v -0.09146686643362045 -0.015242477878928185 -0.14309833943843842
v -0.14419910311698914 0.035123858600854874 0.010203796438872814
v -0.20750336349010468 0.22894857823848724 0.17054717242717743
v 0.17404358088970184 -0.12493037432432175 -0.14157117903232574
v 0.09941258281469345 -0.02135995775461197 0.06212496757507324
v 0.13028767704963684 -0.010427907109260559 0.15881484746932983
v -0.12638895213603973 -0.2033025026321411 -0.11166880279779434
v 0.060683831572532654 -0.01235883217304945 0.05786474421620369
v -0.08983881026506424 -0.06763622164726257 0.10177598893642426
v -0.11507810652256012 0.00025990227004513144 0.12696725130081177
v -0.2100932002067566 -0.19706472754478455 0.013720409944653511
v -0.10013560205698013 -0.004181139171123505 -0.09728274494409561
v 0.1370210498571396 -0.09931329637765884 -0.2166476845741272
v -0.05885859578847885 -0.01963125355541706 -0.013576877303421497
v -0.1678331345319748 0.20974533259868622 -0.04850819334387779
v -0.04001491144299507 0.08079797774553299 0.11155930161476135
v -0.1973128616809845 0.27423417568206787 -0.07193028926849365
v -0.10066252201795578 -0.026073727756738663 -0.08881551772356033
v -0.16217082738876343 0.19349713623523712 -0.06324329972267151
v -0.06410738080739975 -0.01072610355913639 0.10696125775575638
v 0.1054033562541008 0.09470361471176147 -0.06700541079044342
v 0.10584023594856262 -0.0068314289674162865 0.09165370464324951
v 0.22363980114459991 -0.041472118347883224 -0.13282234966754913
v -0.17377793788909912 0.25253385305404663 0.03453288972377777
v -0.0794026106595993 -0.03900628536939621 -0.10055696219205856
v -0.024054918438196182 -0.3201530873775482 -0.2626399099826813
v -0.04760030657052994 -0.1624011993408203 0.05986453592777252
v 0.06085539236664772 -0.1943960040807724 0.14259447157382965
v -0.12683504819869995 0.01109409797936678 0.12354082614183426
v -0.11087314784526825 -0.003504335880279541 0.18854984641075134
v 0.20144212245941162 -0.09458910673856735 -0.05926154553890228
v 0.22029146552085876 -0.3096906542778015 -0.1564788818359375
v -0.15698257088661194 -0.08713976293802261 0.00030174836865626276
v 0.31591349840164185 -0.08300274610519409 -0.11691125482320786
v -0.22777143120765686 0.364141047000885 -0.044905684888362885
v -0.0018817363306879997 0.03801773861050606 -0.17398686707019806
v -0.16970276832580566 0.041682492941617966 0.09828565269708633
v 0.08835218101739883 -0.024864545091986656 0.12584497034549713
v 0.011020516976714134 0.15677492320537567 0.30352073907852173
v 0.14023905992507935 -0.24445240199565887 0.20330573618412018
v -0.22095629572868347 0.11826705187559128 0.14233803749084473
v -0.20094551146030426 -0.14908376336097717 -0.07827044278383255
v 0.15972259640693665 -0.057285990566015244 0.11470366269350052
v 0.07807319611310959 0.08169211447238922 -0.16336633265018463
v 0.10505907982587814 -0.4169444143772125 0.02959594689309597
v 0.18419228494167328 -0.05893755331635475 -0.1523865908384323
v -0.0274112019687891 0.09787873923778534 -0.06452256441116333
v -0.18824775516986847 0.06132029369473457 0.07094388455152512
v -0.0425676554441452 0.00343126617372036 -0.007192158605903387
v 0.06383692473173141 -0.02824711985886097 -0.12042763084173203
v -0.06785289943218231 0.06636477261781693 -0.1121729239821434
v -0.18727335333824158 0.33506909012794495 0.06573116779327393
v -0.1432730257511139 0.2055341899394989 0.14148791134357452
v -0.023886024951934814 0.03093755804002285 -0.1375032216310501
v 0.09794341772794724 0.047404248267412186 0.016039686277508736
v -0.05086065083742142 0.051616016775369644 0.1570904552936554
v -0.15603508055210114 0.06403984874486923 -0.009520945139229298
v 0.08111945539712906 -0.10888230055570602 0.15310199558734894
v -0.24041134119033813 0.20475763082504272 0.08451133221387863
v -0.020728275179862976 -0.08267724514007568 0.042644549161195755
v -0.11687297374010086 0.1342364251613617 -0.1611488312482834
v 0.06258562952280045 -0.19117721915245056 -0.14401693642139435
v 0.023512667044997215 0.03982728719711304 0.091635562479496
v 0.12212302535772324 -0.05688704177737236 0.05020062252879143
v -0.004790632054209709 -0.053321413695812225 -0.18726229667663574
v -0.1766488403081894 -0.0553891696035862 -0.05813494324684143
v -0.18969090282917023 0.26731032133102417 0.05020737648010254
v -0.10759875923395157 -0.017667025327682495 -0.11726026982069016
v -0.15695720911026 -0.008207769133150578 -0.1745736300945282
v -0.0236038900911808 -0.06698597222566605 -0.08093860000371933
v 0.03256285563111305 -0.10803914815187454 -0.06331536918878555
v 0.10927764326334 -0.08125682920217514 0.019586976617574692
v -0.179718017578125 0.14646562933921814 -0.19390344619750977
v 0.23162443935871124 -0.088747538626194 0.0820978507399559
v 0.11353511363267899 -0.032695990055799484 -0.0724131315946579
v -0.15963204205036163 0.07775607705116272 0.02517343871295452
v -0.2469848096370697 0.10135771334171295 0.12931963801383972
v -0.17972834408283234 0.026655079796910286 -0.0884895846247673
v 0.019978003576397896 0.06843966245651245 -0.19600272178649902
v -0.11703937500715256 0.07716204971075058 0.09484405070543289
v 0.1403200328350067 -0.03553411737084389 -0.07158518582582474
v -0.07067764550447464 0.09369507431983948 0.1358272135257721
v 0.03727424889802933 -0.30030542612075806 0.024792855605483055
v -0.03816960006952286 -0.22398753464221954 0.1612892597913742
v -0.1657973825931549 -0.026889851316809654 -0.09101478010416031
v -0.10820520669221878 0.1309690624475479 -0.1779307723045349
v 0.1131356805562973 0.0331038273870945 -0.10791876912117004
v 0.10252264142036438 -0.062197908759117126 0.04467829316854477
v 0.03418060764670372 -0.07866419851779938 -0.013047226704657078
v -0.26502975821495056 0.3257753551006317 -0.17038749158382416
v -0.17495273053646088 0.31254374980926514 -0.00789069477468729
v -0.0766020193696022 0.09076259285211563 0.09522422403097153
v 0.15946218371391296 -0.2268884778022766 -0.22305452823638916
v -0.019283099099993706 -0.00778947165235877 -0.0019912044517695904
v -0.14051082730293274 0.06958641111850739 -0.127667635679245
v 0.12393356114625931 -0.0007721986039541662 0.09532880783081055
v -0.10080115497112274 -0.04005809500813484 -0.12490615993738174
v -0.3102342486381531 -0.24225835502147675 -0.17756974697113037
v -0.12922076880931854 0.08634393662214279 -0.12218435853719711
v -0.12572099268436432 -0.0010241535492241383 -0.1376107782125473
v -0.062022071331739426 -0.0299332644790411 -0.18353262543678284
v -0.14711730182170868 0.010560951195657253 -0.02671911008656025
v 0.14768153429031372 -0.23637977242469788 -0.1914898306131363
v 0.055152639746665955 0.019024044275283813 -0.10033079236745834
v -0.04928546026349068 0.00981433130800724 -0.12204740196466446
v 0.12727776169776917 -0.12972795963287354 -0.11077852547168732
v -0.051813241094350815 -0.26659083366394043 -0.04075464978814125
v 0.05452362820506096 -0.13086234033107758 -0.008061454631388187
v 0.09005256742238998 -0.02122418023645878 0.04206470772624016
v -0.03219896927475929 -0.07368200272321701 0.08884619176387787
v -0.08389841765165329 0.22070260345935822 -0.11331242322921753
v 0.13754983246326447 -0.4040907025337219 -0.027343012392520905
v -0.14950181543827057 0.4061386287212372 0.03045050799846649
v -0.21321922540664673 0.06543892621994019 -0.07173315435647964
v 0.015666455030441284 0.07016681134700775 -0.1776043325662613
v -0.05418570712208748 0.25989413261413574 0.013615607284009457
v 0.0022366978228092194 0.0010049924021586776 0.001409181859344244
v 0.3317091166973114 0.03758803382515907 -0.12030377984046936
v -0.12505781650543213 0.10307633876800537 0.017210708931088448
v 0.11384081095457077 0.05984099209308624 -0.22552946209907532
v -0.061376336961984634 -0.006609546951949596 -0.08311472088098526
v 0.07565726339817047 -0.32446596026420593 -0.05445142462849617
v -0.039951179176568985 0.07190514355897903 -0.13002468645572662
v -0.12498663365840912 0.14633572101593018 0.12918621301651
v -0.20661941170692444 0.31022220849990845 0.11481277644634247
v -0.1507217139005661 0.2485928237438202 -0.06135009974241257
v -0.16966477036476135 0.11209378391504288 -0.06678541749715805
v -0.07064707577228546 0.031176196411252022 0.09482061117887497
v -0.2867860496044159 0.19240601360797882 -0.03605307638645172
v 0.17473790049552917 -0.061934977769851685 0.20435357093811035
v -0.20735329389572144 0.06965744495391846 0.11726894229650497
v 0.2116735875606537 -0.08086555451154709 0.06883176416158676
v 0.053107380867004395 -0.0001525524421595037 0.14634990692138672
v 0.10997241735458374 -0.018230514600872993 0.0009353072964586318
v -0.11541149020195007 -0.1397605687379837 -0.11544311046600342
v -0.2880818545818329 0.010954569093883038 0.14271344244480133
v -0.08420773595571518 -0.0865846648812294 0.04059692844748497
v 0.015615720301866531 -0.09171162545681 -0.12111645191907883
v 0.1808897852897644 -0.2670500576496124 -0.19564005732536316
v -0.1881849318742752 0.3422577381134033 -0.030194595456123352
v 0.11089085787534714 -0.06966836005449295 -0.08811086416244507
v 0.22304941713809967 -0.0729241594672203 0.15386231243610382
v -0.14844787120819092 -0.07574841380119324 0.14911508560180664
v -0.14169201254844666 0.08266579359769821 -0.12099865078926086
v 0.020497804507613182 0.14581814408302307 0.05505925789475441
v 0.017689885571599007 -0.04514935612678528 0.011572415009140968
v -0.18135327100753784 0.13380710780620575 -0.05266230180859566
v 0.14505845308303833 -0.05813588947057724 0.052540384232997894
v -0.24415616691112518 0.2249906361103058 0.057963382452726364
v -0.28759533166885376 0.13179707527160645 -0.06383028626441956
v -0.19522026181221008 -0.11514647305011749 -0.014972241595387459
v -0.10767485201358795 0.21768410503864288 -0.13072648644447327
v -0.08080297708511353 -0.2998267710208893 0.14764168858528137
v 0.17746858298778534 -0.04049806669354439 -0.14034777879714966
v 0.03678319603204727 -0.059205975383520126 0.025982869789004326
v -0.1918366253376007 0.22921012341976166 0.09974052757024765
v -0.1272149384021759 -0.19663536548614502 0.022046508267521858
v 0.12735514342784882 -0.07498861849308014 0.0589904747903347
v -0.19270490109920502 0.24433380365371704 -0.006918070372194052
v 0.19541394710540771 0.008705073036253452 0.07704777270555496
v 0.17324522137641907 -0.015095669776201248 0.14243169128894806
v 0.00492034712806344 -0.2330561876296997 -0.09190849959850311
v -0.06992805749177933 -0.08717148005962372 0.06068209931254387
v -0.11841756850481033 -0.10995492339134216 -0.15447808802127838
v -0.11743507534265518 0.14323313534259796 0.12117039412260056
v 0.22032809257507324 -0.1521228402853012 0.20684359967708588
v -0.10663819313049316 0.12114639580249786 -0.07124220579862595
v -0.009581897407770157 -0.2947450578212738 0.059723418205976486
v -0.07678475230932236 -0.015310133807361126 -0.05934928357601166
v -0.23659983277320862 0.003830490866675973 0.0027831329498440027
v 0.15545855462551117 -0.021660467609763145 -0.1263435035943985
v -0.08399384468793869 0.23900870978832245 -0.2146340012550354
v -0.0652291551232338 -0.16557374596595764 -0.13824346661567688
v -0.17891791462898254 0.1759815663099289 -0.10902755707502365
v -0.17781178653240204 0.27446502447128296 -0.12999022006988525
v -0.03460734710097313 -0.10357758402824402 0.19071674346923828
v 0.0020901851821690798 -0.013211531564593315 -0.054286882281303406
v 0.15130798518657684 -0.10402163118124008 0.15315842628479004
v -0.09859856963157654 0.18563541769981384 -0.008138096891343594
v -0.053751930594444275 -0.01834905333817005 -0.006237403489649296
v -0.10040823370218277 -0.06123613938689232 0.052608273923397064
v -0.20400139689445496 -0.046833645552396774 -0.196474090218544
v -0.03309684246778488 -0.30560240149497986 -0.14077773690223694
v 0.17512036859989166 -0.13606047630310059 0.004293866455554962
v -0.18407310545444489 0.24021919071674347 -0.003943503834307194
v -0.03820038214325905 0.0006573783466592431 0.1879197210073471
v 0.15114744007587433 -0.07967248558998108 0.09791497141122818
v -0.06884893774986267 0.2592184841632843 -0.001631991588510573
v -0.055922336876392365 0.038589537143707275 -0.012929807417094707
v -0.046401143074035645 -0.10565141588449478 0.10324892401695251
v -0.14799334108829498 -0.09750012308359146 0.2178557813167572
v -0.2188214510679245 0.2223355621099472 0.04788839817047119
v -0.2179412841796875 0.2809000015258789 -0.12159198522567749
v -0.14628125727176666 0.2894878387451172 -0.16452255845069885
v -0.12375109642744064 0.05008573830127716 0.11020958423614502
v -0.16382642090320587 -0.016724025830626488 -0.050349634140729904
v 0.15855760872364044 -0.07015968859195709 0.1688237488269806
v -0.15055324137210846 0.18814527988433838 -0.1294531226158142
v -0.13794657588005066 0.06497813761234283 0.21050432324409485
v 0.2675437331199646 -0.29908499121665955 0.1407286673784256
v 0.07753504067659378 -0.17650242149829865 0.17613554000854492
v 0.01785532385110855 -0.09305105358362198 -0.3408889174461365
v -0.09351682662963867 -0.001992661040276289 0.1163608729839325
v -0.10731390863656998 -0.036844849586486816 0.17365454137325287
v 0.08837012946605682 -0.05671874061226845 0.08012143522500992
v -0.0075439210049808025 -0.06875088810920715 -0.10528182983398438
v -0.17838750779628754 0.19865870475769043 0.014886672608554363
v -0.08012805134057999 0.21720148622989655 0.10364731401205063
v 0.13486133515834808 -0.01105272863060236 0.1876411736011505
v 0.186807319521904 0.0204340610653162 -0.17545044422149658
v -0.0004281869041733444 -0.2754015028476715 0.19536368548870087
v -0.14574746787548065 0.06735334545373917 0.06501270085573196
v -0.16582940518856049 0.08954288810491562 0.14571698009967804
v -0.16699449717998505 0.34105369448661804 -0.15020669996738434
v -0.06745803356170654 0.035922933369874954 -0.21142220497131348
v 0.013539280742406845 0.019855214282870293 0.15557831525802612
v -0.1733355075120926 0.02147454209625721 -0.0545525923371315
v 0.07212399691343307 -0.18304729461669922 -0.1901911050081253
v -0.029718805104494095 0.08474071323871613 -0.057518936693668365
v 0.04345975071191788 0.27054136991500854 -0.11232960969209671
v 0.0887841135263443 -0.29287225008010864 0.08615034073591232
v -0.033258479088544846 0.2694491744041443 0.14109008014202118
v 0.07642774283885956 0.10828543454408646 0.07332421839237213
v -0.13795557618141174 -0.21641209721565247 -0.03634444624185562
v -0.17436157166957855 0.10137539356946945 0.05546248331665993
v 0.06813687086105347 -0.012224799953401089 0.06492472440004349
v 0.021333005279302597 -0.14374004304409027 0.21863210201263428
v 0.008580376394093037 0.22848184406757355 0.22009283304214478
v 0.05867131054401398 -0.030662745237350464 -0.2782677114009857
v 0.009653013199567795 -0.0007752202800475061 0.18139789998531342
v -0.08845184743404388 -0.004515198990702629 -0.012376783415675163
v 0.13066427409648895 -0.08001168072223663 0.1179007738828659
v -0.21053820848464966 0.26866573095321655 0.05424125865101814
v -0.19819431006908417 0.19935080409049988 -0.16707299649715424
v -0.01272144541144371 0.03601012006402016 -0.12240976095199585
v 0.11182162165641785 -0.21023356914520264 -0.148137629032135
v -0.12691809237003326 -0.1108919233083725 0.12304702401161194
v -0.21178314089775085 0.19164331257343292 0.11329732090234756
v -0.04107513278722763 -0.07130265235900879 -0.23047740757465363
v -0.19829684495925903 0.07306759059429169 -0.07839308679103851
v -0.030253879725933075 0.11001792550086975 0.03325261175632477
v -0.04300437122583389 0.013274772092700005 0.0673137679696083
v -0.10101301223039627 -0.03500625491142273 -0.09837795794010162
v -0.08778734505176544 -0.03169016167521477 0.06668511778116226
v -0.06184015050530434 -0.027424970641732216 -0.04059075191617012
v -0.04135045409202576 0.0025056723970919847 0.04843444004654884
v -0.0530107244849205 -0.018551655113697052 -0.17433102428913116
v 0.2484213262796402 -0.3913320302963257 -0.0957188606262207
v -0.19317497313022614 0.1334187388420105 -0.010608763433992863
v -0.05419767647981644 -0.09738313406705856 -0.10818326473236084
v 0.1263880729675293 0.011969874612987041 -0.23699840903282166
v -0.07492846250534058 0.016491958871483803 0.015958040952682495
v -0.14619563519954681 0.1673760861158371 0.06045303866267204
v -0.16388371586799622 0.09052829444408417 -0.1755208820104599
v -0.09572181105613708 -0.1217091828584671 0.17415061593055725
