# Vertices: 512

v -0.15567240118980408 0.09908782690763474 0.0793435275554657
v -0.20214715600013733 0.4699167311191559 0.0010794876143336296
v -0.09186509996652603 0.1551528424024582 0.14660006761550903
v -0.027745185419917107 -0.46657490730285645 -0.11223975569009781
v -0.10376211255788803 0.10499092191457748 -0.09200886636972427
v -0.06159552186727524 -0.3066816031932831 0.041154645383358
v 0.18387581408023834 -0.08432073146104813 0.213267982006073
v -0.04492032900452614 0.04303346946835518 0.10879368335008621
v 0.09007535874843597 -0.17581532895565033 0.06590826064348221
v -0.1587289720773697 0.3018684685230255 -0.36715447902679443
v 0.2119280844926834 -0.16958460211753845 -0.19583146274089813
v -0.016066934913396835 0.020016221329569817 0.1561054289340973
v -0.04399929568171501 -0.18493503332138062 0.1656310111284256
v -0.01761883869767189 -0.08714167028665543 0.07191239297389984
v -0.1594143956899643 0.2210025191307068 0.030759314075112343
v 0.09053509682416916 -0.09816478937864304 0.008027248084545135
v -0.18133851885795593 0.25633466243743896 -0.03510884940624237
v -0.1798063963651657 0.03256037458777428 -0.007786077447235584
v -0.032530419528484344 -0.042347103357315063 0.060246363282203674
v -0.18761169910430908 0.09788250923156738 -0.16126766800880432
v 0.03560098633170128 0.06422695517539978 -0.04341448098421097
v -0.007114076521247625 -0.03169192746281624 0.076461061835289
v -0.08599582314491272 -0.15558800101280212 -0.09759830683469772
v 0.0422428734600544 0.0092667480930686 -0.13029703497886658
v -0.05605381727218628 -0.09764168411493301 -0.10635222494602203
v -0.22289174795150757 0.3432277739048004 0.09101103991270065
v -0.2464204877614975 0.29494133591651917 0.2334011346101761
v 0.009165252558887005 -0.20205733180046082 0.11717893183231354
v -0.16789327561855316 -0.05393098667263985 0.05628805607557297
v -0.07302821427583694 0.18173812329769135 0.015098008327186108
v -0.18706195056438446 0.3291182219982147 0.15262192487716675
v -0.20202592015266418 -0.273863822221756 -0.07626695185899734
v -0.3283120095729828 0.31699347496032715 -0.16663214564323425
v 0.012979893013834953 0.10113775730133057 -0.05594009533524513
v 0.12181024253368378 0.009007412008941174 -0.04235684499144554
v 0.23684003949165344 -0.26416289806365967 0.09378878027200699
v -0.03106055036187172 -0.30250388383865356 0.04503614455461502
v 0.18900732696056366 0.13472393155097961 -0.13100729882717133
v 0.03560517728328705 -0.3540707230567932 0.1404806226491928
v -0.11978650838136673 0.014243041165173054 -0.06765371561050415
v 0.1898621916770935 -0.05646299570798874 -0.17965827882289886
v -0.0805443823337555 0.03084489516913891 -0.13509784638881683
v -0.12427438050508499 0.016822319477796555 0.07066033780574799
v -0.13281457126140594 0.2522030174732208 -0.0598829984664917
v 0.0963711068034172 -0.09597934782505035 0.11657504737377167
v 0.005496019031852484 0.007513781078159809 -0.00012124898785259575
v -0.16502737998962402 0.14347252249717712 0.08382518589496613
v -0.3173585832118988 0.12919777631759644 -0.16372086107730865
v 0.0812433511018753 0.23042431473731995 -0.06735695898532867
v -0.05238262563943863 0.0577227883040905 -0.10497569292783737
v 0.11247589439153671 -0.10818351805210114 -0.020684152841567993
v 0.019965872168540955 -0.09988163411617279 0.14642758667469025
v -0.13025619089603424 0.01865476183593273 -0.03148123621940613
v 0.047120802104473114 -0.28277191519737244 -0.09066746383905411
v -0.03981560468673706 -0.11978638917207718 -0.13995380699634552
v -0.1786712259054184 0.2292751520872116 -0.1263449341058731
v -0.008597467094659805 -0.024698933586478233 0.05721316486597061
v -0.14719104766845703 0.12419004738330841 -0.1072797030210495
v -0.06648897379636765 -0.28353381156921387 -0.19204068183898926
v -0.09490974992513657 0.0652979165315628 0.050847671926021576
v 0.00925586186349392 -0.004894264042377472 0.11387395113706589
v -0.04306583106517792 -0.010690723545849323 -0.13983376324176788
v -0.0948597863316536 0.0418575145304203 -0.1877863109111786
v 0.11805107444524765 -0.021571187302470207 0.029433168470859528
v -0.032280463725328445 0.0634639784693718 0.0523921474814415
v -0.160827174782753 -0.03894108161330223 0.10949183255434036
v -0.12666495144367218 0.27753549814224243 0.061417095363140106
v -0.2947213649749756 0.25397905707359314 -0.025502171367406845
v -0.06533116847276688 -0.06466066837310791 -0.004199143033474684
v -0.09586465358734131 -0.03969081863760948 -0.10862912982702255
v 0.10610255599021912 0.11884235590696335 0.1266806721687317
v -0.15757614374160767 0.2921960651874542 0.16083930432796478
v -0.12528547644615173 -0.03974613547325134 -0.05047055333852768
v -0.03868842497467995 0.1183098554611206 -0.1732945740222931
v -0.1797073483467102 0.10428094118833542 0.022830378264188766
v 0.053267545998096466 -0.1923583596944809 -0.06007039546966553
v -0.11888401210308075 0.00127075903583318 0.1373942643404007
v -0.04316989332437515 -0.2849838435649872 0.15939614176750183
v -0.19179774820804596 0.1248718723654747 0.2765863537788391
v -0.07734952867031097 0.11972717940807343 -0.16059842705726624
v -0.20236273109912872 0.13175582885742188 0.16417956352233887
v -0.16366523504257202 0.3392287492752075 -0.11179325729608536
v 0.019705787301063538 -0.050695858895778656 -0.14670000970363617
v 0.18778350949287415 0.04612630978226662 0.041527360677719116
v 0.040426190942525864 0.025730522349476814 0.02085462212562561
v 0.09809861332178116 0.029532216489315033 -0.02082332782447338
v 0.012235477566719055 -0.0004464226367417723 0.1537892073392868
v -0.09911303222179413 0.016279565170407295 -0.01742701418697834
v 0.16591553390026093 -0.1262035369873047 0.03575022891163826
v -0.10610360652208328 0.06298721581697464 0.029949234798550606
v -0.12921178340911865 -0.008579990826547146 -0.12476152181625366
v -0.06631752103567123 -0.01731843128800392 0.0742267519235611
v -0.1608496606349945 0.20539265871047974 -0.015698283910751343
v -0.20579436421394348 -0.05623887479305267 -0.02029024437069893
v 0.0917755514383316 0.05704239755868912 0.029612932354211807
v 0.305602490901947 -0.15158750116825104 -0.1570061892271042
v 0.02172260545194149 0.09681595116853714 -0.18891224265098572
v 0.11911603063344955 -0.0748925432562828 -0.08802115172147751
v -0.06133745610713959 0.026252202689647675 0.21352161467075348
v -0.12123885005712509 0.03976594656705856 0.023726576939225197
v -0.11750755459070206 -0.06131686270236969 0.33054405450820923
v -0.0898510068655014 -0.11241529881954193 0.02944163605570793
v -0.15778407454490662 0.11979905515909195 0.0905500277876854
v -0.033785440027713776 -0.003121591405943036 0.12449916452169418
v 0.18699777126312256 -0.11538628488779068 0.11639922112226486
v 0.15108421444892883 -0.09326726198196411 -0.0967470034956932
v -0.026938213035464287 0.21173086762428284 -0.23178665339946747
v -0.1772032231092453 0.14654481410980225 -0.11106383055448532
v 0.09476795047521591 0.007890013046562672 0.11216380447149277
v -0.26160550117492676 0.1880456805229187 0.057202134281396866
v 0.006252470426261425 -0.07410620898008347 -0.04790656268596649
v 0.2626812756061554 -0.11396162956953049 0.034441232681274414
v 0.022803569212555885 -0.05165813863277435 -0.04794761538505554
v -0.14140023291110992 0.13430814445018768 -0.04795021563768387
v -0.03628778085112572 -0.03696006163954735 0.014644334092736244
v -0.15249919891357422 -0.15559260547161102 0.1312827616930008
v -0.03571200743317604 -0.06740576028823853 0.11314846575260162
v 0.020307201892137527 -0.05300586670637131 -0.014136693440377712
v -0.43362537026405334 0.297887921333313 -0.08121541887521744
v 0.08132553100585938 0.038594696670770645 -0.13158941268920898
v 0.11038657277822495 -0.005208752583712339 -0.017258793115615845
v -0.10507465898990631 0.21286331117153168 -0.04747210815548897
v -0.09466620534658432 -0.046762678772211075 -0.15812964737415314
v 0.21758653223514557 -0.052954018115997314 0.00938791036605835
v -0.1301894187927246 0.40133318305015564 0.06310588121414185
v -0.05354992300271988 0.0015203309012576938 -0.04563983157277107
v -0.1794036328792572 -0.09854390472173691 0.013118310831487179
v -0.10625360161066055 0.1237158477306366 0.0005596430273726583
v -0.1209213137626648 0.14876045286655426 0.006128288339823484
v -0.05306893587112427 0.2311326265335083 -0.17635491490364075
v 0.08322593569755554 -0.22834372520446777 0.15281261503696442
v -0.04275665432214737 0.0030415267683565617 -0.0707218199968338
v -0.1661413013935089 0.011265842244029045 -0.14010389149188995
v -0.02106667496263981 0.13903333246707916 0.17813876271247864
v -0.123798668384552 -0.12059173732995987 -0.06865882873535156
v 0.09650980681180954 -0.08011864870786667 -0.2177036851644516
v -0.0597955696284771 0.06943093240261078 -0.09514100104570389
v -0.23370695114135742 0.3709288239479065 0.04210957512259483
v -0.03721621632575989 -0.006488519255071878 -0.06714476644992828
v 0.0331382155418396 -0.059804487973451614 0.20115430653095245
v -0.08966704457998276 0.10588996857404709 -0.08638659864664078
v 0.2699964940547943 -0.21090318262577057 -0.2937003970146179
v 0.11615393310785294 -0.2070397585630417 -0.05748024582862854
v -0.0544314943253994 0.10170905292034149 -0.16125313937664032
v -0.056160639971494675 -0.10378839820623398 0.08687317371368408
v -0.07871262729167938 0.014159436337649822 -0.02044565975666046
v -0.04662642255425453 -0.13027627766132355 -0.07313394546508789
v 0.024724073708057404 -0.08662789314985275 -0.1020740419626236
v -0.09126554429531097 0.22372281551361084 -0.09536366909742355
v -0.06905654072761536 -0.03924691677093506 0.09676235914230347
v -0.07542263716459274 0.09963801503181458 -0.0014699395978823304
v 0.12248345464468002 -0.06949713081121445 0.35926610231399536
v -0.09845801442861557 -0.15976005792617798 0.03125980496406555
v -0.1342662125825882 0.08766928315162659 -0.0673600509762764
v -0.14649133384227753 -0.0009490979718975723 -0.0329388827085495
v -0.16859875619411469 0.025101188570261 -0.10604921728372574
v -0.208905428647995 0.3590761125087738 -0.030062150210142136
v -0.12413852661848068 0.06804130971431732 0.047797635197639465
v 0.1369592249393463 -0.013826092705130577 -0.03563544526696205
v 0.17208975553512573 -0.2567910850048065 0.05690469592809677
v 0.013841560110449791 -0.22596649825572968 0.17071647942066193
v -0.11850401014089584 0.08313052356243134 0.017615599557757378
v 0.11160579323768616 -0.025630664080381393 -0.045513320714235306
v -0.013588374480605125 0.16424337029457092 0.1271926611661911
v 0.046375587582588196 -0.09391678869724274 0.05907673016190529
v -0.09327652305364609 -0.011671139858663082 -0.014685604721307755
v -0.18122832477092743 0.23311859369277954 0.1074620857834816
v -0.11358039826154709 0.06549466401338577 -0.0172127652913332
v -0.037470635026693344 -0.0069795167073607445 -0.13242018222808838
v 0.024517249315977097 -0.017269067466259003 0.002309932140633464
v -0.21914170682430267 0.3814696669578552 -0.04349180683493614
v -0.03682275861501694 0.2990090847015381 0.1978677362203598
v 0.13051053881645203 -0.4095759391784668 0.09816961735486984
v -0.02202424220740795 0.15723852813243866 -0.09439732134342194
v 0.16583511233329773 -0.31927046179771423 -0.17549151182174683
v -0.16663721203804016 0.27319830656051636 -0.10067308694124222
v -0.019081072881817818 0.12776881456375122 -0.21945378184318542
v -0.08222653716802597 0.24238866567611694 0.07928013801574707
v -0.13840194046497345 0.22098198533058167 0.1403699517250061
v -0.1543942391872406 0.22407768666744232 0.07634072005748749
v 0.06199248135089874 0.016596892848610878 0.04180091246962547
v -0.07218808680772781 0.18373627960681915 0.06846161931753159
v 0.10527921468019485 -0.004435005132108927 -0.13957694172859192
v -0.19673621654510498 0.03111385554075241 -0.0013460891786962748
v -0.19626402854919434 -0.07223515957593918 0.07286783307790756
v -0.19323544204235077 -0.017528444528579712 0.12464988231658936
v 0.06527426838874817 -0.05532614886760712 0.025261951610445976
v 0.010824212804436684 -0.18794144690036774 -0.020556876435875893
v -0.1405283361673355 0.31962862610816956 -0.04585444554686546
v -0.23846179246902466 0.20415560901165009 -0.07624557614326477
v 0.1269081085920334 -0.10568977147340775 0.15080051124095917
v -0.13656938076019287 0.18530406057834625 0.06817901134490967
v -0.10807440429925919 0.057094745337963104 0.08423425257205963
v -0.14101748168468475 0.24603423476219177 -0.16361847519874573
v -0.10044721513986588 0.0005001433892175555 0.06995733082294464
v 0.0905962660908699 -0.10822109878063202 0.12470335513353348
v -0.09886032342910767 0.014254500158131123 -0.14860591292381287
v 0.050428833812475204 -0.11434415727853775 0.1991814523935318
v -0.18559670448303223 0.22850742936134338 -0.09280338883399963
v 0.07128846645355225 -0.09582466632127762 0.11050084233283997
v 0.15168039500713348 -0.12166774272918701 0.04417392984032631
v -0.16487930715084076 -0.22222986817359924 0.0023081377148628235
v -0.027771860361099243 0.12582328915596008 0.20550549030303955
v -0.11050903797149658 0.10906067490577698 -0.09553061425685883
v -0.16276323795318604 0.0041365912184119225 -0.051246996968984604
v -0.12504960596561432 -0.03612622991204262 0.06658554077148438
v -0.156887486577034 0.18628476560115814 0.035573724657297134
v 0.3202149271965027 -0.062371402978897095 -0.08477246016263962
v 0.04485342279076576 -0.06446624547243118 -0.09145253896713257
v -0.11524146050214767 -0.148697629570961 0.1897982656955719
v -0.14971479773521423 0.13126400113105774 0.10339142382144928
v 0.052610691636800766 -0.2892758846282959 0.09073787927627563
v -0.14644546806812286 -0.15935954451560974 -0.24777664244174957
v 0.18252746760845184 -0.07415943592786789 0.048690907657146454
v -0.18084768950939178 0.241323783993721 0.1387498825788498
v -0.0017566654132679105 0.01658240519464016 0.22068923711776733
v -0.10935508459806442 -0.017425401136279106 0.04146270081400871
v 0.16606563329696655 0.05528448149561882 0.12812142074108124
v 0.03223544359207153 -0.03672991320490837 -0.0320986844599247
v 0.2127229869365692 -0.30374374985694885 -0.2210915982723236
v -0.20622970163822174 -0.13009999692440033 0.10181346535682678
v 0.14909318089485168 -0.047374874353408813 0.00948978029191494
v 0.011312561109662056 0.04920768365263939 -0.07871820032596588
v -0.1800922453403473 0.05214653164148331 -0.03328760713338852
v 0.03653654828667641 0.007530135102570057 -0.021246952936053276
v -0.1543043553829193 -0.01882260851562023 0.16975833475589752
v 0.16319984197616577 -0.26300302147865295 0.0015918508870527148
v -0.2087295800447464 0.018018316477537155 0.12275656312704086
v -0.11958958208560944 -0.18152830004692078 -0.03270052373409271
v -0.005545051768422127 0.14796049892902374 0.12574857473373413
v 0.05822030454874039 -0.17440620064735413 0.1883624792098999
v 0.14376144111156464 -0.11850495636463165 0.04495619609951973
v -0.033933233469724655 0.005149387288838625 0.28101256489753723
v -0.08696074038743973 0.3908281922340393 0.08858536928892136
v -0.13064464926719666 -0.2310936599969864 0.07510760426521301
v 0.16045208275318146 -0.17061620950698853 0.18257614970207214
v -0.1586649864912033 0.3282952308654785 0.09021559357643127
v -0.14371082186698914 0.18767927587032318 -0.002274709055200219
v -0.14326785504817963 0.18562258780002594 0.16130076348781586
v -0.05704750493168831 -0.2109566330909729 0.03511003777384758
v -0.08381509780883789 -0.06210903450846672 -0.07816492021083832
v -0.11399227380752563 -0.20951244235038757 -0.15165433287620544
v -0.12523303925991058 0.0652998685836792 -0.012699468992650509
v -0.09883398562669754 0.2837976813316345 -0.04977712407708168
v -0.11522044986486435 0.2350163459777832 -0.051998429000377655
v -0.1324877291917801 0.07530714571475983 -0.05690862238407135
v 0.16559059917926788 0.05969638004899025 0.039769530296325684
v -0.1496187150478363 0.032081227749586105 -0.050591010600328445
v -0.0924018993973732 -0.30542823672294617 0.11038807034492493
v -0.12053260207176208 -0.1008935272693634 0.06440611928701401
v 0.04314916953444481 -0.08864767849445343 -0.17256832122802734
v -0.17726682126522064 0.16971279680728912 -0.018124887719750404
v -0.29821741580963135 -0.11126645654439926 -0.06998199224472046
v -0.06288961321115494 -0.1514309197664261 0.1539260447025299
v 0.14913862943649292 -0.12673699855804443 0.1011388748884201
v 0.07810863107442856 -0.1167522743344307 0.046420369297266006
v 0.010874957777559757 -0.09195977449417114 0.04355217516422272
v -0.035964593291282654 -0.0174882672727108 -0.17383688688278198
v -0.09587739408016205 -0.06341464072465897 0.09725282341241837
v 0.21625125408172607 -0.13208836317062378 -0.11738855391740799
v -0.0024096211418509483 -0.23366113007068634 -0.019512401893734932
v -0.03612517938017845 -0.05377383530139923 0.12039589881896973
v -0.04605713114142418 -0.07905670255422592 -0.059643205255270004
v 0.08030390739440918 -0.07027865946292877 -0.39944949746131897
v 0.11237828433513641 -0.2649151682853699 0.050611868500709534
v -0.17868110537528992 -0.13731612265110016 -0.17255832254886627
v -0.09226980060338974 0.39091071486473083 0.15872903168201447
v 0.052919380366802216 0.008463649079203606 -0.06042264774441719
v 0.10180509090423584 -0.03134087100625038 -0.20155321061611176
v -0.012946710921823978 -0.052737388759851456 -0.029581762850284576
v -0.19949746131896973 0.07312317192554474 -0.11001323908567429
v 0.020129956305027008 0.2358981817960739 0.1362120509147644
v -0.2411777228116989 0.28208521008491516 0.09632643312215805
v -0.09814516454935074 -0.03622487932443619 -0.24771668016910553
v 0.007542289327830076 -0.09348832815885544 -0.14894504845142365
v -0.2042093276977539 0.191942036151886 -0.135919451713562
v -0.04045869782567024 0.05147383734583855 -0.0499395877122879
v -0.19568324089050293 0.13868695497512817 0.15101909637451172
v 0.12172910571098328 -0.39652886986732483 -0.2554948627948761
v -0.007070017978549004 0.1895509660243988 -0.1873018592596054
v -0.19154268503189087 0.27099576592445374 -0.09229449182748795
v -0.17751114070415497 0.2065965086221695 -0.025864137336611748
v 0.05010227859020233 0.018906567245721817 -0.0006603450165130198
v -0.0018080571899190545 0.13246068358421326 -0.13625875115394592
v 0.12512408196926117 0.030338767915964127 -0.08326795697212219
v 0.01461991760879755 -0.04745444655418396 -0.0779423788189888
v -0.14644746482372284 0.32799145579338074 0.04181034490466118
v -0.17712566256523132 0.4339129328727722 -0.08501540124416351
v -0.05158490315079689 0.03193863853812218 -0.09194672107696533
v -0.018645109608769417 0.07377282530069351 -0.11400756239891052
v -0.01558077335357666 0.030085299164056778 -0.11226610839366913
v 0.04414595663547516 0.1013968288898468 0.12232497334480286
v 0.23361901938915253 0.015642007812857628 0.14621633291244507
v -0.0451851524412632 -0.05562853440642357 0.2242974042892456
v -0.1892710030078888 0.25859296321868896 -0.029375910758972168
v -0.18068312108516693 -0.35336676239967346 0.15655328333377838
v -0.22147145867347717 0.2390058934688568 0.0651213675737381
v -0.031032118946313858 -0.0454118438065052 0.06532096862792969
v -0.10492917150259018 0.18952225148677826 0.025558151304721832
v 0.15950141847133636 -0.0004362312611192465 -0.0653931200504303
v 0.10152129083871841 0.07618484646081924 -0.0691981166601181
v -0.1279478818178177 -0.02927006408572197 0.2638961970806122
v -0.0854596197605133 -0.037605591118335724 -0.1903504729270935
v -0.1323114037513733 0.14642737805843353 0.05161222070455551
v 0.01911792904138565 0.17549313604831696 -0.10434596985578537
v -0.2218495011329651 0.2459709346294403 -0.14989380538463593
v 0.08334384858608246 -0.04008662328124046 0.02812908962368965
v 0.15303002297878265 -0.028328590095043182 -0.11668021976947784
v -0.03139093145728111 -0.17198318243026733 -0.22549870610237122
v 0.01725444197654724 -0.0527074821293354 0.003970892634242773
v -0.019903037697076797 0.07307133823633194 -0.06189443916082382
v -0.2849031984806061 0.11011984199285507 -0.09132242947816849
v -0.03809627890586853 -0.10569716989994049 0.13873033225536346
v 0.20987406373023987 -0.15272732079029083 -0.15195819735527039
v -0.16815219819545746 0.09448148310184479 -0.23325392603874207
v -0.06364050507545471 0.08857060223817825 -0.017249170690774918
v -0.174052432179451 0.11164329200983047 0.100452721118927
v -0.15707343816757202 0.14376378059387207 0.0786113366484642
v -0.19061815738677979 0.3062402009963989 0.1580924391746521
v -0.0025347135961055756 -0.13915112614631653 -0.17054982483386993
v -0.1159171313047409 0.18823102116584778 -0.022119887173175812
v -0.10361971706151962 -0.22469794750213623 -0.12137185782194138
v -0.16999439895153046 0.4095735251903534 -0.02129935845732689
v 0.09109063446521759 0.030807357281446457 -0.05886111408472061
v -0.05015208199620247 -0.12551812827587128 0.15940454602241516
v -0.018595632165670395 -0.27957311272621155 0.04802415147423744
v -0.11528834700584412 0.08370373398065567 -0.10240918397903442
v -0.1715252548456192 0.23483939468860626 0.005467562936246395
v -0.13448511064052582 -0.08750041574239731 0.10452843457460403
v 0.015080181881785393 -0.06526153534650803 -0.13714364171028137
v -0.2754536271095276 0.2670108675956726 -0.07200435549020767
v 0.05396917462348938 -0.02954772859811783 -0.11852042376995087
v -0.2938385009765625 -0.04090386629104614 0.06889654695987701
v -0.1758730560541153 0.10195876657962799 -0.053713779896497726
v 0.030235648155212402 0.14907026290893555 0.05632791295647621
v -0.0541028194129467 -0.01119757629930973 -0.16727617383003235
v -0.158883735537529 -0.10908979922533035 0.3167734742164612
v -0.05847163498401642 -0.061053384095430374 0.08378387987613678
v -0.12524226307868958 0.010942039079964161 -0.13083937764167786
v -0.0647512897849083 -0.08939330279827118 0.1577950417995453
v -0.1499021053314209 -0.026477064937353134 -0.06655534356832504
v -0.10495380312204361 0.33448225259780884 0.09009238332509995
v -0.21875736117362976 -0.04865652695298195 -0.1610284447669983
v -0.007863999344408512 0.2095305323600769 0.0035400118213146925
v -0.019253874197602272 0.0018137333681806922 0.06396248191595078
v -0.32289811968803406 0.09422911703586578 0.04372647777199745
v 0.01475991029292345 -0.1054350957274437 0.00046158218174241483
v -0.0029313997365534306 -0.10168616473674774 0.08695624023675919
v -0.10166582465171814 0.16375239193439484 -0.14557158946990967
v 0.04473245516419411 -0.17888143658638 -0.11611105501651764
v 0.36867111921310425 -0.2720113694667816 0.20180736482143402
v -0.1386835277080536 0.01731458678841591 0.09819474071264267
v -0.04292348772287369 -0.056068386882543564 0.05958032235503197
v -0.07119188457727432 -0.05661575496196747 -0.08380332589149475
v -0.07143744826316833 -0.13049733638763428 0.06160453334450722
v -0.0024522696621716022 0.039142727851867676 0.12318041175603867
v 0.19363455474376678 -0.2755676209926605 -0.1407085359096527
v 0.04421482980251312 -0.017185382544994354 0.09650924801826477
v -0.1697814166545868 -0.20627069473266602 -0.07479413598775864
v -0.08274928480386734 0.03758898004889488 -0.10759903490543365
v 0.09521275758743286 0.0062459842301905155 0.011603988707065582
v 0.059197910130023956 -0.10006590187549591 0.12536916136741638
v -0.14335371553897858 -0.027991674840450287 -0.11086687445640564
v 0.08535926043987274 -0.12575829029083252 0.022356705740094185
v 0.10441552847623825 -0.2227713018655777 0.08326218277215958
v -0.15958333015441895 0.4090518355369568 -0.01618965156376362
v 0.00890630017966032 -0.18641534447669983 -0.07828788459300995
v 0.010414017364382744 0.2141854465007782 0.21837107837200165
v 0.13815584778785706 0.017506202682852745 0.004127259366214275
v -0.16590039432048798 0.24659962952136993 -0.07957623153924942
v -0.350496381521225 -0.32377198338508606 -0.002508498728275299
v -0.0018747346475720406 -0.05009587109088898 -0.060791756957769394
v 0.0059885503724217415 0.13766254484653473 -0.3145573139190674
v -0.05399911105632782 -0.12371894717216492 -0.14109140634536743
v 0.05980200320482254 0.06453052908182144 -0.1369328647851944
v -0.08506151288747787 -0.1081562489271164 -0.00644767377525568
v 0.19608214497566223 -0.13859592378139496 0.2192591279745102
v -0.13057363033294678 0.18210740387439728 0.07203368842601776
v 0.06786209344863892 0.003069199388846755 -0.08672366291284561
v -0.14259031414985657 0.06666295230388641 0.15555253624916077
v -0.18354937434196472 -0.3068186342716217 0.08430091291666031
v -0.19390222430229187 0.19134308397769928 -0.06952806562185287
v -0.11405102908611298 0.0527971051633358 -0.06396664679050446
v 0.033542830497026443 0.009013978764414787 -0.18482455611228943
v -0.2563459873199463 0.30947861075401306 -0.046745914965867996
v 0.14230866730213165 0.156288281083107 0.257160484790802
v -0.0538458488881588 -0.011764696799218655 -0.044406142085790634
v 0.15070311725139618 0.06081681326031685 -0.146229088306427
v 0.07834268361330032 -0.017758406698703766 -0.0454694963991642
v -0.05403127893805504 0.17067672312259674 0.07278941571712494
v -0.0008811453590169549 -0.054140109568834305 0.16631664335727692
v -0.12921465933322906 0.26956555247306824 0.052467212080955505
v 0.12782450020313263 -0.0388413704931736 -0.05595853552222252
v -0.1603107750415802 0.08664638549089432 0.10301508754491806
v 0.15478025376796722 -0.09789605438709259 -0.1406422108411789
v -0.2863829731941223 0.48097169399261475 -0.08119497448205948
v -0.17424316704273224 -0.03323075920343399 -0.062226321548223495
v -0.06896708905696869 -0.24275270104408264 0.12226669490337372
v -0.10434748232364655 0.39212891459465027 -0.024691345170140266
v -0.19340775907039642 0.19380682706832886 -0.049378734081983566
v -0.1478222757577896 0.05109893158078194 -0.1226942241191864
v 0.0380919948220253 -0.15420520305633545 0.07722148299217224
v -0.09281355142593384 0.23184055089950562 -0.09019207954406738
v -0.25446513295173645 0.16871578991413116 -0.14219963550567627
v -0.09628546983003616 0.08873344957828522 0.0884900912642479
v -0.05947224050760269 0.07922177761793137 -0.14554524421691895
v -0.17439787089824677 0.05170716345310211 0.1570112705230713
v 0.03643996641039848 0.04092779383063316 -0.12146550416946411
v 0.019042836502194405 -0.1501551866531372 -0.021676763892173767
v -0.17270444333553314 -0.009735089726746082 0.017911002039909363
v 0.12775471806526184 0.08644238859415054 -0.15086407959461212
v 0.14438877999782562 -0.18266473710536957 -0.06667722761631012
v 0.16594098508358002 -0.35611385107040405 -0.002419206080958247
v -0.14320145547389984 0.1928507387638092 -0.09326471388339996
v -0.20854467153549194 0.40159815549850464 0.09641305357217789
v 0.17999960482120514 -0.2257557064294815 -0.1345134973526001
v -0.18821321427822113 -0.07790062576532364 0.046041298657655716
v 0.14494600892066956 -0.02318904548883438 0.09725981950759888
v 0.02454342320561409 0.18295243382453918 0.03331797569990158
v -0.29076313972473145 0.04385518655180931 -0.18717198073863983
v -0.1671670377254486 0.3404124081134796 0.16331259906291962
v 0.21291185915470123 -0.10143762826919556 0.018746186047792435
v 0.17630232870578766 -0.029853155836462975 0.29610735177993774
v 0.036198750138282776 -0.07984688133001328 0.02546682022511959
v 0.08694186806678772 -0.010558279231190681 -0.15456777811050415
v 0.10216470807790756 -0.07612006366252899 0.007359419018030167
v 0.1431940793991089 0.010399186983704567 0.16896465420722961
v -0.19808055460453033 0.14690463244915009 -0.11976838856935501
v -0.17712827026844025 0.23171690106391907 0.09332753717899323
v -0.1355326622724533 0.07364390790462494 -0.1975885033607483
v -0.12144176661968231 -0.08845594525337219 0.09852025657892227
v -0.1462026983499527 0.17018626630306244 -0.19598931074142456
v -0.09767105430364609 -0.23944449424743652 -0.2530093193054199
v 0.027479104697704315 -0.18547673523426056 -0.14264003932476044
v 0.0842280387878418 0.07182919979095459 -0.1296147108078003
v -0.0048274570144712925 -0.004031662829220295 0.017455989494919777
v 0.10842524468898773 -0.26762455701828003 -0.11929073929786682
v -0.04470357298851013 -0.00946416798979044 0.23391558229923248
v 0.11190097033977509 0.09264293313026428 -0.07030083984136581
v 0.01698843576014042 -0.10173201560974121 0.006247059442102909
v -0.14924117922782898 0.14966590702533722 -0.03777022287249565
v -0.029688585549592972 0.003125288523733616 0.19341112673282623
v 0.049200013279914856 0.006199080962687731 -0.004532495513558388
v -0.07785942405462265 -0.0009564705542288721 0.07248786836862564
v 0.1552356481552124 -0.18196624517440796 -0.09953013807535172
v -0.017305023968219757 -0.12720081210136414 -0.10046809166669846
v 0.2274637520313263 -0.010095170699059963 -0.009262807667255402
v 0.16127991676330566 -0.28378939628601074 -0.09181206673383713
v -0.18449024856090546 -0.00864802859723568 0.05752987042069435
v 0.06369765102863312 -0.30079397559165955 0.010929207317531109
v -0.1856921911239624 -0.00288760126568377 -0.15356241166591644
v -0.004971446469426155 -0.2275150716304779 -0.14862419664859772
v -0.14918701350688934 0.3158770501613617 0.0638950988650322
v 0.09101957827806473 -0.00379328359849751 -0.24268396198749542
v -0.32230260968208313 0.15189439058303833 0.13133960962295532
v 0.1114412471652031 -0.13471785187721252 0.2528277039527893
v -0.027684897184371948 0.03192855045199394 -0.1567663997411728
v -0.22953660786151886 0.25643545389175415 0.1804177463054657
v 0.13858789205551147 0.004819859750568867 -0.06377432495355606
v -0.20290309190750122 0.2182289958000183 -0.0817611813545227
v -0.0737193375825882 -0.0012548407539725304 0.1579332798719406
v -0.05038093402981758 -0.1822947859764099 0.05542430654168129
v -0.03257942572236061 0.03497111052274704 0.06711195409297943
v -0.12795746326446533 -0.23147480189800262 -0.0754651203751564
v 0.10607192665338516 0.006416726391762495 0.12799909710884094
v -0.09148967266082764 0.07776835560798645 0.12707073986530304
v -0.04492655023932457 -0.1984512060880661 0.044013891369104385
v 0.04848376661539078 -0.07906562834978104 0.1508319228887558
v 0.24661318957805634 -0.39071208238601685 -0.28003108501434326
v 0.023106850683689117 0.026337556540966034 0.18417418003082275
v -0.1017078384757042 -0.06480614840984344 0.005789156537503004
v -0.08995066583156586 0.025934973731637 -0.09952129423618317
v -0.12374520301818848 0.10351520031690598 -0.10317714512348175
v -0.44305601716041565 0.038437843322753906 -0.24610893428325653
v -0.060867343097925186 0.1046411320567131 -0.04042314365506172
v 0.10902529954910278 0.07061059027910233 -0.007205778267234564
v -0.11834686994552612 0.13706272840499878 -0.17354851961135864
v -0.04808938130736351 0.025503776967525482 0.10543430596590042
v -0.19491958618164062 0.2535662353038788 -0.15231844782829285
v -0.19247877597808838 0.31660008430480957 -0.05992654338479042
v -0.1588536649942398 -0.1613103151321411 -0.1881158947944641
v 0.021226225420832634 -0.049850285053253174 -0.18093518912792206
v 0.06352831423282623 -0.08839567750692368 0.19700036942958832
v -0.13644962012767792 -0.023729925975203514 0.11768601834774017
v 0.023723721504211426 -0.10493089258670807 -0.013333630748093128
v 0.05026170238852501 0.014428563416004181 0.18882067501544952
v -0.08160416781902313 0.028642751276493073 -0.18542149662971497
v -0.15968608856201172 0.009049572981894016 -0.17934979498386383
v -0.21776700019836426 0.0876375138759613 0.1058066114783287
v 0.09351355582475662 0.05447313189506531 -0.021321555599570274
v -0.004553780425339937 -0.03877504542469978 0.004284234717488289
v 0.012295587919652462 0.0814131423830986 0.14399991929531097
v 0.03704191371798515 0.044670842587947845 -0.017860619351267815
v -0.16582417488098145 0.10641162097454071 0.13937713205814362
v -0.09535343199968338 0.21282969415187836 0.10901669412851334
v 0.022600365802645683 -0.003830960486084223 -0.1260901689529419
v 0.03650958463549614 -0.06202312186360359 -0.12643520534038544
v -0.08028234541416168 0.01206790842115879 -0.04554523900151253
v -0.11970297247171402 -0.03136702626943588 -0.12682707607746124
v 0.007033065427094698 0.048154182732105255 0.0425853431224823
v -0.18808910250663757 -0.03037942387163639 -0.19624726474285126
v 0.06648971885442734 0.07671047747135162 -0.11526434123516083
v -0.3203147351741791 0.04915202036499977 0.06875748187303543
v -0.07529540359973907 -0.06707516312599182 -0.20604798197746277
v 0.15010938048362732 -0.15950529277324677 -0.06981616467237473
v -0.12907779216766357 0.29635754227638245 -0.07408507168292999
v -0.01485059130936861 0.0003800083650276065 0.15234997868537903
v 0.059762388467788696 -0.05842754244804382 -0.03949064016342163
v -0.033317357301712036 0.29683762788772583 -0.1009397879242897
v -0.30615368485450745 0.028805410489439964 -0.21329684555530548
v -0.016167744994163513 -0.16679444909095764 -0.0982050895690918
v -0.15809506177902222 0.2284008264541626 0.1348961591720581
