# Vertices: 512

v -0.1769803762435913 0.2133801132440567 0.059972282499074936
v -0.17975974082946777 0.00672456668689847 -0.1300622522830963
v -0.17456437647342682 0.06250972300767899 0.02531726285815239
v -0.05947152152657509 -0.30565133690834045 0.04546875134110451
v 0.16697704792022705 0.02790065109729767 0.071930892765522
v 0.29678985476493835 -0.13317595422267914 0.19471022486686707
v -0.079871267080307 -0.020146027207374573 0.18063020706176758
v -0.08049231022596359 -0.10983220487833023 0.030115274712443352
v 0.11082031577825546 -0.004674688912928104 -0.23755642771720886
v 0.07357800751924515 0.008701651357114315 0.04868149012327194
v -0.23212435841560364 0.3148843050003052 -0.060313720256090164
v -0.06586802750825882 0.05001213029026985 -0.14409776031970978
v -0.12305635213851929 0.1309012621641159 0.1234012246131897
v -0.08811474591493607 0.11550227552652359 0.1676684319972992
v -0.12468153238296509 0.04047258570790291 0.13370594382286072
v 0.023962242528796196 0.15010251104831696 -0.0151979373767972
v 0.19046132266521454 -0.004291988909244537 0.04635661840438843
v -0.21782928705215454 0.24522751569747925 -0.0726672112941742
v 0.1890621930360794 -0.014986244030296803 0.25939759612083435
v -0.06031028926372528 -0.04820134490728378 0.019579797983169556
v -0.09490484744310379 -0.32451584935188293 0.03899241238832474
v 0.18792514503002167 -0.03719446808099747 -0.031948186457157135
v 0.1932888925075531 -0.016804449260234833 0.08300485461950302
v 0.21844233572483063 -0.08879232406616211 -0.18402470648288727
v 0.041940364986658096 -0.02097547985613346 -0.12770488858222961
v -0.18485495448112488 0.019871467724442482 -0.135614275932312
v 0.05167590081691742 3.4029737435048446e-05 -0.12256745249032974
v -0.09171216934919357 -0.3007442057132721 0.05159760266542435
v -0.16218416392803192 0.26431477069854736 0.01567147485911846
v -0.13274098932743073 0.1643800437450409 -0.18039150536060333
v -0.13580051064491272 0.4372626841068268 0.04643862694501877
v -0.17825280129909515 0.06648039072751999 0.02282968908548355
v 0.14268538355827332 -0.07951287180185318 -0.13823530077934265
v -0.1284061074256897 0.30784928798675537 -0.02718723937869072
v -0.09271681308746338 -0.06548579037189484 0.11114475131034851
v -0.19566179811954498 0.21445772051811218 -0.15724655985832214
v -0.19715413451194763 -0.02227526158094406 0.1437806487083435
v -0.14208672940731049 -0.060324881225824356 -0.038034744560718536
v 0.032257068902254105 -0.07158715277910233 0.011006060987710953
v -0.11071979999542236 0.037308838218450546 -0.06587743759155273
v -0.11961828917264938 -0.2710225582122803 -0.17201049625873566
v -0.13931119441986084 0.07657499611377716 0.17708829045295715
v 0.08144262433052063 -0.1394316852092743 -0.15727287530899048
v -0.11091119796037674 0.22981014847755432 -0.029647251591086388
v -0.06018250808119774 0.31405872106552124 -0.10381603240966797
v 0.020995967090129852 -0.001586631522513926 0.14678718149662018
v 0.09823678433895111 -0.1700737178325653 0.2096373289823532
v -0.11619815975427628 -0.36628100275993347 0.16553635895252228
v 0.12626059353351593 -0.02601509913802147 0.0567452535033226
v -0.1098712906241417 0.0906008630990982 -0.022896554321050644
v 0.19219240546226501 -0.13785633444786072 0.10858442634344101
v 0.026767631992697716 0.00019449937099125236 0.13535505533218384
v 0.18266943097114563 -0.13366000354290009 -0.06444641947746277
v 0.15525756776332855 -0.08370835334062576 -0.09724441170692444
v -0.15559464693069458 0.07365870475769043 0.09483639150857925
v 0.21631647646427155 -0.2809312343597412 -0.1436009705066681
v 0.057450976222753525 0.039811838418245316 0.07889064401388168
v 0.02783784456551075 0.011016583070158958 0.07696740329265594
v -0.17493385076522827 0.1253548562526703 -0.07886242866516113
v -0.2021888792514801 0.26027244329452515 -0.09364236146211624
v -0.09926948696374893 0.1139257401227951 -0.031173523515462875
v 0.2872130274772644 -0.31313642859458923 -0.13877953588962555
v 0.21791091561317444 -0.2600772976875305 -0.1925271451473236
v -0.0741688534617424 -0.15103602409362793 0.11318226903676987
v -0.13406884670257568 -0.0009525396162644029 0.09009633213281631
v -0.050948768854141235 -0.006582783535122871 -0.1238260343670845
v -0.07741107046604156 0.05622098222374916 -0.10053861886262894
v -0.169929638504982 -0.12738853693008423 0.08620276302099228
v 0.01989772915840149 -0.25523364543914795 -0.04835382103919983
v 0.06555362045764923 -0.04378838837146759 -0.17541716992855072
v -0.089234858751297 -0.05792492628097534 0.03080376796424389
v -0.2026456594467163 -0.05399796739220619 0.008399886079132557
v -0.15098612010478973 -0.07873748987913132 -0.09107715636491776
v -0.27164021134376526 0.249092236161232 -0.11682786047458649
v 0.037896089255809784 -0.03257332742214203 0.0054597253911197186
v 0.0027503243181854486 -0.04532802850008011 0.07119553536176682
v -0.09108893573284149 0.004553515929728746 0.09775057435035706
v 0.12185980379581451 -0.1278965175151825 -0.13398168981075287
v 0.13140025734901428 -0.08749104291200638 0.14225848019123077
v 0.06473112106323242 0.030481863766908646 0.024078382179141045
v -0.1376493275165558 0.07072218507528305 -0.13151340186595917
v -0.024416087195277214 -0.1514109969139099 -0.06227459758520126
v -0.19430524110794067 0.3001115918159485 0.15212085843086243
v -0.12124132364988327 0.27893781661987305 -0.02863423526287079
v 0.1610114872455597 -0.1660831868648529 -0.09599364548921585
v -0.14511524140834808 0.23706014454364777 -0.06557461619377136
v -0.09878011047840118 0.016132237389683723 -0.17723870277404785
v 0.056847941130399704 -0.027583327144384384 -0.05319102108478546
v -0.013754638843238354 -0.006005770526826382 0.14132818579673767
v -0.16935104131698608 0.2316020429134369 0.03425736352801323
v 0.008099458180367947 -0.02577429637312889 -0.2022976130247116
v 0.023149598389863968 -0.015959717333316803 0.058879029005765915
v 0.045427318662405014 0.017998596653342247 0.14866487681865692
v -0.06698297709226608 0.07064548134803772 -0.22850997745990753
v -0.14255139231681824 -0.08563689142465591 -0.1363149732351303
v -0.02209416590631008 -0.16276073455810547 0.18299652636051178
v -0.17564040422439575 0.112924724817276 0.19275258481502533
v -0.09059973806142807 0.02085818350315094 -0.14086635410785675
v -0.08600486069917679 -0.019769569858908653 -0.010603214614093304
v 0.11298004537820816 -0.18581035733222961 -0.20189008116722107
v -0.26510533690452576 0.01577572152018547 -0.17272722721099854
v -0.10121125727891922 0.1151321530342102 -0.066412054002285
v -0.1339847892522812 0.03244417533278465 -0.12543052434921265
v 0.18626178801059723 -0.4026392102241516 -0.1482582539319992
v 0.08961312472820282 -0.180675208568573 0.11510791629552841
v -0.14638997614383698 0.28073930740356445 0.11254007369279861
v -0.11519865691661835 0.058282237499952316 0.07094711065292358
v 0.22775577008724213 0.06539703905582428 0.08080960810184479
v 0.1458972692489624 -0.05816544592380524 -0.08454450964927673
v -0.032847099006175995 -0.06955429911613464 -0.1202974021434784
v -0.17196054756641388 -0.1928955316543579 0.008188992738723755
v -0.01970743015408516 -0.05827001854777336 -0.2084704041481018
v -0.13758964836597443 -0.2263064980506897 -0.1391880214214325
v -0.037025269120931625 -0.22657707333564758 0.0679706335067749
v -0.13776402175426483 0.3369416892528534 -0.04430978372693062
v -0.017123185098171234 -0.02920490875840187 0.20511075854301453
v 0.2033916860818863 -0.08346398919820786 -0.0902203842997551
v 0.15534795820713043 -0.06931331008672714 -0.00507139228284359
v -0.10742413997650146 -0.00872720405459404 -0.07632778584957123
v -0.16352659463882446 0.2915650010108948 0.060457777231931686
v 0.1495382934808731 -0.06615099310874939 0.1782052367925644
v 0.06414613127708435 -0.20348340272903442 -0.0995672270655632
v -0.1650431752204895 0.12495329231023788 0.003947016783058643
v -0.12058216333389282 0.082180455327034 0.01660207100212574
v -0.19491441547870636 0.19299738109111786 -0.22254511713981628
v 0.13029825687408447 -0.015361404977738857 -0.07012682408094406
v -0.024559346958994865 0.03365851193666458 -0.0766715407371521
v -0.18097703158855438 0.1086588203907013 0.07607993483543396
v 0.09673570841550827 -0.07046700268983841 0.14135205745697021
v 0.05905182287096977 0.10881543159484863 0.24839186668395996
v 0.07230401784181595 -0.05577976256608963 -0.10853352397680283
v 0.03754903003573418 -0.0042943209409713745 0.16314296424388885
v 0.062344860285520554 -0.006006800103932619 0.16741664707660675
v -0.09041867405176163 -0.038076844066381454 0.11582206934690475
v 0.032669756561517715 -0.0631783977150917 -0.0785977691411972
v -0.04737967997789383 -0.39211106300354004 -0.26323798298835754
v -0.052719127386808395 -0.04030134901404381 -0.03363696113228798
v 0.11416862159967422 -0.07794172316789627 0.040670040994882584
v -0.14776872098445892 0.12357047945261002 -0.047760073095560074
v 0.009057608433067799 -0.03067670948803425 -0.08145087957382202
v -0.071401447057724 0.08192788064479828 0.2649132013320923
v -0.13622170686721802 -0.24136732518672943 0.12937305867671967
v -0.19219741225242615 0.29643920063972473 0.021869711577892303
v 0.006011719815433025 0.23614616692066193 0.053253140300512314
v -0.14435458183288574 0.23999269306659698 -0.19065512716770172
v -0.09480409324169159 -0.19033905863761902 0.2958371341228485
v 0.045048899948596954 0.024824827909469604 0.09945491701364517
v 0.05063728615641594 -0.015992818400263786 0.18184129893779755
v 0.030837448313832283 -0.19453710317611694 0.07364633679389954
v 0.024649638682603836 0.06596259772777557 -0.17342014610767365
v -0.1156705990433693 -0.09085258096456528 0.22460253536701202
v -0.12691989541053772 -0.07692398875951767 -0.05789444223046303
v -0.1906275600194931 0.03677593916654587 -0.08002296835184097
v -0.14656610786914825 0.3264465034008026 0.06094873324036598
v 0.18464869260787964 0.04048365354537964 -0.031852543354034424
v -0.03006763570010662 -0.16839353740215302 -0.030467288568615913
v 0.13314124941825867 -0.17985154688358307 -0.13374491035938263
v -0.04332973062992096 -0.19448810815811157 -0.0510835126042366
v -0.18133464455604553 -0.1607474684715271 0.15390969812870026
v -0.1854960173368454 -0.13420841097831726 0.08807329833507538
v 0.1073322668671608 0.08037572354078293 -0.19772058725357056
v 0.05369126796722412 0.06843061000108719 0.13092726469039917
v -0.15470324456691742 -0.22975020110607147 0.16215674579143524
v 0.07858029007911682 0.02572234533727169 -0.26319074630737305
v 0.04321928322315216 0.04483666270971298 0.019112305715680122
v -0.12541058659553528 -0.062185388058423996 0.04143230989575386
v 0.06523434817790985 -0.00420853216201067 0.05333654582500458
v -0.1608230471611023 0.0630735456943512 0.04245395585894585
v 0.09786313772201538 -0.26839396357536316 -0.1558978408575058
v 0.23652087152004242 -0.035376694053411484 0.061011895537376404
v -0.21278232336044312 0.027960507199168205 -0.09672583639621735
v -0.03891846165060997 -0.06341074407100677 -0.1375720351934433
v 0.05500403419137001 -0.0007355484995059669 0.01209896057844162
v 0.03981317579746246 -0.007474163081496954 -0.16850785911083221
v 0.045343849807977676 -0.0870651826262474 0.014423977583646774
v -0.10308852791786194 0.014814227819442749 -0.1896030753850937
v -0.09618160128593445 0.025917135179042816 -0.0710412785410881
v 0.0391688235104084 0.083130843937397 0.017323821783065796
v 0.016678621992468834 -0.04275961592793465 0.07753356546163559
v 0.12798772752285004 -0.2751792073249817 0.1339900642633438
v -0.024195551872253418 -0.19516344368457794 -0.06752889603376389
v -0.2100430727005005 0.26740607619285583 -0.006596777122467756
v -0.19700470566749573 0.1641273945569992 -0.054255083203315735
v -0.1782820075750351 0.18054132163524628 -0.03910696133971214
v -0.1018688753247261 0.1262192726135254 -0.0865069180727005
v 0.18041644990444183 -0.03705765679478645 0.024847496300935745
v 0.2104511857032776 0.009912109933793545 0.19294294714927673
v -0.18398623168468475 0.1577351689338684 0.10353051871061325
v -0.15961065888404846 0.18143589794635773 0.30259597301483154
v 0.04794691503047943 -0.08986065536737442 -0.06365228444337845
v 0.16990184783935547 -0.10329745709896088 0.056895751506090164
v 0.19423113763332367 -0.13643929362297058 -0.05869242176413536
v -0.05813739821314812 -0.024785667657852173 -0.04919534549117088
v -0.17985503375530243 -0.06035388633608818 0.01713142730295658
v -0.04349670931696892 0.06187506765127182 0.1408577561378479
v -0.11898550391197205 0.0810575857758522 0.03364155441522598
v -0.16079066693782806 0.1763574331998825 -0.11709437519311905
v -0.1362496018409729 0.294944703578949 -0.08116357773542404
v 0.10467072576284409 0.036895640194416046 0.1630275696516037
v 0.1708710491657257 -0.1046852171421051 -0.09834904223680496
v 0.178371399641037 -0.06045622378587723 -0.2190142720937729
v 0.04666375741362572 0.08839249610900879 0.03695182874798775
v -0.08003748953342438 -0.13738609850406647 -0.10856525599956512
v 0.013475551269948483 0.035928867757320404 0.08935260027647018
v -0.07921528071165085 -0.19144326448440552 -0.19487528502941132
v 0.128452867269516 -0.04569688439369202 -0.2063947319984436
v 0.1199585348367691 -0.2657410800457001 0.03606146201491356
v 0.16805079579353333 -0.05125001445412636 -0.0708337277173996
v -0.0045684282667934895 0.05983225628733635 -0.0788487046957016
v 0.1320231556892395 -0.2215721756219864 -0.2645051181316376
v -0.17168383300304413 0.23748037219047546 0.060411080718040466
v -0.10841206461191177 0.29951173067092896 -0.17625869810581207
v -0.07927057147026062 0.03851291164755821 0.14624853432178497
v 0.08515272289514542 -0.09082066267728806 -0.136709064245224
v -0.1432509422302246 0.09790433198213577 -0.1884067952632904
v -0.24058081209659576 -0.055887117981910706 -0.24745285511016846
v -0.04628739878535271 0.14641353487968445 0.02978641726076603
v 0.17907486855983734 -0.11538370698690414 -0.04990454018115997
v -0.021241897717118263 -0.009822290390729904 -0.01681898906826973
v -0.19560647010803223 0.13054035604000092 0.14324826002120972
v 0.03526296839118004 0.001764342887327075 -0.0616251602768898
v -0.1813647747039795 0.1207970678806305 -0.038368113338947296
v -0.028516000136733055 0.1103949099779129 -0.18910464644432068
v -0.012744241394102573 -0.021545235067605972 -0.02454337850213051
v -0.0044498746283352375 -0.08979284763336182 -0.10828213393688202
v -0.07770702242851257 0.0229406226426363 -0.11690749228000641
v 0.19550293684005737 -0.3461087942123413 -0.09975966066122055
v 0.04549240693449974 -0.09043723344802856 0.10460679978132248
v -0.1595344990491867 0.12475713342428207 -0.15807956457138062
v 0.06935124099254608 -0.044520795345306396 -0.028436969965696335
v 0.12210587412118912 -0.11062651127576828 0.1405206024646759
v -0.13631093502044678 -0.20201937854290009 -0.13707730174064636
v 0.07077009975910187 -0.05509774759411812 0.03937322646379471
v -0.03666548803448677 -0.318635493516922 0.026070483028888702
v -0.04826333746314049 0.008341582491993904 -0.12612228095531464
v -0.08251138776540756 -0.22448746860027313 0.05996756628155708
v -0.14387866854667664 0.09598908573389053 0.1475716084241867
v 0.12863041460514069 -0.0895606204867363 0.15904012322425842
v 0.1884373426437378 -0.20980647206306458 0.06366042047739029
v -0.1499674916267395 0.29171237349510193 -0.04806032404303551
v -0.20380280911922455 0.01114761084318161 -0.11641949415206909
v 0.12661515176296234 -9.520972525933757e-05 0.11750622093677521
v 0.10492059588432312 -0.0662437155842781 -0.17599128186702728
v 0.06038796156644821 -0.2482084184885025 0.1957319974899292
v 0.09430932998657227 -0.28117576241493225 0.12277010083198547
v -0.009694205597043037 -0.1665991246700287 -0.04756695404648781
v -0.17719164490699768 0.27562084794044495 0.14953872561454773
v -0.13153329491615295 0.0408090278506279 0.1630038321018219
v 0.1310970038175583 -0.01751798950135708 -0.02385350503027439
v 0.09411259740591049 -0.07390918582677841 0.0845886692404747
v -0.152479350566864 0.1893560141324997 0.12129359692335129
v 0.08318836241960526 0.0045955427922308445 -0.141903355717659
v -0.019814159721136093 0.006763053126633167 0.10082090646028519
v -0.16099229454994202 0.07372625917196274 0.013975470326840878
v -0.06685439497232437 -0.20694619417190552 -0.10609358549118042
v 0.08412231504917145 -0.2750524878501892 -0.16766750812530518
v -0.15423117578029633 0.24950814247131348 0.013373157940804958
v 0.10046041756868362 -0.07787938416004181 0.09377716481685638
v -0.1254008561372757 0.07955923676490784 -0.060102347284555435
v -0.1321166306734085 0.2755143344402313 0.07847286760807037
v -0.1303701400756836 0.14919142425060272 -0.13371998071670532
v -0.1455696076154709 0.16857440769672394 0.10824798792600632
v -0.15394611656665802 0.16404816508293152 -0.020438989624381065
v -0.10336188226938248 0.22998987138271332 -0.0848357304930687
v 0.14993764460086823 0.031096888706088066 0.047095075249671936
v -0.18748442828655243 -0.019551580771803856 -0.16895784437656403
v 0.011337589472532272 -0.2624841332435608 -0.00240332237444818
v -0.19357573986053467 0.19391128420829773 -0.05858651176095009
v -0.14066147804260254 0.005201693158596754 0.0010941928485408425
v -0.0856185182929039 0.1489388346672058 0.03166463226079941
v -0.1819777637720108 0.22547033429145813 0.1368841975927353
v 0.15227241814136505 -0.37107107043266296 0.05108372122049332
v -0.12614260613918304 0.08350435644388199 0.006763866171240807
v -0.0010276514803990722 -0.06605707108974457 -0.11380189657211304
v 0.05765721946954727 -0.14817914366722107 -0.14713136851787567
v 0.1476159244775772 -0.10527008771896362 -0.17776544392108917
v -0.1369635909795761 0.0660458356142044 0.008654296398162842
v -0.07472679018974304 0.24255605041980743 0.03790886327624321
v 0.003996475599706173 -0.021009793505072594 0.02714301086962223
v -0.12926886975765228 0.09449034929275513 0.06540144234895706
v 0.047005411237478256 -0.26384398341178894 -0.03964455798268318
v -0.1004972904920578 -0.17243757843971252 -0.18094170093536377
v -0.05441702902317047 -0.016690587624907494 -0.040689561516046524
v -0.17204903066158295 0.022886080667376518 -0.2026645541191101
v -0.0668773278594017 0.0089873643592 0.04312637820839882
v -0.04697087034583092 0.04920816421508789 -0.05162382125854492
v 0.13023324310779572 -0.20838190615177155 -0.04124091565608978
v -0.10691528767347336 -0.04989325627684593 -0.15303432941436768
v 0.042754072695970535 -0.33535224199295044 -0.1461491733789444
v 0.1704966276884079 -0.26913145184516907 0.14804711937904358
v -0.10132087767124176 0.20602254569530487 0.15925952792167664
v 0.10040897130966187 -0.005733085796236992 -0.025352803990244865
v -0.12706787884235382 -0.048918236047029495 0.04470491036772728
v 0.03713984787464142 -0.06706671416759491 -0.1813039928674698
v -0.024611525237560272 -0.06109944358468056 -0.026344630867242813
v -0.03333846479654312 -0.008789109997451305 0.1634104996919632
v -0.0006540557369589806 0.005444027949124575 -0.00797975528985262
v -0.043062008917331696 -0.07538400590419769 0.12370399385690689
v -0.13471992313861847 0.38497963547706604 -0.1732424944639206
v 0.19466882944107056 -0.07360884547233582 0.02311660535633564
v 0.10591582208871841 0.008862147107720375 0.12026815116405487
v 0.19334952533245087 -0.08746109157800674 -0.12192663550376892
v 0.01689908839762211 -0.0717800185084343 -0.0933835431933403
v 0.05971060320734978 0.04371701925992966 0.1839241236448288
v 0.267561137676239 -0.2631406784057617 0.03991565853357315
v -0.030286014080047607 -0.008955388329923153 0.15335844457149506
v 0.20055578649044037 -0.06911309063434601 0.169582799077034
v -0.12767896056175232 0.18789906799793243 -0.03990638628602028
v 0.02694435603916645 -0.03683808818459511 0.1394716054201126
v 0.12572519481182098 -0.08633529394865036 -0.031872253865003586
v -0.04988294839859009 -0.04180671647191048 -0.19827884435653687
v -0.16725535690784454 -0.06116364896297455 -0.14777880907058716
v 0.08727096766233444 -0.07184095680713654 0.21615350246429443
v 0.18815132975578308 -0.038793355226516724 -0.08886232227087021
v 0.12975333631038666 -0.315428763628006 -0.03671521693468094
v 0.06622608006000519 -0.28490129113197327 0.09028623253107071
v -0.11337470263242722 -0.05277290940284729 0.09934189915657043
v 0.13856478035449982 -0.240261971950531 -0.11718974262475967
v 0.12716346979141235 -0.07264580577611923 -0.053189974278211594
v -0.05809945985674858 -0.10544312745332718 0.08492773771286011
v -0.2452968955039978 0.2844478487968445 -0.06338901072740555
v -0.11722259223461151 -0.09097864478826523 -0.03603178262710571
v -0.06112330034375191 -0.16115644574165344 0.07293461263179779
v 0.1791076809167862 -0.05904292315244675 0.11387402564287186
v -0.057578425854444504 0.05282136797904968 -0.0054192389361560345
v -0.20027805864810944 0.12140874564647675 0.08867234736680984
v -0.2997591495513916 -0.14464883506298065 -0.07636404037475586
v 0.00705651193857193 0.012970982119441032 0.21921759843826294
v 0.12327340245246887 -0.3656879961490631 -0.21715645492076874
v -0.038954053074121475 -0.05785677209496498 0.04032595828175545
v -0.16928938031196594 0.1785692274570465 0.1230732873082161
v 0.014809980988502502 -0.35207247734069824 0.16590631008148193
v 0.08076007664203644 0.0037280151154845953 -0.2075386792421341
v 0.14623141288757324 -0.08174003660678864 -0.03337448090314865
v 0.006030268967151642 -0.20285040140151978 0.024168353527784348
v 0.025012679398059845 -0.04798959568142891 -0.01948881335556507
v 0.08793647587299347 0.0005629249499179423 0.056091196835041046
v -0.1163167878985405 -0.046508677303791046 0.20407533645629883
v -0.1367940455675125 0.16230562329292297 -0.10561587661504745
v 0.12730345129966736 0.004039508756250143 0.1071229875087738
v -0.16975899040699005 0.2859651446342468 -0.09162444621324539
v 0.05116654187440872 0.012748422101140022 0.14807523787021637
v -0.07544287294149399 -0.08192721009254456 0.03463852405548096
v -0.10116586089134216 0.15957120060920715 0.17979803681373596
v 0.07386532425880432 0.16202417016029358 0.14622141420841217
v -0.053342051804065704 -0.0018941318849101663 0.1411549150943756
v 0.1034599244594574 0.15796639025211334 -0.10489138960838318
v -0.1405380219221115 0.14479686319828033 0.15582062304019928
v -0.144541397690773 0.2872333824634552 -0.09462327510118484
v 0.1303299367427826 -0.023921141400933266 -0.01463700644671917
v -0.06689132750034332 -0.12186577171087265 0.16998179256916046
v 0.14284875988960266 -0.12045243382453918 0.14739912748336792
v -0.04842974990606308 -0.39519134163856506 -0.1933419406414032
v -0.10592527687549591 0.31010299921035767 -0.1297529637813568
v -0.15956197679042816 0.19189156591892242 -0.056341059505939484
v -0.061023399233818054 -0.10550615191459656 0.08134545385837555
v -0.12875927984714508 0.013316472992300987 0.09196868538856506
v -0.2030593901872635 0.03237222135066986 -0.15534798800945282
v -0.0747147798538208 0.10410331189632416 -0.050785962492227554
v -0.13944965600967407 -0.07715896517038345 -0.13720563054084778
v 0.12776310741901398 -0.330512672662735 0.055600449442863464
v 0.09169936925172806 0.0717056468129158 0.18040622770786285
v 0.054558418691158295 0.0007687980541959405 -0.04887136071920395
v -0.12460722774267197 0.06450313329696655 -0.026114605367183685
v -0.06008371338248253 0.06651069223880768 0.12905535101890564
v 0.14785295724868774 -0.06641481816768646 -0.020201118662953377
v 0.146182581782341 -0.2692391574382782 0.09012170881032944
v 0.2512325942516327 -0.09542910754680634 0.06711674481630325
v 0.04513412341475487 -0.21630947291851044 -0.18596866726875305
v -0.07864642888307571 0.12174394726753235 0.07351420819759369
v 0.14388029277324677 -0.013191239908337593 0.12206728756427765
v -0.05806495621800423 -0.26599031686782837 -0.06449287384748459
v -0.16269852221012115 0.15478353202342987 0.12901389598846436
v 0.2730371654033661 -0.1772128790616989 0.06127806380391121
v 0.14753827452659607 -0.23316806554794312 0.17789326608181
v 0.1402028203010559 -0.33613473176956177 0.07867098599672318
v -0.058554064482450485 0.11737149208784103 0.034230004996061325
v -0.1488984227180481 -0.40004763007164 -0.037542931735515594
v 0.17705245316028595 -0.20401696860790253 0.1558874398469925
v -0.06943000853061676 -0.12548309564590454 -0.17964398860931396
v -0.05336735397577286 -0.06370656192302704 0.1497165709733963
v -0.047875288873910904 -0.06646666675806046 -0.10191541165113449
v -0.2001664638519287 0.36396944522857666 -0.08476457744836807
v 0.25674471259117126 -0.035312872380018234 -0.08665190637111664
v 0.16353122889995575 -0.05618796870112419 0.05459493026137352
v 0.09076175093650818 -0.09508198499679565 -0.12210754305124283
v -0.0611746609210968 0.031224766746163368 0.04296012595295906
v 0.10130386799573898 0.004947850480675697 0.16621246933937073
v 0.008357511833310127 0.021375620737671852 0.09866969287395477
v -0.15989002585411072 0.06193118169903755 -0.09347056597471237
v 0.14727845788002014 -0.1375463306903839 0.04309985414147377
v 0.06439238041639328 -0.09113036841154099 -0.19792939722537994
v -0.11926079541444778 0.05794064700603485 -0.11868555098772049
v 0.17988039553165436 -0.01764533855021 -0.034879762679338455
v -0.15109126269817352 -0.027972543612122536 -0.24355220794677734
v 0.18920284509658813 -0.16760587692260742 0.137773796916008
v -0.10805844515562057 0.07502700388431549 0.12561145424842834
v -0.08448654413223267 0.07081995904445648 0.13312339782714844
v 0.11150011420249939 -0.02259260229766369 0.10580704361200333
v -0.08920744061470032 0.057012055069208145 -0.11395604908466339
v 0.0549154058098793 0.041536301374435425 -0.1589704304933548
v 0.18377956748008728 -0.11577339470386505 0.10659407079219818
v 0.07040905952453613 0.06264687329530716 -0.06833752989768982
v -0.06869440525770187 -0.07876800745725632 -0.1178126111626625
v 0.21296468377113342 -0.2567370533943176 0.1860261708498001
v -0.01848180778324604 -0.03169220685958862 0.2230212539434433
v -0.19265364110469818 0.005804127547889948 -0.056740302592515945
v 0.0067368452437222 0.025284796953201294 0.08808210492134094
v -0.07353033870458603 0.019319532439112663 0.03683369234204292
v -0.06674212217330933 0.1699453443288803 -0.08657187968492508
v -0.047956500202417374 -0.00470199529081583 -0.12360712140798569
v -0.023267420008778572 -0.08503697067499161 0.19122721254825592
v -0.1359659731388092 0.046931199729442596 -0.04885467141866684
v -0.0440102145075798 0.013344469480216503 0.02357484959065914
v 0.12688979506492615 -0.06765678524971008 -0.06823241710662842
v -0.1127333715558052 0.038682810962200165 -0.16445229947566986
v -0.12744690477848053 0.2475709319114685 -0.058987490832805634
v -0.0879148319363594 0.10569773614406586 0.07891590893268585
v -0.060292765498161316 -0.16086970269680023 -0.09966474026441574
v 0.00017510206089355052 0.02076997607946396 -0.05236409604549408
v -0.09370418637990952 -0.06890165060758591 0.09654276818037033
v 0.03716094419360161 -0.08208746463060379 -0.19005286693572998
v -0.14759427309036255 0.10970010608434677 -0.003091715509071946
v 0.12076886743307114 0.20096740126609802 0.15512262284755707
v 0.06665188819169998 -0.014998018741607666 0.09162677824497223
v 0.204059898853302 -0.21375703811645508 0.05878262594342232
v 0.11891032755374908 -0.026929104700684547 -0.09905790537595749
v 0.19379863142967224 -0.35402601957321167 -0.09047706425189972
v 0.03494889289140701 -0.1218840628862381 -0.05624161288142204
v -0.1523096114397049 0.3344443738460541 -0.038767680525779724
v -0.0010791267268359661 -0.15346425771713257 0.18707995116710663
v -0.08266603201627731 -0.34327948093414307 0.13203668594360352
v -0.1372833251953125 0.2774280905723572 0.026652613654732704
v -0.05681360512971878 0.08625851571559906 0.038991741836071014
v 0.2197302281856537 -0.0738091766834259 -0.1717623919248581
v -0.13160529732704163 0.12375761568546295 -0.11344879120588303
v -0.07414885610342026 -0.0500999391078949 -0.11149562150239944
v -0.0748140811920166 -0.03144706413149834 0.1862993687391281
v -0.035022635012865067 -0.17598176002502441 0.021289711818099022
v 0.05204220861196518 -0.06946655362844467 -0.2098185420036316
v 0.20686018466949463 -0.4176509976387024 -0.19274307787418365
v 0.006986543070524931 0.009308058768510818 -0.1861460655927658
v -0.05181722715497017 -0.10242079943418503 -0.18572282791137695
v 0.028909526765346527 -0.033086538314819336 8.089060429483652e-05
v 0.07313306629657745 -0.10145308077335358 -0.08229295164346695
v -0.08422775566577911 -0.1213473454117775 -0.01734858937561512
v 0.031530920416116714 -0.09076479822397232 -0.11883696913719177
v 0.1366536170244217 -0.13644827902317047 -0.056186493486166
v 0.04384618252515793 -0.2542569041252136 0.18354614078998566
v -0.11481809616088867 0.16383026540279388 0.02335244044661522
v -0.09022875130176544 0.01652517542243004 0.1255064308643341
v 0.14054766297340393 -0.05326370149850845 -0.0732177272439003
v -0.11066338419914246 -0.19708764553070068 0.1671951413154602
v 0.13804370164871216 -0.24442154169082642 -0.02765479125082493
v 0.1317828893661499 -0.3283524811267853 0.04021863266825676
v 0.12270795553922653 -0.27726495265960693 -0.29455551505088806
v -0.24855491518974304 0.12912122905254364 0.05827917903661728
v 0.08198149502277374 -0.04674594849348068 0.06376367062330246
v -0.07790390402078629 0.07876984030008316 0.10136302560567856
v 0.160578653216362 -0.019653042778372765 -0.20006217062473297
v -0.1645411252975464 0.15242204070091248 0.06980960071086884
v -0.1998428851366043 0.06260179728269577 -0.031419530510902405
v -0.02318018488585949 0.17607784271240234 -0.07307010143995285
v -0.17116983234882355 0.3095758259296417 0.09577980637550354
v -0.15762537717819214 0.3098296523094177 -0.01605731062591076
v 0.17250248789787292 -0.02190040796995163 -0.02638079971075058
v -0.1256362646818161 -0.019935358315706253 -0.11000311374664307
v 0.16272474825382233 -0.010399054735898972 -0.016074832528829575
v -0.031823549419641495 0.019183190539479256 0.16262444853782654
v -0.01177168171852827 -0.02368553727865219 -0.09750010818243027
v 0.12395324558019638 0.07072696089744568 0.15207909047603607
v 0.14887136220932007 -0.03238192945718765 0.004766372498124838
v 0.0359317883849144 -0.022005677223205566 -0.16711090505123138
v 0.11170478165149689 -0.2561267018318176 -0.10046490281820297
v -0.06173161044716835 -0.10175517201423645 0.20975181460380554
v 0.013422049582004547 -0.07429641485214233 0.0755629688501358
v -0.06447669118642807 -0.16701069474220276 -0.07423634082078934
v -0.11698593944311142 -0.3348284065723419 -0.06258400529623032
v -0.18886975944042206 0.2797342538833618 -0.04232681170105934
v 0.16494764387607574 -0.22014595568180084 0.03773193061351776
v -0.02546398527920246 0.020038574934005737 0.06905630975961685
v 0.021239543333649635 0.0461585596203804 0.1241288110613823
v -0.06867456436157227 -0.22028730809688568 -0.15907655656337738
v 0.022076375782489777 -0.019978107884526253 -0.04686561971902847
v -0.13521282374858856 -0.25438979268074036 0.07202648371458054
v -0.19987687468528748 0.2540447413921356 0.05167308449745178
v -0.10204141587018967 0.12354349344968796 -0.09727993607521057
v -0.03647587075829506 0.28733962774276733 0.1195204108953476
v 0.11105656623840332 -0.11145342886447906 -0.1072128638625145
v -0.07199466228485107 0.028935259208083153 -0.04433648660778999
v -0.11121983081102371 0.1918950378894806 -0.16201457381248474
v 0.11422683298587799 -0.011848850175738335 0.2149619162082672
v 0.15504790842533112 0.026902029290795326 0.09579604119062424
v 0.1144518330693245 -0.18081866204738617 0.14233289659023285
v -0.13068269193172455 0.05413035303354263 0.06418357789516449
v -0.18573066592216492 -0.2063455581665039 0.13278061151504517
v -0.018187494948506355 -0.17493189871311188 -6.194077286636457e-05
v 0.09181253612041473 -0.1933497190475464 0.20238353312015533
v 0.04669370502233505 -0.5036174654960632 -0.16991010308265686
v -0.10612008720636368 -0.0829169899225235 0.009043758735060692
v -0.10815723240375519 0.010744747705757618 0.035090718418359756
v -0.12625247240066528 -0.0379217229783535 0.006618183571845293
v 0.2689853608608246 -0.36628958582878113 0.2069968283176422
v -0.05766129493713379 0.1036059632897377 -0.0909636840224266
v -0.01663557067513466 0.10886094719171524 -0.09075617045164108
v -0.2523290812969208 -0.17978131771087646 0.10979129374027252
v 0.14847786724567413 -0.22769348323345184 -0.05350074917078018
v 0.0760296955704689 -0.06509071588516235 0.16752074658870697
v 0.15456856787204742 0.13786715269088745 -0.13571776449680328
v 0.20251038670539856 -0.11104418337345123 0.08894314616918564
v 0.06063147634267807 -0.0049608126282691956 0.14980526268482208
v 0.03115011751651764 0.007929286919534206 -0.15086212754249573
