# Vertices: 512

v 0.10174256563186646 -0.026768622919917107 0.021224189549684525
v -0.19726574420928955 -0.002028422662988305 -0.03744926676154137
v -0.16842804849147797 0.15143048763275146 0.14693672955036163
v -0.09046679735183716 -0.010498491115868092 0.06043500453233719
v -0.22007636725902557 -0.34640398621559143 -0.04227549210190773
v -0.10452307760715485 0.3137539029121399 -0.09031731635332108
v -0.022880833595991135 0.06028535217046738 0.04471641033887863
v -0.04464630410075188 0.12837031483650208 0.15629655122756958
v -0.07169567048549652 -0.28872862458229065 0.1584743708372116
v -0.1802356243133545 -0.045264832675457 0.013960923999547958
v -0.11653115600347519 0.09461217373609543 -0.06449536234140396
v -0.09431653469800949 -0.21995072066783905 -0.11856425553560257
v -0.11836416274309158 0.3597322702407837 0.06656812876462936
v 0.07869817316532135 -0.09468039870262146 -0.16476783156394958
v 0.06322383880615234 -0.046211127191782 -0.12482484430074692
v -0.1169227659702301 -0.08976403623819351 -0.03116179257631302
v -0.2513868510723114 0.27398982644081116 -0.13430127501487732
v -0.22507503628730774 0.21873772144317627 0.06703738123178482
v -0.1857619732618332 0.00727053452283144 0.05996793136000633
v 0.3041865825653076 -0.2784443199634552 0.22727066278457642
v -0.199150949716568 0.18685398995876312 -0.05808400362730026
v 0.003288303269073367 0.14376644790172577 0.045479241758584976
v 0.10691847652196884 -0.056732211261987686 0.14840158820152283
v 0.1724550724029541 -0.05497804284095764 0.13669003546237946
v 0.08185377717018127 -0.05956004932522774 -0.024871062487363815
v 0.044903919100761414 -0.04898015782237053 -0.09415457397699356
v 0.10133054107427597 -0.028399668633937836 0.03692018985748291
v -0.06804799288511276 0.050385646522045135 -0.0481366366147995
v 0.06223229691386223 -0.0269794762134552 -0.214242085814476
v -0.08000334352254868 0.07067862898111343 0.005017769988626242
v 0.045192088931798935 -0.06238466873764992 0.13426345586776733
v 0.14706459641456604 -0.1599312722682953 0.05306312069296837
v 0.10401573032140732 0.044406577944755554 0.15426567196846008
v -0.06017892807722092 -0.2566523849964142 -0.24061574041843414
v -0.13689948618412018 -0.1603211909532547 0.13344892859458923
v 0.2516608238220215 -0.10762667655944824 0.023678956553339958
v 0.1287451684474945 0.04214194044470787 -0.0605887807905674
v 0.026192408055067062 -0.2563561201095581 -0.10222356021404266
v 0.17330361902713776 -0.16971953213214874 0.08653196692466736
v -0.09594009071588516 0.0440964475274086 -0.12752753496170044
v -0.18223939836025238 0.17240819334983826 0.09650764614343643
v -0.06397853046655655 -0.06997035443782806 -0.11111464351415634
v 0.05841859430074692 -0.05902988836169243 0.14065033197402954
v -0.2524862289428711 -0.3233371078968048 -0.21666394174098969
v -0.11268714815378189 0.08199088275432587 0.20327909290790558
v -0.02893080562353134 -0.03335873782634735 -0.1600307673215866
v -0.12253952771425247 -0.098673015832901 -0.19085316359996796
v 0.12340670824050903 -0.05635489523410797 -0.026613280177116394
v -0.1850772351026535 -0.0808449536561966 -0.06672656536102295
v -0.14611294865608215 0.020595503970980644 -0.1671416461467743
v -0.17701655626296997 0.2373160719871521 -0.08950378745794296
v -0.0648667961359024 0.1072835922241211 -0.21771422028541565
v -0.14372442662715912 0.22576643526554108 0.04477729648351669
v -0.11297190189361572 -0.035361673682928085 0.14047838747501373
v -0.08943911641836166 -0.07269969582557678 0.15894880890846252
v -0.2331162989139557 0.09506823867559433 -0.046525150537490845
v -0.06566105037927628 -0.0552828423678875 -0.049440667033195496
v -0.1240718886256218 -0.2263881415128708 -0.11078835278749466
v -0.17738477885723114 -0.12865377962589264 0.05957324430346489
v 0.06689941138029099 -0.061137475073337555 0.10053181648254395
v -0.053475119173526764 0.009518316946923733 0.17359259724617004
v -0.09244227409362793 0.18467648327350616 0.10194464772939682
v -0.1354205459356308 0.07755971699953079 0.053230032324790955
v 0.08859185129404068 -0.13459846377372742 0.16359786689281464
v -0.025265252217650414 0.15215913951396942 -0.1745852828025818
v -0.09234090149402618 -0.09534724801778793 -0.16223829984664917
v -0.20011673867702484 0.11360170692205429 0.0016560438089072704
v -0.08600372821092606 0.09949806332588196 -0.06665482372045517
v 0.10233084112405777 -0.009349959902465343 -0.042358119040727615
v 0.15524284541606903 0.03922734782099724 0.21224956214427948
v 0.09914731979370117 0.00014471176837105304 0.1477009356021881
v 0.14631815254688263 -0.25227445363998413 0.019047493115067482
v -0.07990387082099915 -0.041367776691913605 0.04860736057162285
v 0.13713803887367249 0.035606417804956436 0.03863804042339325
v 0.042980778962373734 -0.01352549809962511 0.0979296863079071
v -0.10917091369628906 -0.09787257760763168 0.10941803455352783
v 0.16897577047348022 -0.3026054799556732 -0.20523394644260406
v 0.20814326405525208 -0.18189193308353424 0.17854857444763184
v 0.12444477528333664 -0.02335287816822529 -0.005188206676393747
v -0.15932945907115936 0.21952670812606812 0.12284982204437256
v 0.16834884881973267 -0.27281224727630615 0.046590182930231094
v 0.06476975232362747 -0.06921568512916565 -0.06631844490766525
v -0.338893324136734 0.298427551984787 -0.11267034709453583
v -0.08062700182199478 -0.018538830801844597 0.09341985732316971
v -0.06854604184627533 -0.05633708834648132 -0.03533559292554855
v 0.20857132971286774 0.0005838638753630221 0.08641771227121353
v 0.12214452773332596 -0.04937860742211342 -0.10526575893163681
v -0.20081104338169098 0.10265736281871796 -0.2096032053232193
v -0.1417999416589737 -0.04144134372472763 0.05167278274893761
v -0.14350208640098572 0.012354002334177494 0.11096423119306564
v 0.0669812560081482 0.06221327930688858 -0.15178772807121277
v -0.09750920534133911 0.13929031789302826 -0.10216812044382095
v 0.09976602345705032 -0.015292299911379814 0.10381949692964554
v -0.1693350076675415 0.15016303956508636 0.24369822442531586
v -0.20939156413078308 0.2343834489583969 -0.038280270993709564
v -0.15616750717163086 -0.009545271284878254 -0.19503915309906006
v -0.10764267295598984 -0.05812589451670647 -0.04348379746079445
v 0.014364475384354591 -0.008997463621199131 0.021673448383808136
v -0.19518841803073883 -0.23544710874557495 -0.16630837321281433
v -0.07636021822690964 -0.2238829880952835 -0.0770895928144455
v 0.09598410129547119 0.11107148975133896 -0.13986384868621826
v -0.15614791214466095 0.1979975700378418 -0.12050265073776245
v -0.0457962304353714 -0.1096903458237648 0.010768860578536987
v -0.03937100991606712 -0.03643196448683739 0.17578665912151337
v -0.12807731330394745 0.1393313705921173 -0.03548627719283104
v -0.1406107246875763 0.2716311514377594 0.16961100697517395
v -0.10370703041553497 -0.10484439879655838 0.045988645404577255
v -0.16083113849163055 0.25732865929603577 0.012558529153466225
v -0.13356216251850128 0.31060534715652466 0.04404999315738678
v -0.24542047083377838 0.3538351356983185 0.16549839079380035
v -0.1399758905172348 0.17689596116542816 0.057517148554325104
v -0.1432124525308609 0.05617601424455643 -0.021392159163951874
v 0.17133192718029022 0.06375974416732788 0.15238578617572784
v 0.05385270342230797 -0.018317382782697678 -0.12421873956918716
v -0.18751801550388336 0.22918131947517395 0.0842304676771164
v -0.12355350703001022 0.15019606053829193 0.14474229514598846
v -0.09092794358730316 -0.07077968865633011 0.03506212309002876
v -0.10145948827266693 -0.002727536717429757 0.09678485989570618
v -0.16772828996181488 0.2487276941537857 -0.12538419663906097
v -0.07145646214485168 0.05039636790752411 -0.23077364265918732
v -0.15413647890090942 0.07051049172878265 0.07286403328180313
v -0.12440275400876999 0.052574679255485535 -0.09679345041513443
v -0.16195805370807648 0.059000056236982346 0.14611856639385223
v -0.0634106993675232 -0.09112608432769775 -0.21050378680229187
v -0.09707842022180557 -0.017727229744195938 0.06396503746509552
v -0.15765449404716492 0.32394939661026 -0.03652612864971161
v 0.10806024074554443 0.05659560486674309 0.26222917437553406
v -0.1712384670972824 0.11849568039178848 -0.018124353140592575
v 0.0030864523723721504 -0.06856679916381836 -0.13028907775878906
v -0.14058564603328705 0.08734548091888428 -0.06280472129583359
v -0.1609886735677719 0.3573516607284546 0.062136922031641006
v -0.14511169493198395 0.06334234029054642 -0.030862318351864815
v -0.15176287293434143 -0.020941592752933502 0.17134259641170502
v -0.07939419150352478 -0.24127310514450073 0.02233365923166275
v -0.1469174325466156 0.028468914330005646 -0.10788387805223465
v -0.1761515736579895 0.2052019238471985 -0.22656604647636414
v 0.05683242157101631 -0.042615778744220734 0.10987689346075058
v -0.15853381156921387 0.1695922464132309 -0.07472644001245499
v -0.13827037811279297 0.139235258102417 -0.11672008037567139
v 0.15320095419883728 -0.028753960505127907 0.3121204674243927
v -0.01913377270102501 0.050604481250047684 -0.06797979772090912
v -0.048718538135290146 0.006861542351543903 -0.09225583076477051
v -0.10690824687480927 -0.07102318108081818 -0.21213488280773163
v -0.09920092672109604 -0.10097632557153702 0.09559968113899231
v 0.07101267576217651 0.07860802859067917 0.02752275951206684
v -0.1869657039642334 0.16513697803020477 -0.08173266053199768
v -0.1414826661348343 0.1295054405927658 0.04498234763741493
v 0.0024287605192512274 -0.11192075163125992 0.15588398277759552
v -0.16514186561107635 0.29601985216140747 0.06833038479089737
v -0.1949276328086853 0.3391353189945221 0.11088818311691284
v -0.052510909736156464 -0.02880377508699894 0.09663812816143036
v -0.00476801535114646 0.16578806936740875 0.06483795493841171
v -0.12475208938121796 -0.14667193591594696 0.011346336454153061
v -0.05605960637331009 -0.14735257625579834 0.20262672007083893
v 0.05673683062195778 0.19346171617507935 -0.29956668615341187
v -0.1865726113319397 0.19240030646324158 -0.07129839807748795
v -0.10198263078927994 0.0010092029115185142 0.13167619705200195
v 0.0410119891166687 0.0009618649492040277 -0.11249824613332748
v -0.03977225720882416 0.0011060546385124326 -0.006754965987056494
v 0.0989656150341034 0.0050443015061318874 -0.17535565793514252
v 0.18128877878189087 -0.11692965030670166 0.13890404999256134
v 0.1067860797047615 -0.11121590435504913 0.11865324527025223
v -0.18698641657829285 -0.25007006525993347 -0.20029491186141968
v -0.03290761634707451 0.04334583133459091 -0.22655603289604187
v -0.11076933145523071 -0.20649214088916779 -0.07850132882595062
v 0.014138991013169289 -0.01742533966898918 0.09024092555046082
v -0.16027480363845825 0.08990022540092468 -0.1012284979224205
v -0.059317782521247864 0.13585369288921356 0.07960325479507446
v 0.0032547456212341785 0.27100130915641785 0.07092030346393585
v -0.16137301921844482 0.21417848765850067 0.09575755894184113
v -0.14525309205055237 0.17014560103416443 0.06607209891080856
v 0.12821760773658752 -0.05843222886323929 0.05069843679666519
v -0.15910126268863678 -0.09795427322387695 -0.023642219603061676
v 0.15682879090309143 -0.03167787939310074 0.041784051805734634
v -0.18844111263751984 0.2516976594924927 -0.14769361913204193
v -0.044174160808324814 0.13741959631443024 -0.20231150090694427
v -0.21120262145996094 -0.15314632654190063 0.23319250345230103
v 0.08070643246173859 -0.053727515041828156 0.07906366884708405
v -0.14588868618011475 0.3305250108242035 -0.082998126745224
v 0.12774313986301422 0.03172541782259941 0.13232922554016113
v -0.1164274737238884 0.114447683095932 0.0968732088804245
v -0.17772753536701202 0.12260229140520096 -0.08545941114425659
v 0.10850746929645538 -0.031506676226854324 -0.041898198425769806
v -0.11600770056247711 0.18205350637435913 0.12359239906072617
v -0.1198904886841774 0.09336379170417786 0.1661650389432907
v -0.10962716490030289 -0.21670536696910858 0.03806670010089874
v -0.1813054084777832 0.17670629918575287 -0.11231660097837448
v -0.07619418203830719 -0.06727885454893112 -0.15358160436153412
v -0.2244005799293518 0.16955964267253876 -0.06504485756158829
v 0.1888759732246399 -0.11361772567033768 0.0907389223575592
v -0.1511070728302002 -0.09468888491392136 0.18260358273983002
v -0.012303599156439304 -0.2307310402393341 0.1553405523300171
v -0.1617252230644226 0.05231352895498276 0.07262308895587921
v -0.09697258472442627 0.04194832965731621 -0.2296454757452011
v -0.10698559135198593 -0.10733935236930847 0.18699268996715546
v 0.10837184637784958 -0.015098506584763527 0.0038157845847308636
v -0.2150510549545288 0.2123582512140274 0.07727401703596115
v -0.09132684022188187 -0.05198642611503601 0.03604469448328018
v -0.09637119621038437 0.36029207706451416 0.07763880491256714
v -0.18872104585170746 0.0984158143401146 0.060519345104694366
v -0.16234669089317322 0.275115042924881 0.052896831184625626
v 0.07347260415554047 -0.3223777413368225 -0.18936705589294434
v 0.09370099753141403 0.00844602845609188 0.07622405886650085
v -0.1286116987466812 0.26142337918281555 0.06287606060504913
v 0.18223965167999268 -0.15707433223724365 -0.027463020756840706
v 0.04843894764780998 -0.09725646674633026 -0.09835982322692871
v -0.12479449063539505 -0.19744515419006348 0.1334637701511383
v -0.008536829613149166 -0.16491180658340454 0.23947787284851074
v 0.19795997440814972 -0.03964989632368088 0.04863914102315903
v -0.15360504388809204 -0.139672189950943 0.11373881250619888
v 0.03769146651029587 -0.1325431913137436 0.1548118144273758
v -0.14228209853172302 0.14589464664459229 -0.09450843930244446
v 0.08643791824579239 -0.15916696190834045 0.1975371539592743
v -0.028965801000595093 -0.04485020786523819 0.09470214694738388
v 0.01941647380590439 -0.18059417605400085 0.05690138414502144
v -0.027523692697286606 -0.14866691827774048 -0.060641299933195114
v -0.06320316344499588 -0.017374329268932343 -0.12336253374814987
v 0.21238915622234344 -0.376729279756546 0.21796384453773499
v -0.11170096695423126 0.03440636023879051 -0.05070211738348007
v -0.1139124259352684 0.2781486511230469 0.04286401346325874
v 0.026337888091802597 -0.26801323890686035 0.186432346701622
v -0.10117602348327637 -0.23518122732639313 0.12085452675819397
v 0.08141936361789703 -0.32511454820632935 0.11924192309379578
v -0.1848326474428177 0.33888593316078186 -0.02185651659965515
v -0.07282546907663345 0.08216727524995804 -0.11073913425207138
v 0.019926346838474274 -0.1946132779121399 -0.10142748057842255
v -0.12473129481077194 -0.12067551910877228 -0.1256779134273529
v -0.0371905118227005 -0.13665327429771423 0.1520676165819168
v -0.20804934203624725 0.3206494450569153 0.11627161502838135
v -0.18490535020828247 0.1694728136062622 -0.016100436449050903
v 0.011390933766961098 -0.0524880513548851 -0.24244876205921173
v 0.16712112724781036 -0.08723950386047363 -0.058021970093250275
v -0.16426707804203033 0.139709934592247 0.07752477377653122
v -0.18132108449935913 0.13775411248207092 -0.05235113576054573
v -0.22584787011146545 0.2961808741092682 -0.07397818565368652
v -0.05550616979598999 -0.013874431140720844 -0.08327054977416992
v 0.034233272075653076 -0.12583404779434204 -0.17419946193695068
v -0.0007180380634963512 -0.07738862931728363 -0.14455294609069824
v -0.17257143557071686 0.350495308637619 0.049176618456840515
v -0.17987960577011108 0.1900264471769333 0.06321564316749573
v 0.18692021071910858 0.027893969789147377 -0.06716683506965637
v 0.09593985229730606 -0.20916128158569336 -0.09953650832176208
v -0.03721453621983528 -0.1097121462225914 -0.14175258576869965
v 0.2216680943965912 -0.22806724905967712 0.18503344058990479
v 0.14494764804840088 -0.05218281224370003 -0.16650131344795227
v 0.1503721922636032 -0.027839280664920807 -0.012882725335657597
v 0.06395959109067917 -0.02110547572374344 -0.10537444800138474
v 0.027762042358517647 -0.013662619516253471 0.14693038165569305
v -0.20190779864788055 0.2516918480396271 -0.05490706488490105
v -0.06140488013625145 0.013687046244740486 -0.08200785517692566
v -0.054975900799036026 -0.2439967840909958 0.13119594752788544
v -0.11780078709125519 0.028831753879785538 0.052609700709581375
v 0.1402437835931778 0.007684805896133184 -0.14243313670158386
v -0.11823390424251556 -0.07138508558273315 -0.14104042947292328
v -0.0953621119260788 0.04992692917585373 -0.034704629331827164
v 0.13285130262374878 -0.21811294555664062 -0.12892045080661774
v -0.10318158566951752 0.07017560303211212 0.16230696439743042
v 0.07025271654129028 -0.15830039978027344 -0.006320434622466564
v -0.1429896354675293 0.17715632915496826 0.10047128051519394
v 0.03278565779328346 0.08388607203960419 -0.15293273329734802
v 0.19136251509189606 -0.04869156703352928 0.13142520189285278
v -0.1021202951669693 0.1114320158958435 -0.1519165188074112
v 0.1180569976568222 -0.015055319294333458 0.12223830074071884
v 0.18635335564613342 -0.38072240352630615 0.19274918735027313
v -0.039964862167835236 -0.07288850843906403 0.14557096362113953
v 0.06351648271083832 -0.0580989308655262 -0.03586716577410698
v -0.0506548248231411 0.0337604396045208 -0.09717060625553131
v 0.16892629861831665 -0.18271476030349731 -0.11658404022455215
v -0.015876062214374542 -0.05941781401634216 -0.10719815641641617
v -0.1976761370897293 -0.12298604846000671 0.1284470409154892
v 0.13122466206550598 -0.10880106687545776 -0.004929484333842993
v -0.22263075411319733 -0.25780200958251953 -0.07038100063800812
v -0.08687447756528854 -0.0030971658416092396 0.04420563951134682
v -0.17123731970787048 0.1251792460680008 -0.012178521603345871
v -0.28441476821899414 0.17996159195899963 0.13374243676662445
v -0.13389016687870026 0.07225397229194641 0.038466840982437134
v -0.016553955152630806 -0.10348137468099594 -0.03920045122504234
v -0.11072254925966263 0.11055700480937958 -0.032296646386384964
v 0.18613864481449127 0.0003747321025002748 -0.3496035933494568
v -0.03259754553437233 0.3772715628147125 -0.17581763863563538
v 0.04796586558222771 -0.07224852591753006 0.02280818112194538
v 0.11140786111354828 -0.015608865767717361 0.12577253580093384
v -0.11106815189123154 0.08863487839698792 -0.006289029959589243
v -0.12666866183280945 0.18034406006336212 0.17081134021282196
v -0.17242838442325592 0.16927969455718994 0.060308024287223816
v -0.236734539270401 0.17728345096111298 -0.005648300051689148
v -0.11206957697868347 -0.023012608289718628 -0.045863792300224304
v -0.11490526795387268 0.2965565025806427 -0.003277925541624427
v 0.0161272082477808 -0.08630535006523132 0.05755416676402092
v -0.15962454676628113 -0.24282215535640717 0.15011802315711975
v 0.09634742885828018 -0.11061206459999084 -0.07653331011533737
v 0.10907424986362457 -0.00978313758969307 -0.05259763449430466
v -0.2031582146883011 0.3335476219654083 0.12284573167562485
v -0.19238749146461487 -0.2825023829936981 -0.21521171927452087
v -0.14021337032318115 0.019988128915429115 -0.017574645578861237
v -0.28655099868774414 0.20097216963768005 -0.1118873581290245
v -0.03303059935569763 0.14460423588752747 0.0941925048828125
v -0.1944379359483719 0.14840205013751984 0.03882592171430588
v -0.2012358009815216 0.15906177461147308 0.0554560087621212
v -0.08995041251182556 -0.3578115701675415 -0.18537172675132751
v 0.16121576726436615 -0.27684152126312256 0.16290216147899628
v 0.02838255651295185 0.04453343525528908 -0.06412528455257416
v -0.10998638719320297 0.18653088808059692 -0.008328653872013092
v -0.030715337023139 0.14161913096904755 0.13670265674591064
v -0.2882069945335388 0.34445515275001526 0.0011018177028745413
v -0.10096483677625656 0.059057507663965225 0.00825805775821209
v -0.0028131448198109865 0.205832377076149 0.2153741866350174
v 0.2589911222457886 -0.4665553569793701 -0.036853864789009094
v 0.19484996795654297 -0.07035334408283234 0.029702747240662575
v -0.025735652074217796 0.011865836568176746 -0.15182355046272278
v 0.14305590093135834 -0.02063179202377796 0.1787494570016861
v -0.006464078556746244 -0.09029421210289001 -0.13097570836544037
v -0.0684838593006134 -0.2275466024875641 0.18771982192993164
v -0.07450547069311142 0.25276505947113037 0.1005835086107254
v 0.1523752510547638 -0.00168117496650666 0.09301842004060745
v -0.18869443237781525 0.2503156363964081 -0.07977572083473206
v -0.1490115374326706 0.12200194597244263 0.1347278654575348
v -0.08208563178777695 0.002774201100692153 -0.16404247283935547
v -0.0629071295261383 0.20494678616523743 -0.06618574261665344
v 0.13505065441131592 -0.0784819945693016 0.04430985450744629
v 0.0014725662767887115 -0.014066812582314014 0.14962464570999146
v -0.11996308714151382 0.2034417688846588 -0.02787492424249649
v -0.026583658531308174 0.01846829243004322 0.06711383908987045
v 0.10555989295244217 -0.4258851110935211 0.14319775998592377
v -0.17237414419651031 -0.04651676118373871 0.015203844755887985
v 0.008125527761876583 0.11033407598733902 0.09574568271636963
v 0.07390043884515762 -0.06687793880701065 -0.17140430212020874
v -0.15124543011188507 0.20727631449699402 0.07433068007230759
v -0.16265934705734253 0.1839253455400467 0.10675820708274841
v 0.0062626744620501995 0.0023678289726376534 -0.13475936651229858
v -0.10949744284152985 0.003722732188180089 -0.17949169874191284
v -0.15253658592700958 0.03615354746580124 -0.0008301596972160041
v 0.09136281907558441 -0.3082495629787445 0.03336502984166145
v -0.2013639211654663 0.20131592452526093 0.1763342022895813
v -0.17147766053676605 0.3313908874988556 -0.06192436441779137
v -0.2116214632987976 0.40841224789619446 -0.03299064189195633
v -0.054588694125413895 -0.10445666313171387 -0.007732062600553036
v -0.1463691145181656 -0.18130972981452942 -0.17654862999916077
v -0.11388853937387466 0.19402430951595306 -0.14954213798046112
v -0.004044904373586178 0.03139663115143776 0.017004113644361496
v -0.21259421110153198 0.09163633733987808 -0.02902253158390522
v -0.08381448686122894 0.010483191348612309 0.14457839727401733
v 0.05054035410284996 -0.0018277008784934878 0.1796453595161438
v 0.21111343801021576 -0.10162927210330963 0.07902608066797256
v 0.0015451273648068309 -0.1827220916748047 0.06444797664880753
v -0.18197882175445557 -0.42073845863342285 -0.06924116611480713
v -0.029648996889591217 -0.07147777080535889 0.17196959257125854
v 0.09269934147596359 0.046079520136117935 0.1944250613451004
v 0.08522298187017441 -0.04780995100736618 -0.13404765725135803
v -0.012971075251698494 -0.1511412262916565 -0.14533764123916626
v -0.09772980213165283 0.029159557074308395 -0.21946671605110168
v -0.09873107820749283 0.029052412137389183 0.18837317824363708
v -0.02420581318438053 0.1961265206336975 0.19483402371406555
v -0.11329691857099533 0.12256268411874771 -0.002441425109282136
v -0.17378588020801544 0.32030701637268066 -0.13929754495620728
v 0.10004810988903046 -0.14954842627048492 0.1293136179447174
v 0.21986955404281616 -0.05510403960943222 0.18549954891204834
v -0.07494471222162247 0.16924387216567993 -0.05924750864505768
v -0.0878085270524025 -0.29110220074653625 0.025972113013267517
v 0.14234058558940887 -0.06925339996814728 0.1768563687801361
v 0.08230900019407272 0.06988173723220825 -0.05625665560364723
v 0.08870770782232285 -0.04305172339081764 0.08042803406715393
v 0.11030928045511246 -0.008845713920891285 0.06118173152208328
v 0.07698146998882294 -0.20181818306446075 0.10802285373210907
v 0.11239555478096008 -0.13608792424201965 -0.0718628317117691
v -0.12808692455291748 -0.04711141437292099 0.0628444105386734
v -0.1772231012582779 0.19136857986450195 0.1531369686126709
v 0.007549384143203497 -0.2741299867630005 -0.23381774127483368
v -0.07268571108579636 -0.3520854413509369 0.15199171006679535
v 0.14979293942451477 0.05067810043692589 0.002307923510670662
v -0.1925228387117386 0.40963271260261536 0.07607938349246979
v -0.14958171546459198 0.19305233657360077 0.20083953440189362
v -0.059399012476205826 -0.11182191967964172 -0.14877791702747345
v -0.07592826336622238 0.0631491169333458 -0.07297418266534805
v 0.03325328975915909 -0.025037627667188644 -0.10406472533941269
v -0.17338530719280243 0.33964651823043823 -0.006701861973851919
v -0.004315154626965523 0.005883438512682915 0.0942806527018547
v 0.033515337854623795 0.10647002607584 -0.0032794943545013666
v 0.06727878749370575 -0.14764933288097382 -0.17740142345428467
v 0.15964925289154053 0.12489163130521774 0.06463798135519028
v -0.18447178602218628 0.2028178572654724 0.041129738092422485
v -0.11343734711408615 0.021899910643696785 0.10628090798854828
v 0.18329906463623047 -0.02338794246315956 -0.08882381021976471
v -0.2038736790418625 0.15739713609218597 0.05660856515169144
v -0.07890447974205017 -0.03091183863580227 0.10837961733341217
v 0.1172557845711708 -0.281061589717865 -0.0666610598564148
v -0.05970384553074837 -0.052518054842948914 -0.16175056993961334
v -0.14813105762004852 0.16332808136940002 0.05994860827922821
v -0.09750594943761826 -0.09476767480373383 -0.25101613998413086
v 0.1477004438638687 -0.3313569724559784 -0.14019614458084106
v 0.12472675740718842 0.08299312740564346 0.10093539953231812
v 0.01339994091540575 0.08841636031866074 -0.062095630913972855
v -0.05913010612130165 0.23426851630210876 0.001241470454260707
v 0.020952405408024788 -0.15127189457416534 0.025117671117186546
v -0.02262675203382969 0.07512998580932617 -0.09759250283241272
v 0.011011943221092224 -0.2189779281616211 0.09392015635967255
v 0.08129489421844482 -0.054262302815914154 -0.1007344201207161
v -0.1819983869791031 0.30461791157722473 -0.07570885121822357
v -0.1819690763950348 -0.20665332674980164 -0.011197429150342941
v -0.11707039922475815 0.3392029106616974 -0.02976316027343273
v -0.10071471333503723 0.0104924775660038 0.13874752819538116
v -0.15979741513729095 0.27374008297920227 0.0607944019138813
v -0.020031247287988663 -0.07635905593633652 0.0419619046151638
v 0.11908695101737976 -0.05855310335755348 0.06333569437265396
v 0.11652124673128128 -0.0014154264936223626 0.0008282753406092525
v 0.2197512686252594 -0.05328184366226196 0.13874180614948273
v -0.20965364575386047 0.10815149545669556 0.054999738931655884
v -0.13361653685569763 0.04953077808022499 0.019893737509846687
v 0.032766349613666534 -0.13358959555625916 0.007289388682693243
v -0.12393428385257721 0.17986230552196503 0.07055453956127167
v 0.05138937011361122 -0.025796251371502876 -0.012513330206274986
v -0.22704020142555237 0.3064318299293518 -0.08347783237695694
v 0.03915786370635033 -0.010703714564442635 -0.006188022904098034
v 0.23202849924564362 -0.035996001213788986 0.09342043846845627
v 0.10276065766811371 -0.05452375486493111 -0.02224370837211609
v 0.08763691037893295 0.19880756735801697 -0.047112081199884415
v -0.12023378163576126 0.20172898471355438 -0.1904003918170929
v 0.16990679502487183 -0.026129821315407753 -0.22953152656555176
v 0.13725237548351288 -0.16420181095600128 -0.11203860491514206
v 0.07888608425855637 -0.036562222987413406 0.20499439537525177
v 0.23557887971401215 -0.08879469335079193 -0.21577654778957367
v 0.007648471277207136 0.07717962563037872 -0.17996028065681458
v -0.20014357566833496 0.24084505438804626 -0.19037972390651703
v 0.23173663020133972 0.03321944922208786 0.21262191236019135
v -0.19474658370018005 0.07389596104621887 0.05674614757299423
v 0.0472172349691391 -0.09123110771179199 -0.09036999195814133
v 0.010638564825057983 -0.030877528712153435 0.16296884417533875
v -0.12645797431468964 -0.06395899504423141 0.14450305700302124
v 0.09415221959352493 -0.15953394770622253 0.2014555037021637
v -0.09452495723962784 0.20234009623527527 0.11966613680124283
v -0.12704329192638397 0.019971832633018494 0.18373434245586395
v -0.12811961770057678 0.02642267569899559 -0.0802055299282074
v -0.07214819639921188 0.037102121859788895 -0.10767733305692673
v -0.09595972299575806 0.03324424475431442 0.009190156124532223
v -0.008538168855011463 0.038092438131570816 -0.007359737996011972
v -0.13478416204452515 0.0809844583272934 0.01621120609343052
v -0.15887749195098877 0.201829195022583 0.061361730098724365
v -0.13902907073497772 0.009239152073860168 -0.19846390187740326
v -0.06071995571255684 -0.05994341894984245 -0.04068329185247421
v -0.16634972393512726 0.31226977705955505 0.06351548433303833
v -0.08831555396318436 -0.02911834605038166 0.20283854007720947
v -0.022616753354668617 -0.0543828085064888 0.0141390860080719
v -0.15301910042762756 0.24734149873256683 -0.17061176896095276
v -0.0315098911523819 0.09821755439043045 -0.16363057494163513
v -0.16974268853664398 -0.03053954429924488 -0.04530571773648262
v -0.13624869287014008 0.17949286103248596 0.09162663668394089
v -0.20709149539470673 0.2962736487388611 -0.11932515352964401
v -0.14855487644672394 0.03971943259239197 0.044394224882125854
v -0.06871456652879715 -0.1437448412179947 0.02667326107621193
v 0.04300669580698013 -0.15564179420471191 0.08972222357988358
v -0.05189833045005798 -0.0661444216966629 -0.05623427405953407
v -0.07341712713241577 -0.08292181044816971 -0.038208454847335815
v -0.16540497541427612 0.19766604900360107 -0.12982040643692017
v -0.10066691786050797 -0.1498996615409851 -0.09566077589988708
v -0.0551208071410656 -0.1845688670873642 -0.1530953049659729
v -0.1709170788526535 0.025553427636623383 0.0027825222350656986
v 0.24706296622753143 -0.0200821403414011 0.13043855130672455
v -0.14263634383678436 -0.03983401879668236 -0.08358246833086014
v -0.08062099665403366 -0.11424490809440613 0.1991594135761261
v 0.09741894900798798 -0.15486246347427368 0.23099450767040253
v -0.058457013219594955 -0.11652243137359619 0.17414060235023499
v -0.14011314511299133 0.3282793164253235 0.0037795479875057936
v 0.0764581486582756 0.06912790983915329 -0.07327017188072205
v 0.06458067148923874 -0.1303565800189972 -0.17132362723350525
v 0.12790881097316742 -0.143132746219635 -0.12818743288516998
v 0.12527960538864136 -0.16504009068012238 0.17532260715961456
v -0.03568285331130028 0.2105504274368286 -0.08778509497642517
v -0.06957236677408218 0.002773075830191374 -0.20364268124103546
v -0.07504364103078842 -0.3029002249240875 -0.02888098917901516
v -0.11178329586982727 0.06563086062669754 -0.027847955003380775
v -0.013871030882000923 -0.019289033487439156 -0.014176912605762482
v -0.11385226994752884 0.26921823620796204 -0.23638132214546204
v -0.15522058308124542 0.3466835916042328 0.034595828503370285
v -0.14285224676132202 0.39257246255874634 0.05261296033859253
v 0.08821083605289459 -0.03469648212194443 0.020026350393891335
v -0.15173225104808807 -0.18542695045471191 0.011136525310575962
v 0.1263509839773178 -0.028359923511743546 -0.33102381229400635
v -0.12510743737220764 0.3388630151748657 -0.03505164384841919
v 0.021711790934205055 -0.254174143075943 0.10727380216121674
v -0.10825202614068985 0.11201710253953934 -0.15799656510353088
v -0.05600133538246155 -0.16197964549064636 0.005291502457112074
v -0.15709614753723145 0.3487952947616577 0.022844988852739334
v -0.05297122150659561 -0.04871524125337601 0.06096053868532181
v -0.04385368898510933 -0.028319796547293663 -0.050454702228307724
v -0.18185336887836456 0.13448072969913483 0.05368303507566452
v -0.16944332420825958 0.30088940262794495 -0.13246476650238037
v 0.15638120472431183 0.02350515127182007 -0.011289781890809536
v 0.19204455614089966 -0.015769023448228836 0.04049811512231827
v 0.012076848186552525 -0.26757174730300903 -0.22184014320373535
v -0.16866610944271088 0.14799129962921143 -0.043945495039224625
v 0.038464345037937164 0.24552540481090546 0.06751997023820877
v -0.07086548954248428 -0.06944539397954941 0.17179271578788757
v -0.11849727481603622 0.22306136786937714 0.06537487357854843
v 0.10903256386518478 -0.06263817846775055 0.13485980033874512
v 0.11651629954576492 0.07617165148258209 0.18914206326007843
v -0.12719589471817017 -0.057371437549591064 -0.11049982905387878
v 0.02618757262825966 -0.0372077152132988 -0.1315290331840515
v -0.1211385428905487 0.24471044540405273 -0.1365881711244583
v -0.14623308181762695 0.20512330532073975 -0.10447879135608673
v -0.2097180187702179 0.4005822241306305 -0.09052377939224243
v 0.023893551900982857 -0.023913975805044174 0.12100452929735184
v -0.07380718737840652 0.22672690451145172 -0.09758269041776657
v -0.04507116600871086 0.0027109007351100445 -0.1180354580283165
v 0.029292970895767212 -0.013717018999159336 -0.16462267935276031
v 0.02031591720879078 -0.12439344078302383 -0.0669349879026413
v -0.22094936668872833 0.21298722922801971 -0.011543570086359978
v 0.21606098115444183 -0.027845514938235283 -0.04492121934890747
v -0.17314963042736053 0.0027763734105974436 0.058023903518915176
v -0.1871027946472168 0.1776295155286789 0.22127561271190643
v -0.10305510461330414 0.10810448229312897 0.02164630964398384
v 0.18313072621822357 -0.054422732442617416 -0.06450901925563812
v -0.11552240699529648 0.10828475654125214 0.022043153643608093
