# Vertices: 512

v -0.0023297921288758516 -0.10753746330738068 0.04616514593362808
v -0.19975286722183228 -0.005577366333454847 -0.04317533224821091
v 0.031478896737098694 -0.047019585967063904 0.11292383074760437
v -0.17767737805843353 0.08993830531835556 0.16054463386535645
v 0.1362834870815277 -0.007631996646523476 0.013041259720921516
v -0.1378910392522812 -0.018134286627173424 0.07840986549854279
v 0.07176139205694199 0.06367355585098267 -0.03553996607661247
v -0.044482145458459854 -0.2209513932466507 -0.11115004122257233
v -0.025784533470869064 -0.0381823368370533 -0.08917947113513947
v 0.02118593454360962 -0.13601836562156677 0.03469029441475868
v 0.08242231607437134 0.3255469799041748 -0.00728301377967
v -0.16973094642162323 0.28021326661109924 -0.003130186116322875
v -0.22902853786945343 0.35621410608291626 -0.13689061999320984
v 0.08509331196546555 0.1129813864827156 -0.027977708727121353
v -0.13665494322776794 0.028075294569134712 0.17300018668174744
v -0.18699286878108978 0.049496572464704514 -0.02648559957742691
v 0.04568464681506157 -0.01626626029610634 0.037586990743875504
v -0.20362263917922974 0.13408342003822327 0.004221864510327578
v 0.1405375748872757 -0.09950951486825943 0.07678516954183578
v 0.08114565163850784 -0.23900288343429565 0.10430415719747543
v -0.2397262156009674 0.11907212436199188 -0.0792127177119255
v 0.09155363589525223 -0.0004186471342109144 -0.03660031408071518
v -0.17094525694847107 -0.0025518122129142284 0.029934730380773544
v 0.048659708350896835 -0.045651521533727646 -0.005435778759419918
v -0.0814039558172226 0.1430680751800537 -0.14746487140655518
v 0.21310940384864807 0.11777976155281067 -0.10556434094905853
v -0.0423596017062664 -0.017619485035538673 0.008660942316055298
v 0.06579358875751495 0.041359659284353256 -0.23929384350776672
v -0.11599870771169662 0.048265207558870316 -0.041386596858501434
v 0.1828857809305191 -0.33581915497779846 0.18898619711399078
v 0.17816568911075592 0.171026349067688 -0.19193337857723236
v -0.1423872411251068 0.10702735185623169 -0.07539262622594833
v 0.0180040430277586 0.06839584559202194 -0.12653154134750366
v 0.1544615626335144 -0.08832814544439316 -0.2118481695652008
v -0.22250591218471527 0.20103202760219574 0.18335053324699402
v -0.12861324846744537 0.2677740156650543 -0.10736113041639328
v 0.07056038826704025 -0.034542445093393326 0.19266708195209503
v -0.13653187453746796 0.1655685156583786 0.053815025836229324
v -0.0527954176068306 -0.013415319845080376 0.14097023010253906
v 0.07145571708679199 -0.08695103228092194 -0.04756152629852295
v 0.12126262485980988 0.07618136703968048 0.18706630170345306
v 0.1959255039691925 -0.1465843915939331 0.03403603285551071
v 0.047854043543338776 -0.1710306704044342 0.04747943580150604
v -0.39966410398483276 0.16085200011730194 -0.06480970978736877
v 0.2756774425506592 -0.10933389514684677 0.11195999383926392
v 0.10022976994514465 -0.08250682801008224 -0.06471989303827286
v -0.008758485317230225 -0.034451160579919815 0.08886449038982391
v -0.004050576128065586 -0.06376530975103378 -0.18617510795593262
v 0.04351818934082985 0.0573689229786396 -0.074608214199543
v -0.11388924717903137 0.08923720568418503 -0.06705301254987717
v 0.18023519217967987 -0.3439514636993408 -0.06700685620307922
v -0.05773766711354256 0.0863940417766571 -0.013766379095613956
v 0.002757725305855274 -0.0368572436273098 0.10287154465913773
v 0.33570772409439087 -0.06657973676919937 0.12600943446159363
v 0.06896349787712097 -0.3063802719116211 0.026666203513741493
v 0.018774738535284996 -0.09972307831048965 -0.031253863126039505
v 0.28017446398735046 0.009459872730076313 -0.035119347274303436
v 0.015070977620780468 0.09580174088478088 -0.276466965675354
v 0.0518348291516304 0.08504456281661987 -0.16511964797973633
v -0.1522233933210373 0.38365986943244934 0.13585151731967926
v 0.1027941033244133 -0.00760203180834651 -0.15742774307727814
v -0.03739538788795471 0.05254018306732178 -0.024841509759426117
v 0.02004091441631317 0.01376271340996027 -0.06847767531871796
v 0.25684306025505066 -0.01229756511747837 0.015188402496278286
v -0.026392921805381775 -0.18117037415504456 0.058582864701747894
v 0.1562456488609314 -0.09585795551538467 0.18651331961154938
v -0.18984174728393555 0.11490435153245926 0.04237763583660126
v 0.029566176235675812 -0.049587432295084 -0.025640076026320457
v -0.0982714295387268 -0.14999152719974518 0.1811739206314087
v -0.1293189525604248 0.016471432521939278 0.119242362678051
v -0.1336495578289032 0.04518773406744003 -0.015059025026857853
v 0.10185621678829193 -0.03753064200282097 0.16496773064136505
v 0.09930466115474701 0.051086634397506714 -0.06862347573041916
v 0.037690602242946625 -0.26079991459846497 -0.011172519065439701
v 0.057182978838682175 -0.08150304853916168 0.05649731680750847
v 0.009857319295406342 -0.2696390151977539 -0.12630034983158112
v -0.20840829610824585 0.41463610529899597 -0.07597646117210388
v -0.09055259823799133 0.04211984947323799 0.1465238630771637
v -0.1602126806974411 0.28998565673828125 0.0597185455262661
v -0.1017524003982544 0.10770681500434875 0.12904362380504608
v 0.10114476084709167 -0.008971280418336391 0.05083778128027916
v 0.06655212491750717 0.1311619132757187 -0.004721685312688351
v 0.037360455840826035 -0.20273016393184662 -0.11096218228340149
v -0.10772158205509186 0.13352474570274353 -0.14663392305374146
v -0.08945910632610321 0.09293355792760849 -0.07252869755029678
v -0.20297971367835999 0.16584348678588867 -0.032855670899152756
v -0.1976260393857956 0.2489522248506546 0.16168953478336334
v 0.08200963586568832 -0.11188965290784836 -0.14212822914123535
v -0.024449724704027176 -0.13018538057804108 0.11515218764543533
v 0.27016329765319824 0.18715716898441315 0.3956645429134369
v 0.20127713680267334 -0.04379010573029518 0.086502805352211
v -0.1105721965432167 -0.31695446372032166 0.0393977127969265
v 0.051113154739141464 -0.039480920881032944 -0.11792666465044022
v -0.04472338408231735 -0.05621219426393509 0.06974483281373978
v 0.046507976949214935 -0.12002293765544891 -0.03928153216838837
v -0.09588513523340225 0.0072936867363750935 0.07011207193136215
v 0.12080240249633789 -0.19898173213005066 -0.013288475573062897
v -0.06399397552013397 0.03064272366464138 -0.0725378468632698
v 0.14994393289089203 -0.1983574479818344 -0.12478983402252197
v -0.17724014818668365 0.2409045696258545 -0.16501519083976746
v -0.21527157723903656 0.17989611625671387 0.1818782389163971
v 0.1375584900379181 -0.012171683833003044 -0.029075495898723602
v 0.1422065794467926 -0.06979642808437347 0.15875442326068878
v 0.07067082822322845 -0.06718004494905472 -0.12774226069450378
v -0.1636723279953003 0.1061004027724266 -0.07875899225473404
v -0.142104834318161 -0.3112724721431732 -0.21224261820316315
v -0.17534948885440826 0.16672246158123016 0.07026618719100952
v -0.2170347273349762 0.0493180938065052 -0.1398097425699234
v -0.13024145364761353 -0.003319590352475643 0.021515030413866043
v 0.02326556295156479 0.07309968769550323 0.1569674164056778
v 0.003717370331287384 0.05775070935487747 -0.19573792815208435
v 0.16630591452121735 -0.13523279130458832 -0.009997096844017506
v -0.20801185071468353 0.22272561490535736 -0.13910098373889923
v -0.14507904648780823 -0.23083990812301636 -0.1396598368883133
v -0.04205473139882088 -0.10124414414167404 -0.2047307789325714
v -0.05344671756029129 0.10994692891836166 0.1372227966785431
v -0.08098742365837097 0.04343200474977493 0.07378242164850235
v 0.17986078560352325 -0.1421249359846115 0.008594872429966927
v 0.03582703694701195 -0.12622204422950745 -0.14911213517189026
v 0.1066424772143364 0.16899406909942627 0.11330849677324295
v -0.20033469796180725 0.2684518098831177 0.014123915694653988
v -0.0969720259308815 0.058125536888837814 -0.07392164319753647
v -0.09784998744726181 -0.20578666031360626 -0.09328889101743698
v -0.16456186771392822 -0.06798281520605087 0.02188444696366787
v -0.0010975947370752692 0.06969854235649109 -0.03131325915455818
v -0.03981295973062515 0.0045059192925691605 -0.05311775952577591
v -0.13233523070812225 0.2729812562465668 0.11529561132192612
v -0.14395810663700104 -0.1370568871498108 0.08017904311418533
v -0.11703330278396606 -0.021220916882157326 0.07152589410543442
v 0.11873901635408401 -0.017257004976272583 -0.06137089058756828
v 0.19153393805027008 -0.15424548089504242 -0.1874929964542389
v 0.10409662127494812 -0.047085460275411606 0.1832117736339569
v -0.07912051677703857 -0.004209829960018396 0.10356398671865463
v -0.3675246834754944 0.1422925889492035 0.1463221311569214
v -0.08706609159708023 -0.1148388683795929 -0.2547336518764496
v 0.11208313703536987 -0.0012416645186021924 -0.029904665425419807
v 0.14902207255363464 -0.12779740989208221 -0.10396873950958252
v 0.041204217821359634 0.059339072555303574 0.2298046499490738
v -0.1613665670156479 -0.03444785252213478 0.003518565557897091
v -0.08197664469480515 0.07611817121505737 0.03115866519510746
v 0.1000322625041008 0.03490884229540825 0.11859368532896042
v -0.2038719803094864 0.002621585037559271 0.01176055334508419
v -0.15796490013599396 -0.22920191287994385 -0.0629098191857338
v -0.22754384577274323 0.13703499734401703 -0.03127329424023628
v 0.014354178681969643 -0.053405534476041794 0.09324229508638382
v 0.009104541502892971 0.09383968263864517 0.10546578466892242
v -0.13176678121089935 0.12858211994171143 -0.12527534365653992
v -0.0870894268155098 0.01726233772933483 -0.0565703921020031
v 0.1796429306268692 -0.09773342311382294 0.1230999305844307
v -0.09602200239896774 -0.050698455423116684 -0.1282118558883667
v -0.06911887973546982 -0.037176311016082764 0.16980449855327606
v -0.15044616162776947 0.022849710658192635 0.010792943648993969
v -0.20004773139953613 0.16681067645549774 -0.26949387788772583
v -0.01299603097140789 -0.16361317038536072 -0.14442571997642517
v -0.03717068210244179 -0.026587175205349922 -0.05712899565696716
v -0.1372319608926773 -0.0009375936351716518 0.2455654889345169
v 0.2898673713207245 -0.04524810612201691 0.002774392254650593
v -0.1636873036623001 0.25794517993927 -0.11859489977359772
v 0.13354480266571045 -0.11769209802150726 0.02775544673204422
v -0.14642319083213806 -0.1200592964887619 -0.07902935892343521
v -0.11044676601886749 0.1948327273130417 -0.024837296456098557
v -0.022052554413676262 -0.04485800489783287 0.11040401458740234
v -0.12081008404493332 -0.028855934739112854 -0.15469694137573242
v -0.07722984254360199 0.21280120313167572 0.1462562382221222
v 0.16021183133125305 -0.0742187425494194 -0.05778256431221962
v -0.028240464627742767 0.014592346735298634 0.07153663039207458
v 0.12830820679664612 0.007648643106222153 -0.09382852166891098
v -0.14093299210071564 0.08063650876283646 -0.17406152188777924
v -0.21175765991210938 0.11606460809707642 -0.06854034215211868
v 0.17949150502681732 -0.07669652998447418 -0.02251756750047207
v 0.08664567768573761 -0.06613567471504211 0.1830790936946869
v -0.14578917622566223 -0.2595977485179901 0.04515223950147629
v -0.10794685781002045 0.0014104124857112765 -0.06558096408843994
v 0.03607581555843353 -0.001755734090693295 -0.11071281135082245
v 0.002169567858800292 -0.04085787013173103 0.15852686762809753
v 0.1037280410528183 -0.02679031901061535 -0.13638347387313843
v -0.07477438449859619 0.10468586534261703 -0.14816388487815857
v 0.17182853817939758 -0.10063622891902924 -0.04660492762923241
v -0.09897662699222565 0.09869211167097092 -0.2204418033361435
v -0.21370454132556915 0.017446646466851234 -0.03308548405766487
v -0.0042928047478199005 0.011251560412347317 0.17030873894691467
v -0.15585601329803467 0.20419105887413025 0.04238234460353851
v -0.14350759983062744 -0.2156985104084015 -0.12779013812541962
v 0.18541333079338074 0.013035746291279793 0.2386435568332672
v 0.17048904299736023 -0.1406739503145218 0.21139085292816162
v -0.11180683225393295 -0.22414544224739075 0.11373123526573181
v 0.07433043420314789 0.021224921569228172 0.15364782512187958
v -0.10939068347215652 0.07380785793066025 -0.03581555560231209
v 0.1267435997724533 -0.027798118069767952 0.27734148502349854
v -0.14770233631134033 -0.001412584912031889 -0.24221587181091309
v 0.17922955751419067 -0.13003027439117432 -0.15056651830673218
v -0.09047022461891174 0.15028947591781616 -0.06222381070256233
v -0.12010014057159424 0.11947234719991684 -0.05276990309357643
v -0.23176969587802887 -0.1205863505601883 0.2031392753124237
v -0.024479476734995842 0.06327985972166061 0.08215878903865814
v 0.034259285777807236 0.09399339556694031 0.041803501546382904
v 0.09500538557767868 -0.15070582926273346 0.03645417466759682
v -0.06437570601701736 0.04488278552889824 -0.023224562406539917
v -0.07941664755344391 0.10375279188156128 0.03419274091720581
v -0.00505222799256444 0.12027048319578171 -0.04476087540388107
v -0.0786692425608635 0.24776732921600342 -0.04158557206392288
v -0.15799307823181152 -0.13958053290843964 0.16547447443008423
v 0.020099131390452385 0.09819350391626358 0.13404656946659088
v 0.1966499388217926 -0.12319564074277878 0.09182983636856079
v 0.06676382571458817 0.05154426023364067 -0.16358691453933716
v -0.038298241794109344 -0.08569976687431335 0.03673333302140236
v -0.11210736632347107 0.09134883433580399 -0.24435916543006897
v -0.02382003515958786 -0.05301966518163681 -0.05243387073278427
v 0.028310203924775124 0.0612645223736763 -0.1202457919716835
v 0.0058249677531421185 0.0580163300037384 0.0313202328979969
v 0.14669744670391083 0.027297690510749817 0.1478293389081955
v 0.03357283025979996 -0.012977472506463528 -0.08639852702617645
v -0.08753389120101929 0.014372257515788078 -0.20722593367099762
v 0.10521678626537323 -0.1951950043439865 0.030991021543741226
v -0.1105768084526062 0.006682149600237608 -0.1509205847978592
v 0.12384261935949326 -0.1611097753047943 0.07291878014802933
v -0.10430227220058441 -0.007687254808843136 -0.036335136741399765
v 0.22209365665912628 0.005296653136610985 0.043965261429548264
v 0.02903991937637329 -0.0779099389910698 0.10032001882791519
v -0.15863411128520966 -0.0022717914544045925 -0.1286233365535736
v -0.05037693679332733 0.0409996323287487 -0.06404776126146317
v 0.03086637705564499 0.020794250071048737 0.06254840642213821
v 0.10212995857000351 -0.13168498873710632 0.07654190808534622
v 0.21025961637496948 -0.06560118496417999 -0.03541099280118942
v -0.04787526652216911 -0.008187062107026577 -0.17456385493278503
v 0.16131062805652618 0.004499555099755526 0.04397733882069588
v 0.07410696893930435 0.34368896484375 -0.14972907304763794
v -0.10083942115306854 0.050632327795028687 -0.15717516839504242
v -0.044135089963674545 0.08751092106103897 -0.2010507732629776
v -0.1869996339082718 -0.2120625078678131 -0.056008752435445786
v -0.16618452966213226 0.02781834453344345 0.11483656615018845
v -0.2312064915895462 -0.012411331757903099 -0.1962248980998993
v -0.15584497153759003 0.0008562427246943116 -0.020255452021956444
v -0.20079272985458374 0.12571202218532562 0.18238507211208344
v -0.00552316103130579 0.15240024030208588 0.33678439259529114
v -0.16610309481620789 -0.2750224173069 -0.04094398021697998
v 0.05149921029806137 -0.16089323163032532 -0.08351068198680878
v 0.020816396921873093 -0.16131307184696198 -0.2911962568759918
v 0.1492438167333603 -0.13451212644577026 0.13612842559814453
v 0.043907616287469864 -0.06514663249254227 -0.23674850165843964
v -0.10760904848575592 0.0924474447965622 -0.13043330609798431
v 0.10943709313869476 -0.05951791629195213 -0.04609663411974907
v 0.07443643361330032 -0.10585460066795349 -0.11428849399089813
v 0.13658744096755981 -0.12736782431602478 -0.21722348034381866
v 0.0836261585354805 -0.13410687446594238 -0.0640750527381897
v -0.007717011962085962 -0.19295211136341095 -0.23800361156463623
v -0.06995789706707001 -0.09420979768037796 0.09073946624994278
v -0.1523681879043579 0.002586721908301115 -0.02735641784965992
v -0.13086813688278198 0.004220351576805115 -0.019541526213288307
v -0.12967364490032196 0.006340861786156893 0.12356334179639816
v 0.10867271572351456 0.09387046098709106 0.154239684343338
v 0.15517620742321014 -0.04717712476849556 -0.07810582965612411
v -0.11211206763982773 -0.09887661784887314 -0.1740351915359497
v 0.052340976893901825 0.0076785460114479065 0.029954563826322556
v -0.2605655789375305 0.15582354366779327 0.051062025129795074
v -0.001010890118777752 -0.1680641621351242 -0.11231525242328644
v -0.10839443653821945 0.031101353466510773 -0.02148265764117241
v -0.1620834469795227 0.20096810162067413 0.07853665202856064
v -0.04171242192387581 -0.34518757462501526 0.002337947953492403
v -0.1294569969177246 -0.14153680205345154 0.023508861660957336
v -0.057177893817424774 0.22460876405239105 0.1535496562719345
v -0.1045597568154335 0.07906468957662582 -0.03052065521478653
v -0.18670253455638885 0.21200209856033325 -0.0992172360420227
v -0.07882563769817352 -0.012888879515230656 0.021122289821505547
v -0.04999411106109619 0.15871363878250122 0.25424668192863464
v 0.17239247262477875 -0.0718037337064743 0.01836470514535904
v -0.15470506250858307 -0.007938096299767494 0.03945551812648773
v 0.0516425259411335 -0.18200673162937164 -0.15101760625839233
v -0.17135043442249298 0.12776528298854828 -0.004298421088606119
v -0.1985037922859192 0.19182337820529938 -0.1417194902896881
v -0.13843198120594025 0.10672859847545624 0.062943235039711
v -0.25364241003990173 -0.2450132668018341 0.010638214647769928
v -0.05700712651014328 -0.06278866529464722 -0.12758584320545197
v -0.11193062365055084 0.0552779920399189 -0.037204474210739136
v -0.12265942990779877 0.28662049770355225 -0.07156920433044434
v -0.15473251044750214 -0.02541269175708294 0.055911045521497726
v -0.04390093311667442 -0.026048708707094193 0.09575549513101578
v -0.10662557184696198 -0.001988408388569951 -0.046873029321432114
v -0.027350086718797684 -0.010798554867506027 0.02071285806596279
v 0.057517342269420624 -0.04006554186344147 -0.1128959208726883
v -0.08460009098052979 0.026313936337828636 0.05411919578909874
v -0.15044747292995453 0.08937252312898636 0.06709590554237366
v -0.160365030169487 0.1089644581079483 -0.16117243468761444
v 0.1991211622953415 -0.1417205035686493 0.23421266674995422
v -0.05918186157941818 0.01092278491705656 -0.14212000370025635
v -0.14014193415641785 -0.021453674882650375 -0.07661686092615128
v -0.04791875183582306 0.07963877171278 0.00573939410969615
v 0.10443878173828125 0.33119189739227295 -0.15142646431922913
v -0.09781159460544586 -0.10170095413923264 0.04224120080471039
v -0.14391794800758362 0.2836362421512604 0.11295139044523239
v 0.17373035848140717 -0.22651195526123047 0.12750519812107086
v -0.06930890679359436 -0.03095236048102379 -0.07458386570215225
v -0.09837449342012405 0.145182266831398 0.12176898866891861
v -0.12928436696529388 0.04426199570298195 -0.1845558136701584
v -0.06408633291721344 0.01180124469101429 -0.0802120640873909
v 0.09301749616861343 -0.24464431405067444 0.10106345266103745
v -0.08994234353303909 0.06594991683959961 -0.00172617647331208
v 0.16937774419784546 -0.03797995671629906 -0.17656363546848297
v -0.1590227633714676 0.39169102907180786 0.06456498801708221
v 0.11456874758005142 -0.06444986164569855 0.05144523084163666
v 0.053485557436943054 -0.03112131729722023 -0.13735398650169373
v 0.08223678171634674 -0.19274958968162537 -0.13737240433692932
v -0.10483375936746597 0.017765246331691742 -0.1640789806842804
v -0.06408455967903137 0.23927482962608337 -0.02650875225663185
v 0.07205811887979507 -0.052003342658281326 -0.08191374689340591
v 0.03474658727645874 -0.20329929888248444 0.24049928784370422
v -0.054562438279390335 -0.0019234667997807264 -0.029062410816550255
v -0.009157531894743443 -0.05461844801902771 0.10873503983020782
v -0.31176504492759705 0.35207152366638184 0.019352227449417114
v 0.10206621140241623 -0.27604949474334717 -0.13401493430137634
v -0.23048974573612213 0.05127955600619316 -0.0452166348695755
v -0.08923657983541489 0.07641014456748962 0.13683804869651794
v -0.011267028748989105 -0.06603382527828217 -0.008097455836832523
v -0.15206679701805115 0.29422643780708313 -0.05442965403199196
v -0.06690032035112381 -0.0978192463517189 0.06621849536895752
v 0.2158677726984024 0.0033470680937170982 -0.38293343782424927
v 0.0739530697464943 -0.05753476545214653 -0.06336182355880737
v -0.1717686653137207 0.051667336374521255 -0.016353245824575424
v 0.1819116771221161 -0.049769558012485504 -0.07369210571050644
v -0.035118795931339264 -0.19766344130039215 -0.03012167662382126
v 0.004881794098764658 -0.11113069951534271 -0.1796283721923828
v 0.0954875722527504 -0.22451874613761902 -0.20106735825538635
v -0.09400462359189987 -0.20742076635360718 -0.20993384718894958
v -0.13970740139484406 -0.1785653531551361 -0.16007684171199799
v -0.15330928564071655 0.0671878457069397 0.02891925908625126
v 0.01841624081134796 -0.027967359870672226 -0.0656452551484108
v -0.1451818346977234 0.3126291036605835 0.04214870184659958
v 0.10328756272792816 0.015453966334462166 -0.2146388590335846
v -0.17982997000217438 0.17812679708003998 -0.09190960228443146
v 0.016385650262236595 0.11340039223432541 -0.09556040167808533
v -0.09852402657270432 0.07089908421039581 0.12689301371574402
v 0.06464415788650513 0.055315133184194565 0.11769041419029236
v 0.0448169931769371 0.21070055663585663 -0.23778080940246582
v 0.11353558301925659 -0.21529646217823029 0.024554230272769928
v -0.09522685408592224 0.018181728199124336 0.20152390003204346
v -0.05024907737970352 0.3045586347579956 -0.03250844404101372
v 0.17023541033267975 -0.05262278765439987 0.07545556128025055
v -0.1457081437110901 0.3812069892883301 -0.0020795874297618866
v -0.06819353997707367 -0.014347155578434467 0.1506146341562271
v -0.11898014694452286 -0.004199488554149866 -0.06437769532203674
v -0.021003620699048042 0.16401349008083344 0.22440922260284424
v 0.20186518132686615 -0.14092625677585602 0.04950353503227234
v -0.060438111424446106 -0.059107456356287 0.07480599731206894
v 0.14678485691547394 -0.06273593753576279 -0.048962682485580444
v -0.22010982036590576 0.38267281651496887 -0.22680136561393738
v 0.11126488447189331 -0.18623924255371094 -0.02994593046605587
v -0.13806819915771484 0.27035385370254517 -0.09588341414928436
v -0.06708420068025589 -0.20860594511032104 -0.09229172021150589
v 0.1681964248418808 -0.28110525012016296 -0.15295016765594482
v -0.014169272035360336 -0.006503963842988014 0.04362388700246811
v -0.1573769748210907 0.2302083969116211 0.07420602440834045
v -0.0993943139910698 0.05502137914299965 0.21780753135681152
v -0.13991926610469818 -0.062182944267988205 0.12003709375858307
v -0.06668777018785477 -0.0364404134452343 -0.06814601272344589
v -0.03132316842675209 -0.02782263420522213 0.061151158064603806
v -0.245919868350029 0.20609799027442932 -0.20084047317504883
v -0.15838196873664856 0.06955701112747192 0.10723291337490082
v 0.19179517030715942 -0.0077162133529782295 -0.03267773613333702
v 0.0973360687494278 -0.09846064448356628 0.16637809574604034
v 0.08381808549165726 -0.028186945244669914 -0.0749497190117836
v 0.01947794295847416 0.17529989778995514 0.1866714358329773
v 0.05522267520427704 -0.10106799006462097 0.09146834164857864
v 0.08447709679603577 -0.08008930832147598 0.07908529043197632
v -0.035146113485097885 0.022190745919942856 -0.0032079918310046196
v -0.15476787090301514 0.06932254880666733 -0.09855559468269348
v -0.11750245839357376 0.14636565744876862 -2.6181951398029923e-05
v -0.07529676705598831 0.08191149681806564 -0.04463237151503563
v -0.17599405348300934 -0.19413897395133972 -0.06808054447174072
v -0.16798420250415802 0.31801891326904297 -0.15429751574993134
v -0.16221311688423157 0.25450399518013 -0.06955715268850327
v -0.11370962113142014 0.02936609834432602 0.03978236764669418
v -0.12568295001983643 0.1375359296798706 -0.05298799276351929
v -0.18664368987083435 0.2737986147403717 -0.02382306568324566
v -0.09050005674362183 -0.011559003964066505 -0.06370657682418823
v 0.06274855881929398 -0.027410458773374557 -0.0417821891605854
v 0.09661008417606354 -0.11580035090446472 -0.010330270044505596
v -0.31820744276046753 -0.055013787001371384 -0.14628608524799347
v -0.1457914263010025 0.3348458409309387 -0.05283509939908981
v -0.13863715529441833 0.39443930983543396 -0.12225420773029327
v 0.02409932017326355 -0.060234345495700836 0.05371988192200661
v 0.019856885075569153 0.004518685396760702 0.14508014917373657
v -0.11284331977367401 0.16768261790275574 0.20854739844799042
v -0.11209149658679962 0.3190614581108093 -0.119343601167202
v 0.025669457390904427 -0.0007866649539209902 0.02878539077937603
v 0.12507273256778717 0.030605321750044823 0.1800311952829361
v -0.07879674434661865 -0.09824522584676743 0.04830693081021309
v -0.028091004118323326 0.2767165005207062 0.07887240499258041
v -0.02331620268523693 0.022284962236881256 0.07482097297906876
v -0.11297167837619781 0.1601143479347229 0.14593318104743958
v -0.14780688285827637 0.040137358009815216 0.16231165826320648
v 0.27418678998947144 -0.2621130347251892 0.056539155542850494
v -0.17992989718914032 0.13266876339912415 -0.14880327880382538
v -0.04663850739598274 0.2610616683959961 -0.09341965615749359
v -0.23263980448246002 0.33644673228263855 0.24000556766986847
v 0.01858782209455967 -0.02550077624619007 0.07831697165966034
v 0.11645597219467163 -0.017897479236125946 -0.030972953885793686
v -0.06647592782974243 -0.1499910205602646 -0.1453266441822052
v -0.17041081190109253 0.08184395730495453 0.11154967546463013
v 0.05440429598093033 -0.0944230854511261 0.10236755758523941
v 0.1279410719871521 0.04510461911559105 -0.04803797975182533
v -0.010605227202177048 -0.10259519517421722 0.17427612841129303
v -0.24798159301280975 0.17102694511413574 -0.060326553881168365
v -0.10669489204883575 0.20906585454940796 -0.3412854075431824
v 0.020698586478829384 0.09208857268095016 -0.17187245190143585
v 0.03848928585648537 -0.13769890367984772 0.12811410427093506
v 0.13378611207008362 0.18627135455608368 -0.20049415528774261
v -0.26089152693748474 0.2149764597415924 -0.10160978138446808
v -0.11319596320390701 0.117156982421875 0.021450692787766457
v -0.026342663913965225 0.04384458810091019 -0.03174722567200661
v -0.10117281973361969 0.02214043401181698 -0.05077666416764259
v -0.12144524604082108 0.32912352681159973 -0.011155460961163044
v -0.1077883169054985 0.102423757314682 -0.10917492210865021
v 0.11110199987888336 -0.2177446484565735 0.04061056673526764
v -0.13826026022434235 0.10529067367315292 0.13050530850887299
v 0.10375162959098816 0.04318982735276222 -0.25838398933410645
v 0.08872998505830765 -0.1525803953409195 0.011688190512359142
v -0.13966770470142365 -0.05147506296634674 -0.008677177131175995
v 0.016309965401887894 0.10700345039367676 -0.0045837657526135445
v 0.015851272270083427 0.1211434081196785 0.20660176873207092
v -0.22187258303165436 0.1838838905096054 0.05695318803191185
v 0.035802386701107025 -0.013987927697598934 0.03211164474487305
v -0.16674630343914032 0.24512696266174316 0.0706324428319931
v -0.0005236059078015387 0.3508181869983673 0.07983235269784927
v 0.0577443391084671 -0.0320209339261055 -0.08165042102336884
v -0.1406819075345993 0.14198800921440125 0.1509101837873459
v -0.03183925151824951 0.041921257972717285 -0.08119760453701019
v -0.15268810093402863 -0.008267472498118877 -0.15233269333839417
v 0.17333903908729553 -0.016639336943626404 -0.10896502435207367
v -0.04942459985613823 0.1576995849609375 0.04930824413895607
v 0.04140210896730423 -0.047192275524139404 0.08899467438459396
v -0.015100304037332535 -0.13030076026916504 0.20455621182918549
v 0.10716959834098816 -0.03365683928132057 0.002760319272056222
v 0.012965943664312363 0.12852415442466736 0.0879216268658638
v 0.0321953147649765 -0.04134083911776543 -0.03779187798500061
v -0.21765094995498657 -0.020274480804800987 -0.04484650865197182
v -0.027757668867707253 0.04198640584945679 -0.06489480286836624
v -0.08668410778045654 0.0383392795920372 0.2324092835187912
v 0.2250278741121292 -0.1663702428340912 -0.11299038678407669
v -0.14306925237178802 0.25755995512008667 0.19280005991458893
v -0.08287516236305237 0.03929968178272247 -0.005315536633133888
v -0.25028395652770996 0.022475792095065117 -0.21237428486347198
v -0.05974051356315613 -0.05991370230913162 0.06177052482962608
v -0.11613607406616211 0.10052333027124405 0.15538299083709717
v 0.004804930184036493 -0.2046125829219818 -0.03777230903506279
v -0.025436408817768097 -0.026507796719670296 -0.061535123735666275
v -0.1320784091949463 0.2541387975215912 -0.1315787136554718
v -0.032944995909929276 -0.04607665538787842 0.11233296990394592
v 0.07647418230772018 -0.0725526288151741 0.04808681830763817
v -0.13686348497867584 -0.15252912044525146 0.024121291935443878
v 0.0373697392642498 0.004559216555207968 0.1015544980764389
v -0.1672343611717224 -0.256192684173584 -0.16902664303779602
v -0.1232592910528183 0.18545831739902496 0.00015118836017791182
v -0.09016583859920502 0.3045644760131836 0.04131614789366722
v 0.03097667172551155 -0.11504238843917847 -0.12028800696134567
v -0.07630414515733719 0.18703730404376984 -0.1095205545425415
v -0.1589236557483673 0.42587748169898987 -0.07359018921852112
v -0.017640093341469765 0.058232299983501434 0.2077491581439972
v -0.07944592088460922 0.0699169933795929 -0.08318357914686203
v 0.0877586305141449 0.0004930373979732394 -0.10833863168954849
v -0.033328332006931305 -0.1041630208492279 -0.04528933763504028
v 0.16088977456092834 -0.033139582723379135 -0.14324654638767242
v -0.2080971747636795 0.2776743471622467 -0.043070051819086075
v -0.018916068598628044 0.10011983662843704 0.17609772086143494
v -0.04052954539656639 -0.05034497380256653 -0.04099917411804199
v -0.14212770760059357 -0.3658207952976227 -0.046324316412210464
v 0.039636943489313126 -0.025370946153998375 0.09373658150434494
v -0.16609850525856018 0.3596680462360382 0.03101269342005253
v -0.03354343771934509 -0.1076122522354126 0.3142448961734772
v -0.11152466386556625 0.09174420684576035 -0.06881409883499146
v -0.13321995735168457 -0.007790755946189165 0.2261103391647339
v -0.0858854129910469 0.13792641460895538 0.0017684095073491335
v 0.059480927884578705 -0.1621471643447876 -0.06477680057287216
v -0.05412621051073074 -0.014959609135985374 0.04609990119934082
v -0.041881442070007324 -0.055667612701654434 0.14169061183929443
v 0.178148090839386 0.041441887617111206 -0.09068530052900314
v -0.10497068613767624 -0.03355053812265396 -0.05778505653142929
v -0.09864328801631927 0.2692159116268158 -0.14506004750728607
v 0.018524080514907837 0.039032481610774994 -0.008072602562606335
v -0.07556547969579697 -0.05196909233927727 0.026832884177565575
v -0.11502224206924438 -0.10663101077079773 0.21499037742614746
v -0.08030665665864944 0.1986963003873825 -0.19032104313373566
v -0.08644399046897888 0.14740215241909027 -0.23314937949180603
v 0.020171035081148148 0.11191865801811218 0.16449348628520966
v 0.0907721146941185 -0.014311528764665127 -0.09720515459775925
v -0.18910275399684906 0.144799143075943 -0.070154570043087
v 0.04114000126719475 -0.033093396574258804 0.1918921321630478
v -0.18353301286697388 0.39780595898628235 0.1137276366353035
v -0.07739361375570297 -0.1428605318069458 0.02557850256562233
v -0.199294775724411 0.30541539192199707 0.06557506322860718
v -0.16515514254570007 0.3437124490737915 0.09534947574138641
v -0.14971166849136353 0.06690750271081924 -0.14860422909259796
v -0.13835760951042175 0.1732003092765808 0.14539901912212372
v -0.09941781312227249 -0.23422715067863464 0.17714443802833557
v 0.12709997594356537 -0.12593233585357666 0.20299755036830902
v 0.12698723375797272 -0.04368405044078827 0.17945636808872223
v 0.09158007800579071 0.05133849382400513 -0.010573668405413628
v 0.1980631798505783 -0.19751209020614624 -0.07360495626926422
v -0.1989741027355194 -0.24416019022464752 -0.19864606857299805
v -0.33211565017700195 0.2760658264160156 0.03398669883608818
v 0.026934156194329262 -0.06603674590587616 0.10715223848819733
v -0.027157558128237724 0.19830265641212463 -0.11858166009187698
v -0.21372123062610626 0.3869137465953827 -0.13852781057357788
v -0.0810404047369957 0.24598154425621033 -0.0455833338201046
v -0.16410282254219055 0.13564369082450867 0.07996643334627151
v 0.35697656869888306 0.018007073551416397 -0.04616707190871239
v 0.09654386341571808 -0.07355833798646927 -0.08482015132904053
v 0.19736000895500183 -0.09901975095272064 0.15453501045703888
v 0.007980181835591793 -0.01756666786968708 -0.039341412484645844
v -0.07819034159183502 -0.037610940635204315 0.11119398474693298
v -0.026383215561509132 0.14037632942199707 -0.036389343440532684
v -0.1628766804933548 0.05869963392615318 -0.06207052618265152
v 0.03965451195836067 -0.34519657492637634 0.0946834534406662
