# Vertices: 512

v -0.15335999429225922 0.3577236533164978 0.01842322014272213
v -0.1459064781665802 0.17261551320552826 0.08721742033958435
v -0.16429577767848969 0.07761480659246445 0.02654639445245266
v 0.213999941945076 -0.015912843868136406 -0.12813909351825714
v -0.14116208255290985 0.10684443265199661 -0.1410752534866333
v -0.16828197240829468 0.019501030445098877 0.007152510341256857
v 0.005772031378000975 -0.016901394352316856 0.13047310709953308
v -0.23324933648109436 0.008519574999809265 -0.06777144968509674
v -0.04860910028219223 0.10532288998365402 0.07433011382818222
v -0.09748540818691254 -0.09108099341392517 0.06345200538635254
v 0.08046547323465347 -0.15767788887023926 -0.002250641118735075
v -0.06730899214744568 -0.13289406895637512 -0.16077420115470886
v -0.15347552299499512 -0.002566367154940963 0.1796017587184906
v -0.054195232689380646 -0.3941742777824402 0.18725800514221191
v 0.11010947078466415 -0.05299539119005203 0.051497552543878555
v -0.061986085027456284 0.07988931983709335 -0.10507889091968536
v 0.002605003071948886 0.03580084070563316 -0.08857332170009613
v -0.13775186240673065 0.2636511027812958 -0.12011143565177917
v -0.023466726765036583 -0.002197947585955262 -0.018465636298060417
v -0.20819613337516785 0.14927156269550323 0.1859814077615738
v -0.011118518188595772 -0.2281036078929901 0.1581885665655136
v 0.14442937076091766 -0.17312312126159668 0.10084037482738495
v -0.006572853773832321 0.055630434304475784 0.13751284778118134
v 0.11843384057283401 -0.4088036119937897 -0.0052350545302033424
v -0.0823441669344902 -0.19734564423561096 -0.11365898698568344
v 0.11725711822509766 -0.1920146644115448 0.06773534417152405
v 0.13126523792743683 -0.012966989539563656 0.20115847885608673
v 0.06081094592809677 -0.05012954771518707 -0.058159682899713516
v -0.2301691323518753 0.3347775638103485 -0.006786196492612362
v 0.12256227433681488 -0.02407626062631607 -0.03400315344333649
v -0.04843680560588837 0.004767578560858965 0.20766034722328186
v -0.1697051227092743 0.3052527606487274 0.04516097903251648
v -0.0165171530097723 -0.03403087332844734 0.007333960849791765
v -0.18967074155807495 0.28050270676612854 0.06537818163633347
v 0.11559557169675827 -0.022264638915657997 0.1550467163324356
v -0.16706432402133942 0.021909749135375023 0.17614807188510895
v -0.1560925990343094 0.0475875586271286 -0.25085511803627014
v -0.028221841901540756 0.001128030358813703 -0.14535142481327057
v -0.02847127430140972 -0.14235468208789825 -0.17739057540893555
v 0.1271745264530182 -0.10556669533252716 -0.16263903677463531
v -0.22515234351158142 -0.10475089401006699 0.22738508880138397
v -0.11322187632322311 0.35085758566856384 0.10252741724252701
v -0.07239387184381485 -0.0858277976512909 0.15841776132583618
v -0.2503317892551422 -0.1676100641489029 -0.07850775122642517
v 0.07454067468643188 -0.07464433461427689 -0.1318245381116867
v 0.1410958617925644 -0.0325346477329731 0.09197951853275299
v -0.11271671205759048 0.04177596792578697 0.0017736894078552723
v -0.08325579017400742 0.06859224289655685 0.025394409894943237
v -0.18265894055366516 0.1948666125535965 -0.0765889510512352
v -0.1971178650856018 0.05213867500424385 -0.042798906564712524
v 0.20833469927310944 -0.07581190764904022 0.08417154103517532
v 0.04980982840061188 0.07145089656114578 0.008358706720173359
v -0.1508764773607254 0.21161460876464844 -0.04755285009741783
v -0.19807910919189453 0.27920007705688477 0.03486984968185425
v -0.14823459088802338 0.11696809530258179 -0.13944195210933685
v -0.10056358575820923 -0.10587660223245621 -0.17503726482391357
v -0.13137979805469513 -0.37640491127967834 0.035604387521743774
v -0.10556405037641525 0.03125884011387825 -0.0891697108745575
v -0.016614606603980064 0.04100830480456352 0.011462699621915817
v -0.09175776690244675 0.03150790557265282 -0.15331512689590454
v 0.06060906499624252 0.016589652746915817 0.1183772087097168
v -0.13015395402908325 0.2850944399833679 -0.05397491529583931
v 0.03374326974153519 -0.21927222609519958 -0.20014256238937378
v 0.17216609418392181 0.1304488182067871 -0.002848056610673666
v -0.11838199198246002 0.03307296335697174 -0.11220840364694595
v -0.1864573359489441 0.21629206836223602 -0.13738493621349335
v -0.0016815968556329608 0.07822207361459732 -0.1294040083885193
v -0.19670157134532928 0.29789969325065613 0.09699594229459763
v -0.10916024446487427 0.05085111781954765 0.013763238675892353
v -0.16288839280605316 0.4292501211166382 -0.04853427782654762
v -0.010099588893353939 -0.13165344297885895 0.0827067643404007
v -0.16771972179412842 0.269845575094223 -0.062143146991729736
v -0.04948830604553223 -0.05723775923252106 -0.11079409718513489
v -0.0051927887834608555 0.022889282554388046 -0.012087162584066391
v 0.10897292196750641 -0.06211236119270325 -0.1829780638217926
v 0.14496587216854095 -0.06066175550222397 0.040262363851070404
v -0.04431014135479927 0.1366005837917328 0.036641743034124374
v 0.08179568499326706 -0.04666513577103615 -0.025648338720202446
v -0.15258018672466278 0.12307050079107285 -0.044724900275468826
v -0.17316223680973053 -0.012079892680048943 0.16798382997512817
v -0.18542282283306122 0.09487985819578171 0.1931115984916687
v 0.1945037543773651 0.008017745800316334 0.050870224833488464
v -0.20278193056583405 0.2895699739456177 0.06514402478933334
v -0.12174805998802185 -0.11644156277179718 -0.1789558082818985
v 0.20232544839382172 0.028127212077379227 -0.12301944196224213
v -0.16810521483421326 0.21208754181861877 0.02658766694366932
v -0.10726232826709747 -0.25667810440063477 0.02060701698064804
v -0.1969490796327591 0.16194021701812744 0.1911332756280899
v -0.07100436836481094 -0.02205338515341282 0.1465539038181305
v -0.023534834384918213 0.09732180088758469 -0.1268821805715561
v -0.0022713406942784786 0.06361624598503113 0.08609636127948761
v -0.17829151451587677 0.40905994176864624 0.04280231148004532
v -0.07851854711771011 0.01661631092429161 -0.13927869498729706
v -0.09954594075679779 0.06781709939241409 -0.01207954715937376
v -0.15825971961021423 0.20597198605537415 0.02390642650425434
v -0.11329720914363861 0.2932594120502472 -0.015058687888085842
v -0.06123180687427521 -0.16851040720939636 -0.13423797488212585
v -0.10959750413894653 0.09358548372983932 -0.0006264436524361372
v -0.12320513278245926 -0.18110740184783936 -0.027464844286441803
v 0.010755334980785847 -0.06114013493061066 -0.07238944619894028
v -0.1329134851694107 0.2861199378967285 -0.10506243258714676
v -0.12166845053434372 0.17550870776176453 0.07401708513498306
v 0.05491750314831734 -0.034187640994787216 -0.20339787006378174
v -0.04117216542363167 -0.0007130204467102885 0.1076735258102417
v 0.004366581793874502 -0.10047074407339096 0.20162884891033173
v 0.09338950365781784 -0.01818428933620453 -0.06744109839200974
v 0.19090451300144196 -0.1989353895187378 -0.2281636893749237
v 0.017999395728111267 0.030418530106544495 0.14318956434726715
v -0.16819700598716736 0.08191228657960892 0.17797571420669556
v -0.15426091849803925 0.21726498007774353 0.01793152466416359
v 0.08293244987726212 -0.09267106652259827 0.18670117855072021
v -0.04351508244872093 0.010837805457413197 0.037007931619882584
v -0.13268090784549713 -0.12994669377803802 0.15540090203285217
v -0.17885932326316833 0.03644486516714096 -0.1863187700510025
v -0.048734188079833984 0.02797301486134529 0.04394879937171936
v 0.016344312578439713 0.0015931358793750405 0.03726297244429588
v -0.21610940992832184 -0.02813565917313099 0.2415722906589508
v 0.13358953595161438 -0.028439074754714966 -0.17550794780254364
v -0.19414006173610687 0.23819614946842194 -0.15978625416755676
v 0.05735137313604355 0.021978765726089478 -0.10799888521432877
v -0.13986672461032867 0.08858247846364975 -0.047017745673656464
v -0.07184215635061264 0.08814095705747604 0.0798296183347702
v 0.030477052554488182 -0.19845299422740936 -0.052743226289749146
v -0.0996473953127861 0.023295044898986816 -0.1341969072818756
v 0.14752759039402008 -0.1414334774017334 -0.13057412207126617
v 0.1037478968501091 -0.07625997811555862 0.13801437616348267
v 0.15862426161766052 -0.39226073026657104 -0.060720134526491165
v -0.1642448902130127 0.08922700583934784 0.13211193680763245
v 0.06770216673612595 -0.02755381166934967 0.18632560968399048
v -0.1412992626428604 0.25809621810913086 0.061257876455783844
v 0.05586235597729683 0.005605809856206179 0.08509109914302826
v -0.06091166287660599 0.12489821761846542 -0.15397411584854126
v -0.12330823391675949 0.018915805965662003 0.03329167515039444
v -0.15792293846607208 -0.03481190279126167 0.005355979781597853
v -0.10894360393285751 -0.10133234411478043 0.026624519377946854
v -0.12653765082359314 0.03746332600712776 0.13747158646583557
v -0.1808326691389084 0.10397215187549591 0.019535893574357033
v -0.07933950424194336 0.17676950991153717 -0.03459784388542175
v -0.19497551023960114 0.18550589680671692 -0.09102164208889008
v -0.06983906030654907 -0.17872361838817596 0.06856856495141983
v -0.0768439918756485 0.01698649488389492 -0.12650473415851593
v 0.12363385409116745 -0.08113601058721542 -0.05121258646249771
v -0.19501398503780365 0.11819333583116531 0.03774034231901169
v -0.08793628215789795 0.008164954371750355 -0.06313586980104446
v 0.20732633769512177 -0.04225495085120201 0.008928217925131321
v -0.0671241357922554 -0.08793416619300842 -0.1029418334364891
v -0.18105757236480713 0.34341102838516235 0.03429257497191429
v -0.1654026061296463 0.13390745222568512 -0.2020835131406784
v -0.018631543964147568 0.10574734956026077 0.20413826406002045
v -0.055207692086696625 -0.081139475107193 0.001562421559356153
v -0.1570957601070404 -0.15005484223365784 0.06077343225479126
v -0.11460114270448685 0.21649008989334106 0.0767669677734375
v 0.22941267490386963 -0.08953419327735901 0.17188920080661774
v -0.04402114450931549 0.018618758767843246 -0.040841370820999146
v 0.14705099165439606 0.02402144856750965 -0.11728445440530777
v 0.1566249579191208 -0.02652946673333645 0.06107686087489128
v -0.09559781849384308 -0.1313556581735611 0.14075663685798645
v 0.12115874141454697 0.03923933580517769 0.10508240759372711
v 0.2230166643857956 -0.028850870206952095 0.015163974836468697
v -0.14505219459533691 0.05170032009482384 -0.03240770474076271
v 0.19715914130210876 -0.18183687329292297 -0.24304792284965515
v -0.25746995210647583 0.37068629264831543 0.15354515612125397
v -0.15275144577026367 -0.05543186888098717 -0.16417591273784637
v -0.1605301946401596 0.18804624676704407 0.013268893584609032
v 0.038668569177389145 -0.033779680728912354 -0.03144361078739166
v -0.1541285365819931 0.26721110939979553 -0.092037133872509
v -0.16582027077674866 0.24654166400432587 0.10930494219064713
v -0.15801727771759033 0.20876377820968628 -0.10098329186439514
v 0.07647985965013504 -0.16669422388076782 0.12685014307498932
v -0.21977734565734863 0.13811208307743073 -0.020905325189232826
v -0.03126801177859306 0.05033545568585396 -0.0995543822646141
v 0.07352206856012344 -0.06452225893735886 -0.11597368866205215
v 0.04177648574113846 0.15387074649333954 -0.1419256031513214
v -0.20967544615268707 -0.05149456858634949 -0.11338227242231369
v 0.11132660508155823 0.08101674914360046 -0.1463894546031952
v -0.09012255817651749 0.15874353051185608 0.06734102964401245
v 0.19141915440559387 -0.312791645526886 0.07822193950414658
v -0.13165506720542908 0.2234492301940918 0.03774026408791542
v -0.15585987269878387 0.25620320439338684 0.0010949310380965471
v -0.10020628571510315 0.024386677891016006 -0.1503923237323761
v 0.17173168063163757 -0.17284001410007477 0.06569183617830276
v -0.1497010886669159 0.17692577838897705 -0.006513469386845827
v -0.14107829332351685 -0.025270596146583557 -0.1142183467745781
v -0.15800052881240845 0.2386167347431183 -0.14687196910381317
v 0.09184079617261887 -0.33900216221809387 -0.014794197864830494
v -0.15801846981048584 -0.03142455220222473 -0.10672715306282043
v -0.12728652358055115 -0.011869428679347038 -0.07954000681638718
v -0.12966983020305634 -0.0009596001473255455 0.0805131271481514
v -0.1376313418149948 0.09454703330993652 0.1311814934015274
v -0.11747746169567108 0.018247094005346298 -0.02391679957509041
v 0.08079618960618973 -0.015111059881746769 0.1417415589094162
v -0.12103141844272614 0.22206662595272064 0.07255297899246216
v -0.03405269607901573 0.04552451893687248 0.19593650102615356
v 0.10933376848697662 -0.13709302246570587 -0.07201132923364639
v -0.12979786098003387 -0.26859763264656067 0.059410639107227325
v -0.100619837641716 -0.24142491817474365 0.1655292958021164
v 0.06254690140485764 0.05767744034528732 -0.14236436784267426
v -0.12460590153932571 0.15147240459918976 -0.24772199988365173
v 0.10787709802389145 -0.018621673807501793 -0.025602685287594795
v -0.19749683141708374 0.3159332275390625 -0.08097574859857559
v -0.11050534248352051 0.04624326154589653 -0.08871946483850479
v -0.07519271969795227 0.049476396292448044 -0.0217154398560524
v -0.11205781251192093 -0.0025397357530891895 -0.059369299560785294
v -0.1584448665380478 0.2707233130931854 0.2123117595911026
v -0.1057240217924118 0.020651737228035927 0.03879465535283089
v 0.12498761713504791 0.018876908347010612 0.058479830622673035
v -0.1323353797197342 -0.1938273012638092 0.10113739222288132
v -0.16743627190589905 0.1864667385816574 0.11132147163152695
v 0.034000214189291 -0.08779072016477585 0.11012755334377289
v -0.23675072193145752 0.07506514340639114 0.002880796557292342
v -0.11759034544229507 0.12937603890895844 -0.11660724133253098
v -0.0769055113196373 -0.0017698440933600068 0.1120811328291893
v -0.07084774225950241 0.04931928589940071 -0.003413069760426879
v -0.054058242589235306 0.03929528594017029 0.16051718592643738
v 0.15363410115242004 0.00011578098201425746 0.09426585584878922
v -0.10630014538764954 0.007363930810242891 0.06550353765487671
v -0.1798793375492096 0.25089141726493835 -0.021792640909552574
v 0.1198873519897461 -0.36538830399513245 0.09580560773611069
v 0.1590701937675476 -0.05188262462615967 0.14513686299324036
v -0.14259260892868042 0.08439663052558899 0.1340322047472
v -0.11581391096115112 -0.0485663041472435 0.11666088551282883
v 0.18233899772167206 -0.14186467230319977 0.028107142075896263
v -0.16708263754844666 0.20889820158481598 0.16708572208881378
v 0.14400528371334076 -0.069368876516819 0.015710867941379547
v 0.15665332973003387 -0.36913466453552246 -0.20969945192337036
v -0.20011262595653534 0.2291799783706665 -0.037817247211933136
v -0.0931348130106926 0.0037923550698906183 -0.08490902930498123
v -0.0064056809060275555 0.00425629923120141 0.08161506056785583
v -0.3007737100124359 0.10977255553007126 0.13639891147613525
v -0.18285934627056122 0.37819403409957886 0.10656166076660156
v 0.0423470214009285 0.03921366482973099 -0.04681328684091568
v 0.006885884795337915 -0.07640818506479263 -0.15230602025985718
v 0.0991264283657074 0.002438765484839678 -0.035011205822229385
v 0.1603390872478485 0.17205539345741272 0.039653658866882324
v -0.2517264783382416 0.11430320888757706 -0.1348627656698227
v 0.16522802412509918 -0.0413271002471447 -0.19321006536483765
v -0.23284663259983063 0.11340989917516708 0.025595080107450485
v 0.02583315409719944 0.07849381864070892 -0.20100067555904388
v -0.060530465096235275 -0.25329622626304626 0.013466941192746162
v -0.18438348174095154 -0.1290220022201538 0.13744990527629852
v -0.14780984818935394 0.10493186116218567 0.060169871896505356
v -0.21088667213916779 0.09704677760601044 0.1059885025024414
v -0.053522393107414246 -0.019982291385531425 -0.14207109808921814
v 0.12395264953374863 0.01008590031415224 0.11975929886102676
v -0.1357080340385437 0.019280720502138138 -0.06572236865758896
v -0.07376599311828613 -0.05332444980740547 0.05668051913380623
v 0.18812939524650574 -0.26368871331214905 -0.2254560887813568
v 0.06706147640943527 -0.07946895062923431 -0.02459641732275486
v -0.0531071275472641 0.10355747491121292 0.16342505812644958
v -0.15776073932647705 0.27528488636016846 -0.06453380733728409
v -0.13097429275512695 0.19450095295906067 0.08915580064058304
v 0.07136331498622894 0.041748449206352234 0.12432977557182312
v -0.09451774507761002 -0.07505577802658081 -0.15751555562019348
v -0.15309949219226837 0.21506351232528687 0.06515554338693619
v -0.02094278857111931 -0.022956980392336845 0.13238908350467682
v -0.11479907482862473 0.04151024669408798 0.14306648075580597
v -0.0708320140838623 0.10276493430137634 -0.058062002062797546
v -0.16095052659511566 0.3888057768344879 -0.22819331288337708
v -0.04908159747719765 0.18309277296066284 -0.18372902274131775
v -0.3008754551410675 0.07898791879415512 0.04305398464202881
v 0.12711243331432343 -0.17083407938480377 -0.135546013712883
v -0.20271359384059906 -0.26250970363616943 0.10160926729440689
v -0.19123052060604095 0.32577234506607056 0.008293253369629383
v -0.021955452859401703 -0.0941578820347786 0.16191063821315765
v -0.06995073705911636 -0.26898083090782166 0.05936597287654877
v -0.051407575607299805 0.020582038909196854 0.13539935648441315
v -0.055082328617572784 0.36940228939056396 0.00021495654073078185
v -0.18855100870132446 0.16924597322940826 0.05507231876254082
v -0.11559116840362549 0.19132280349731445 -0.21780945360660553
v 0.07377508282661438 -0.0933011993765831 0.0015473123639822006
v 0.03338170796632767 -0.03354901820421219 -0.04255901277065277
v -0.07002120465040207 0.1181185320019722 -0.06915395706892014
v -0.12857586145401 0.08108028024435043 0.11610764265060425
v -0.009581226855516434 -0.005203381180763245 -0.017535407096147537
v -0.061613067984580994 0.07679104804992676 0.12159181386232376
v -0.18427561223506927 0.25263091921806335 0.08127083629369736
v 0.04093893617391586 -0.19200631976127625 0.055194515734910965
v -0.23296381533145905 -0.015334630385041237 0.08382375538349152
v -0.11563395708799362 -0.1828618198633194 -0.2303004115819931
v -0.08654340356588364 -0.03875488415360451 -0.02440524660050869
v -0.05701681599020958 -0.15351873636245728 0.0662761852145195
v 0.15539336204528809 -0.030265992507338524 -0.10790158808231354
v -0.11239147931337357 0.03127751126885414 -0.1083112508058548
v 0.1984870284795761 -0.11995630711317062 0.1565658152103424
v -0.19855192303657532 0.12627147138118744 0.05494656786322594
v -0.0759851261973381 -0.020418498665094376 -0.1715148240327835
v 0.00784663762897253 -0.06579459458589554 0.07156509906053543
v 0.09862593561410904 -0.1803070455789566 0.052852895110845566
v -0.0005977684631943703 0.0631723403930664 -0.07700035721063614
v -0.18186324834823608 0.1582166701555252 -0.09874606877565384
v 0.06779782474040985 -0.19057407975196838 0.06426775455474854
v 0.007067593280225992 -0.06249531731009483 -0.17696383595466614
v -0.12898647785186768 0.2992458641529083 0.09382665157318115
v -0.11333535611629486 0.29285454750061035 0.06561268866062164
v -0.007785146124660969 0.0188918374478817 0.1494867503643036
v 0.11375431716442108 0.04147591069340706 -0.012588873505592346
v -0.16856062412261963 0.20494720339775085 -0.06558836996555328
v -0.17037443816661835 0.30019035935401917 -0.14863824844360352
v -0.16043835878372192 -0.04454435408115387 -0.10588902980089188
v -0.04069831222295761 -0.026505781337618828 0.04468364641070366
v -0.22021348774433136 0.2654499411582947 -0.04556816443800926
v -0.14738433063030243 -0.3476663827896118 0.038117941468954086
v 0.013726877979934216 -0.0776592344045639 -0.2272787243127823
v -0.15202341973781586 0.33760395646095276 0.069282665848732
v 0.14711833000183105 -0.06127448007464409 -0.23312760889530182
v -0.1980888396501541 -0.1541898548603058 -0.07220782339572906
v -0.1762615144252777 0.3554639518260956 0.03044234775006771
v -0.17863529920578003 0.05059191212058067 0.10676299035549164
v -0.1779075562953949 -0.05216696485877037 -0.007075541652739048
v -0.18203024566173553 0.2382373809814453 0.08065944164991379
v -0.03273956850171089 -0.011537870392203331 -0.05181841552257538
v 0.07040438801050186 -0.09443709999322891 -0.1862567961215973
v 0.04330585151910782 -0.021101638674736023 0.01348083559423685
v -0.14747631549835205 -0.07719246298074722 -0.08078321069478989
v 0.050401464104652405 -0.15862509608268738 -0.0015669690910726786
v 0.049779731780290604 0.08637569099664688 0.22790564596652985
v 0.14288632571697235 -0.2627529501914978 0.12089013308286667
v 0.15007710456848145 -0.24795280396938324 -0.07701806724071503
v -0.14410795271396637 0.032541900873184204 -0.06479444354772568
v 0.016859017312526703 -0.0118554113432765 0.13585907220840454
v -0.0846400037407875 0.26418477296829224 -0.11274690181016922
v 0.0913238450884819 -0.014831672422587872 0.18823426961898804
v 0.1302618533372879 -0.07759760320186615 -0.0013561941450461745
v 0.07725808024406433 -0.2783546447753906 -0.07873113453388214
v 0.13379792869091034 -0.06620009243488312 -0.10308887809515
v -0.13157948851585388 -0.17302429676055908 0.08449361473321915
v 0.0455230250954628 -0.18022161722183228 -0.11464914679527283
v -0.11621969938278198 -0.3764916956424713 0.054630257189273834
v 0.12250261753797531 -0.1361013501882553 0.0037956112064421177
v -0.11401310563087463 -0.025960659608244896 0.1311437338590622
v -0.029544759541749954 0.27692678570747375 0.11859842389822006
v 0.020892668515443802 -0.022280730307102203 0.11341205984354019
v -0.12965258955955505 -0.012443853542208672 -0.10011390596628189
v -0.07043684273958206 0.19858071208000183 0.08673203736543655
v -0.09784048795700073 0.23661531507968903 -0.03520957753062248
v -0.028079433366656303 0.009411063976585865 -0.1422852873802185
v 0.08371233940124512 -0.0625380203127861 0.02807324007153511
v -0.0719219222664833 -0.036161329597234726 -0.13143853843212128
v -0.022710273042321205 -0.14865097403526306 -0.023737942799925804
v 0.023629432544112206 -0.008740989491343498 0.25536826252937317
v -0.029806694015860558 -0.0009876026306301355 0.06002339720726013
v -0.120266854763031 -0.05414343252778053 -0.09333780407905579
v -0.05665402114391327 -0.05020473152399063 -0.16477802395820618
v -0.1972101777791977 -0.12022705376148224 -0.035124581307172775
v -0.15748338401317596 -0.1722928136587143 -0.012316943146288395
v -0.13956865668296814 0.18305853009223938 -0.052564818412065506
v -0.17026685178279877 0.20864085853099823 0.051378849893808365
v -0.10686173290014267 -0.004632494878023863 0.029637029394507408
v -0.20324355363845825 0.2286677211523056 0.11497852206230164
v -0.036198511719703674 -0.06177714094519615 0.06072754040360451
v -0.12944185733795166 0.017171585932374 0.05926395580172539
v 0.03333961218595505 -0.035195350646972656 0.18168024718761444
v -0.14590981602668762 -0.1825835257768631 -0.018839556723833084
v -0.07342339307069778 -0.07153548300266266 -0.2551901042461395
v -0.008309940807521343 0.2431042641401291 0.005369989201426506
v -0.003365449607372284 -0.11618960648775101 -0.11329121887683868
v 0.09755431860685349 0.00819842517375946 -0.1326967477798462
v -0.17922762036323547 0.2195809930562973 -0.11833389103412628
v -0.06005150452256203 0.07101733237504959 -0.30997759103775024
v 0.04372852295637131 -0.04197932779788971 0.0033344957046210766
v 0.0012436825782060623 -0.08605817705392838 0.04174802824854851
v -0.1046910211443901 0.005179185885936022 0.16434475779533386
v -0.2523840665817261 0.32518818974494934 0.024705708026885986
v -0.09581518918275833 0.08461670577526093 -0.12056471407413483
v -0.11753243952989578 -0.03997430577874184 -0.0030846307054162025
v 0.09977459162473679 -0.1208549439907074 -0.19160552322864532
v -0.06822555512189865 -0.030411677435040474 -0.037774089723825455
v 0.020960543304681778 0.008769314736127853 -0.10523519665002823
v 0.08874806016683578 -0.09031254798173904 0.02187832072377205
v -0.08684561401605606 0.019016096368432045 -0.024944620206952095
v -0.1822027713060379 0.19981954991817474 0.015038358978927135
v -0.12634573876857758 -0.14845146238803864 -0.10927605628967285
v -0.14442065358161926 0.20302797853946686 -0.05073076859116554
v -0.102525994181633 -0.0701996311545372 -0.0494646318256855
v 0.10262861102819443 -0.22737596929073334 -0.015337636694312096
v -0.041127923876047134 -0.16129468381404877 0.060386694967746735
v -0.1999533474445343 0.1343764364719391 -0.14451248943805695
v -0.11600576341152191 0.0026185824535787106 -0.0708838477730751
v -0.027038779109716415 -0.09439843147993088 -0.07323716580867767
v 0.09951333701610565 0.024842631071805954 0.13504759967327118
v -0.17708593606948853 -0.17356301844120026 0.08347500115633011
v 0.16110920906066895 -0.048754751682281494 0.19193778932094574
v -0.11566712707281113 -0.017997505143284798 0.1318970024585724
v -0.2039923220872879 -0.025966418907046318 0.03872945159673691
v -0.23521070182323456 -0.10013505071401596 0.18644562363624573
v -0.052218735218048096 0.04873773455619812 0.0965471938252449
v -0.0970475897192955 0.2811017632484436 0.09247249364852905
v -0.14139677584171295 0.2734428346157074 0.08365678787231445
v 0.15468908846378326 -0.10432510823011398 0.003643548581749201
v 0.22369173169136047 -0.06383544206619263 0.12423764169216156
v 0.21920345723628998 0.007986387237906456 0.12279634177684784
v -0.08604294806718826 -0.014735453762114048 -0.040065813809633255
v -0.09472723305225372 -0.07610476016998291 0.15568645298480988
v -0.10451735556125641 -0.22949574887752533 0.006862447131425142
v -0.15586262941360474 0.2485266923904419 -0.08775092661380768
v -0.15714122354984283 0.29576364159584045 -0.14956653118133545
v -0.2864486575126648 0.23591330647468567 0.07647143304347992
v -0.08772622048854828 -0.07370492815971375 -0.07718156278133392
v 0.11916901171207428 -0.3578794002532959 0.13517488539218903
v 0.07529266923666 -0.09358353912830353 0.10256732255220413
v -0.014227384701371193 0.12426727265119553 0.2145911008119583
v -0.2650146782398224 0.406133234500885 0.005644478369504213
v -0.08454082161188126 0.12249918282032013 -0.19350148737430573
v -0.08987068384885788 -0.012059887871146202 -0.16637209057807922
v -0.36819547414779663 0.45353585481643677 0.031686268746852875
v -0.2671521306037903 0.2980383634567261 -0.12832826375961304
v -0.1480434685945511 0.10586864501237869 0.15852870047092438
v -0.1377001404762268 -0.33116447925567627 0.04069634899497032
v -0.16118672490119934 0.1490262895822525 0.18970391154289246
v -0.16515932977199554 0.47032883763313293 -0.0496748685836792
v -0.16006489098072052 0.026640741154551506 -0.006349461618810892
v -0.04335346445441246 -0.12419780343770981 -0.09746426343917847
v -0.016854992136359215 -0.04762907698750496 -0.16443172097206116
v -0.14433379471302032 -0.2702558934688568 0.14768370985984802
v -0.1348922699689865 0.23906517028808594 -0.06018688529729843
v -0.04263225942850113 -0.0198051854968071 0.1005602553486824
v -0.1460835486650467 -0.32481274008750916 -0.11796462535858154
v -0.0594121478497982 0.04263878986239433 0.016946883872151375
v -0.08849314600229263 -0.19841575622558594 0.2006116658449173
v 0.10593580454587936 -0.06272293627262115 0.10955075174570084
v 0.0179783646017313 0.1412563920021057 0.005010402295738459
v 0.04195645451545715 -0.09341056644916534 -0.14180997014045715
v -0.04692695289850235 -0.09061627089977264 -0.16845326125621796
v -0.15078918635845184 0.21543441712856293 -0.012613839469850063
v 0.04282116889953613 0.08197490125894547 0.1093875989317894
v -0.07738491892814636 0.07765737920999527 -0.042794208973646164
v 0.052983857691287994 0.06892425566911697 0.17015931010246277
v 0.029680386185646057 0.06505885720252991 -0.13868483901023865
v -0.11792333424091339 0.2916085720062256 -0.18312488496303558
v -0.011151408776640892 -0.10378821939229965 0.07300872355699539
v -0.2107926309108734 0.07057736068964005 -0.015300012193620205
v -0.2110513597726822 -0.016179855912923813 0.030900202691555023
v -0.13726472854614258 0.023065319284796715 0.10725636035203934
v -0.19525739550590515 0.46817654371261597 -0.07698647677898407
v -0.0847848653793335 -0.14505505561828613 -0.07032418996095657
v -0.01471752393990755 -0.0003998615429736674 0.03590449318289757
v -0.09025643020868301 -0.04762861132621765 -0.08975426107645035
v -0.16428588330745697 0.014992439188063145 -0.10540085285902023
v -0.1935880482196808 -0.003915011882781982 -0.034551773220300674
v -0.11289780586957932 0.07536819577217102 -0.06249019131064415
v 0.20163603127002716 -0.13802018761634827 0.1651218980550766
v -0.16538648307323456 0.4054367244243622 0.08847671002149582
v 0.1800420582294464 -0.21114414930343628 -0.11078623682260513
v 0.06841560453176498 -0.027220970019698143 -0.09789527207612991
v 0.11129273474216461 0.006284316070377827 0.03537372499704361
v -0.07313013076782227 -0.01408814825117588 -0.005763609427958727
v 0.1303350329399109 -0.1346934288740158 -0.15917524695396423
v -0.07817209511995316 -0.047920651733875275 0.07074379175901413
v -0.041862502694129944 -0.03033684380352497 0.12284904718399048
v -0.1479659378528595 0.33784767985343933 0.15244060754776
v 0.015890417620539665 -0.05128655582666397 -0.0719979926943779
v -0.022537069395184517 -0.11686225980520248 0.10911325365304947
v 0.01114870235323906 -0.08316966146230698 0.07842496782541275
v 0.09989926218986511 -0.19876402616500854 -0.060614943504333496
v -0.06256838887929916 0.17065857350826263 -0.11258477717638016
v -0.25208741426467896 0.20944546163082123 0.1041719987988472
v -0.13019827008247375 0.19179630279541016 0.06149153783917427
v 0.14068834483623505 -0.01831127516925335 0.17677229642868042
v -0.09097974002361298 0.012459740042686462 0.08362052589654922
v 0.025561416521668434 -0.3654351532459259 -0.09759179502725601
v 0.13632440567016602 -0.0693458542227745 -0.0832226574420929
v 0.030035793781280518 0.09276558458805084 -0.07389052957296371
v 0.0341801792383194 -0.06758829951286316 0.13224713504314423
v -0.13554443418979645 0.08237475901842117 0.13519969582557678
v -0.08148860186338425 0.022901222109794617 0.07381856441497803
v 0.14290553331375122 -0.045461323112249374 -0.17666618525981903
v 0.014897342771291733 -0.2650764286518097 0.23566403985023499
v 0.04523071274161339 -0.2327890247106552 -0.09098469465970993
v -0.2109585702419281 0.27741867303848267 -0.1318562626838684
v 0.11501514911651611 -0.018784351646900177 0.06628616899251938
v -0.19037622213363647 0.25359225273132324 0.11686813086271286
v 0.17404551804065704 -0.08416718244552612 0.08254225552082062
v -0.21360503137111664 0.350626677274704 -0.016210470348596573
v -0.06484196335077286 -0.06500469148159027 0.2244376838207245
v -0.13719139993190765 -0.023903122171759605 -0.16757069528102875
v 0.06833508610725403 0.021109728142619133 0.192057266831398
v -0.19183574616909027 0.1501176953315735 -0.1449062079191208
v 0.2373550981283188 0.00441317493095994 -0.024998394772410393
v -0.11436136811971664 -0.22635085880756378 -0.0357259064912796
v -0.16376692056655884 0.22891061007976532 -0.025753451511263847
v -0.03824148327112198 0.03801117092370987 -0.1457156538963318
v -0.028443817049264908 -0.03647894039750099 -0.1617395430803299
v -0.08876245468854904 -0.04695388674736023 -0.24260231852531433
v 0.1849215030670166 -0.11485268920660019 0.28550851345062256
v -0.04753218591213226 -0.09494315087795258 0.10895522683858871
v -0.0563691146671772 0.12515144050121307 -0.07216966152191162
v -0.09324756264686584 -0.02569763921201229 0.0650925412774086
v -0.16496023535728455 0.08658341318368912 -0.14047202467918396
v 0.11347955465316772 -0.14238977432250977 0.13800209760665894
v -0.017694683745503426 -0.11295878142118454 -0.024474505335092545
v 0.15739771723747253 -0.08213391155004501 -0.02983081340789795
v -0.037843745201826096 0.06170995905995369 0.05430951341986656
v -0.05678141862154007 0.30180418491363525 -0.04535958543419838
v -0.21990597248077393 0.09992843121290207 0.0038996709045022726
v 0.19476346671581268 0.020263593643903732 0.15649281442165375
v 0.15100909769535065 -0.047009918838739395 0.067447729408741
v 0.009237907826900482 -0.02543223835527897 -0.011256519705057144
v 0.0009535019635222852 -0.17985831201076508 -0.012849428690969944
v 0.08189163357019424 -0.021674348041415215 -0.05890031158924103
v -0.1718534380197525 0.20711947977542877 0.03392190486192703
v -0.15684621036052704 0.09018303453922272 0.16729940474033356
v -0.08921761065721512 -0.04362523928284645 0.11269302666187286
v 0.07942678034305573 -0.35397616028785706 0.14870136976242065
v 0.025996185839176178 -0.15424534678459167 -0.15952788293361664
v -0.17031773924827576 0.2052435725927353 0.045794107019901276
v -0.08198313415050507 -0.0707104429602623 -0.06423088908195496
v 0.000803477771114558 -0.005246458109468222 0.04977235570549965
v -0.14376483857631683 0.1209290623664856 -0.07171052694320679
v 0.13581913709640503 -0.20513737201690674 0.21200963854789734
v -0.18512576818466187 0.19182470440864563 0.1366678923368454
v 0.11878048628568649 -0.2646605372428894 0.1429983675479889
v 0.06505858898162842 0.13336551189422607 0.2135787308216095
